<svg xmlns="http://www.w3.org/2000/svg" viewBox="0 0 352 288" version="1.1">
<g id="qubit_lines">
<path id="qubit_line:0" d="M64,64 L320,64 " stroke="black"/>
<text dominant-baseline="central" text-anchor="end" font-family="monospace" font-size="12" x="64" y="64">q0</text>
<path id="qubit_line:1" d="M64,128 L320,128 " stroke="black"/>
<text dominant-baseline="central" text-anchor="end" font-family="monospace" font-size="12" x="64" y="128">q1</text>
<path id="qubit_line:2" d="M64,192 L320,192 " stroke="black"/>
<text dominant-baseline="central" text-anchor="end" font-family="monospace" font-size="12" x="64" y="192">q2</text>
</g>
<rect x="80" y="48" width="32" height="32" stroke="black" fill="white"/>
<text dominant-baseline="central" text-anchor="middle" font-family="monospace" font-size="30" x="96" y="64">H</text>
<path d="M160,64 L160,128 " stroke="black"/>
<circle cx="160" cy="64" r="12" stroke="none" fill="black"/>
<circle cx="160" cy="128" r="12" stroke="black" fill="white"/>
<path d="M148,128 L172,128 M160,116 L160,140 " stroke="black"/>
<path d="M224,128 L224,192 " stroke="black"/>
<circle cx="224" cy="128" r="12" stroke="none" fill="black"/>
<circle cx="224" cy="192" r="12" stroke="black" fill="white"/>
<path d="M212,192 L236,192 M224,180 L224,204 " stroke="black"/>
<rect x="208" y="48" width="32" height="32" stroke="black" fill="black"/>
<text dominant-baseline="central" text-anchor="middle" font-family="monospace" font-size="30" x="224" y="64" fill="white">M</text>
<text dominant-baseline="hanging" text-anchor="middle" font-family="monospace" font-size="10" stroke="red" x="224" y="84">0</text>
<text text-anchor="middle" font-family="monospace" font-size="8" x="224" y="44">rec[0]</text>
<rect x="272" y="112" width="32" height="32" stroke="black" fill="black"/>
<text dominant-baseline="central" text-anchor="middle" font-family="monospace" font-size="30" x="288" y="128" fill="white">M</text>
<text dominant-baseline="hanging" text-anchor="middle" font-family="monospace" font-size="10" stroke="red" x="288" y="148">0</text>
<text text-anchor="middle" font-family="monospace" font-size="8" x="288" y="108">rec[1]</text>
<rect x="272" y="176" width="32" height="32" stroke="black" fill="black"/>
<text dominant-baseline="central" text-anchor="middle" font-family="monospace" font-size="30" x="288" y="192" fill="white">M</text>
<text dominant-baseline="hanging" text-anchor="middle" font-family="monospace" font-size="10" stroke="red" x="288" y="212">0</text>
<text text-anchor="middle" font-family="monospace" font-size="8" x="288" y="172">rec[2]</text>
</svg>