<svg xmlns="http://www.w3.org/2000/svg" viewBox="0 0 480 224" version="1.1">
<g id="qubit_lines">
<path id="qubit_line:0" d="M64,64 L448,64 " stroke="black"/>
<text dominant-baseline="central" text-anchor="end" font-family="monospace" font-size="12" x="64" y="64">q0</text>
<path id="qubit_line:1" d="M64,128 L448,128 " stroke="black"/>
<text dominant-baseline="central" text-anchor="end" font-family="monospace" font-size="12" x="64" y="128">q1</text>
</g>
<rect x="80" y="48" width="32" height="32" stroke="black" fill="pink"/>
<text dominant-baseline="central" text-anchor="middle" font-family="monospace" font-size="12" x="96" y="64">DEP<tspan baseline-shift="sub" font-size="10">1</tspan></text>
<text dominant-baseline="hanging" text-anchor="middle" font-family="monospace" font-size="10" stroke="red" x="96" y="84">0.01</text>
<rect x="80" y="112" width="32" height="32" stroke="black" fill="pink"/>
<text dominant-baseline="central" text-anchor="middle" font-family="monospace" font-size="12" x="96" y="128">DEP<tspan baseline-shift="sub" font-size="10">1</tspan></text>
<text dominant-baseline="hanging" text-anchor="middle" font-family="monospace" font-size="10" stroke="red" x="96" y="148">0.01</text>
<rect x="144" y="48" width="32" height="32" stroke="black" fill="white"/>
<text dominant-baseline="central" text-anchor="middle" font-family="monospace" font-size="30" x="160" y="64">H</text>
<path d="M224,64 L224,128 " stroke="black"/>
<circle cx="224" cy="64" r="12" stroke="none" fill="black"/>
<circle cx="224" cy="128" r="12" stroke="black" fill="white"/>
<path d="M212,128 L236,128 M224,116 L224,140 " stroke="black"/>
<path d="M288,64 L288,128 " stroke="black"/>
<rect x="272" y="48" width="32" height="32" stroke="black" fill="pink"/>
<text dominant-baseline="central" text-anchor="middle" font-family="monospace" font-size="12" x="288" y="64">DEP<tspan baseline-shift="sub" font-size="10">2</tspan></text>
<rect x="272" y="112" width="32" height="32" stroke="black" fill="pink"/>
<text dominant-baseline="central" text-anchor="middle" font-family="monospace" font-size="12" x="288" y="128">DEP<tspan baseline-shift="sub" font-size="10">2</tspan></text>
<text dominant-baseline="hanging" text-anchor="middle" font-family="monospace" font-size="10" stroke="red" x="288" y="148">0.02</text>
<rect x="336" y="48" width="32" height="32" stroke="black" fill="pink"/>
<text dominant-baseline="central" text-anchor="middle" font-family="monospace" font-size="12" x="352" y="64">DEP<tspan baseline-shift="sub" font-size="10">1</tspan></text>
<text dominant-baseline="hanging" text-anchor="middle" font-family="monospace" font-size="10" stroke="red" x="352" y="84">0.01</text>
<rect x="336" y="112" width="32" height="32" stroke="black" fill="pink"/>
<text dominant-baseline="central" text-anchor="middle" font-family="monospace" font-size="12" x="352" y="128">DEP<tspan baseline-shift="sub" font-size="10">1</tspan></text>
<text dominant-baseline="hanging" text-anchor="middle" font-family="monospace" font-size="10" stroke="red" x="352" y="148">0.01</text>
<rect x="400" y="48" width="32" height="32" stroke="black" fill="black"/>
<text dominant-baseline="central" text-anchor="middle" font-family="monospace" font-size="30" x="416" y="64" fill="white">M</text>
<text dominant-baseline="hanging" text-anchor="middle" font-family="monospace" font-size="10" stroke="red" x="416" y="84">0</text>
<text text-anchor="middle" font-family="monospace" font-size="8" x="416" y="44">rec[0]</text>
<rect x="400" y="112" width="32" height="32" stroke="black" fill="black"/>
<text dominant-baseline="central" text-anchor="middle" font-family="monospace" font-size="30" x="416" y="128" fill="white">M</text>
<text dominant-baseline="hanging" text-anchor="middle" font-family="monospace" font-size="10" stroke="red" x="416" y="148">0</text>
<text text-anchor="middle" font-family="monospace" font-size="8" x="416" y="108">rec[1]</text>
</svg>