<svg xmlns="http://www.w3.org/2000/svg" viewBox="0 0 3360 544" version="1.1">
<g id="qubit_lines">
<path id="qubit_line:0" d="M64,64 L3328,64 " stroke="black"/>
<text dominant-baseline="central" text-anchor="end" font-family="monospace" font-size="12" x="64" y="64">q0</text>
<path id="qubit_line:1" d="M64,128 L3328,128 " stroke="black"/>
<text dominant-baseline="central" text-anchor="end" font-family="monospace" font-size="12" x="64" y="128">q1</text>
<path id="qubit_line:2" d="M64,192 L3328,192 " stroke="black"/>
<text dominant-baseline="central" text-anchor="end" font-family="monospace" font-size="12" x="64" y="192">q2</text>
<path id="qubit_line:3" d="M64,256 L3328,256 " stroke="black"/>
<text dominant-baseline="central" text-anchor="end" font-family="monospace" font-size="12" x="64" y="256">q3</text>
<path id="qubit_line:4" d="M64,320 L3328,320 " stroke="black"/>
<text dominant-baseline="central" text-anchor="end" font-family="monospace" font-size="12" x="64" y="320">q4</text>
<path id="qubit_line:5" d="M64,384 L3328,384 " stroke="black"/>
<text dominant-baseline="central" text-anchor="end" font-family="monospace" font-size="12" x="64" y="384">q5</text>
<path id="qubit_line:6" d="M64,448 L3328,448 " stroke="black"/>
<text dominant-baseline="central" text-anchor="end" font-family="monospace" font-size="12" x="64" y="448">q6</text>
</g>
<rect x="80" y="48" width="32" height="32" stroke="black" fill="white"/>
<text dominant-baseline="central" text-anchor="middle" font-family="monospace" font-size="30" x="96" y="64">S</text>
<rect x="144" y="48" width="32" height="32" stroke="black" fill="white"/>
<text dominant-baseline="central" text-anchor="middle" font-family="monospace" font-size="30" x="160" y="64">H</text>
<rect x="208" y="48" width="32" height="32" stroke="black" fill="white"/>
<text dominant-baseline="central" text-anchor="middle" font-family="monospace" font-size="30" x="224" y="64">S</text>
<rect x="272" y="48" width="32" height="32" stroke="black" fill="white"/>
<text dominant-baseline="central" text-anchor="middle" font-family="monospace" font-size="30" x="288" y="64">S</text>
<rect x="336" y="48" width="32" height="32" stroke="black" fill="white"/>
<text dominant-baseline="central" text-anchor="middle" font-family="monospace" font-size="30" x="352" y="64">S</text>
<rect x="336" y="112" width="32" height="32" stroke="black" fill="white"/>
<text dominant-baseline="central" text-anchor="middle" font-family="monospace" font-size="30" x="352" y="128">S</text>
<rect x="400" y="112" width="32" height="32" stroke="black" fill="white"/>
<text dominant-baseline="central" text-anchor="middle" font-family="monospace" font-size="30" x="416" y="128">H</text>
<rect x="464" y="112" width="32" height="32" stroke="black" fill="white"/>
<text dominant-baseline="central" text-anchor="middle" font-family="monospace" font-size="30" x="480" y="128">S</text>
<rect x="528" y="112" width="32" height="32" stroke="black" fill="white"/>
<text dominant-baseline="central" text-anchor="middle" font-family="monospace" font-size="30" x="544" y="128">S</text>
<rect x="592" y="112" width="32" height="32" stroke="black" fill="white"/>
<text dominant-baseline="central" text-anchor="middle" font-family="monospace" font-size="30" x="608" y="128">S</text>
<rect x="592" y="176" width="32" height="32" stroke="black" fill="white"/>
<text dominant-baseline="central" text-anchor="middle" font-family="monospace" font-size="30" x="608" y="192">S</text>
<rect x="656" y="176" width="32" height="32" stroke="black" fill="white"/>
<text dominant-baseline="central" text-anchor="middle" font-family="monospace" font-size="30" x="672" y="192">H</text>
<rect x="720" y="176" width="32" height="32" stroke="black" fill="white"/>
<text dominant-baseline="central" text-anchor="middle" font-family="monospace" font-size="30" x="736" y="192">S</text>
<rect x="784" y="176" width="32" height="32" stroke="black" fill="white"/>
<text dominant-baseline="central" text-anchor="middle" font-family="monospace" font-size="30" x="800" y="192">S</text>
<rect x="848" y="176" width="32" height="32" stroke="black" fill="white"/>
<text dominant-baseline="central" text-anchor="middle" font-family="monospace" font-size="30" x="864" y="192">S</text>
<rect x="848" y="240" width="32" height="32" stroke="black" fill="white"/>
<text dominant-baseline="central" text-anchor="middle" font-family="monospace" font-size="30" x="864" y="256">S</text>
<rect x="912" y="240" width="32" height="32" stroke="black" fill="white"/>
<text dominant-baseline="central" text-anchor="middle" font-family="monospace" font-size="30" x="928" y="256">H</text>
<rect x="976" y="240" width="32" height="32" stroke="black" fill="white"/>
<text dominant-baseline="central" text-anchor="middle" font-family="monospace" font-size="30" x="992" y="256">S</text>
<rect x="1040" y="240" width="32" height="32" stroke="black" fill="white"/>
<text dominant-baseline="central" text-anchor="middle" font-family="monospace" font-size="30" x="1056" y="256">S</text>
<rect x="1104" y="240" width="32" height="32" stroke="black" fill="white"/>
<text dominant-baseline="central" text-anchor="middle" font-family="monospace" font-size="30" x="1120" y="256">S</text>
<rect x="1104" y="304" width="32" height="32" stroke="black" fill="white"/>
<text dominant-baseline="central" text-anchor="middle" font-family="monospace" font-size="30" x="1120" y="320">S</text>
<rect x="1168" y="304" width="32" height="32" stroke="black" fill="white"/>
<text dominant-baseline="central" text-anchor="middle" font-family="monospace" font-size="30" x="1184" y="320">H</text>
<rect x="1232" y="304" width="32" height="32" stroke="black" fill="white"/>
<text dominant-baseline="central" text-anchor="middle" font-family="monospace" font-size="30" x="1248" y="320">S</text>
<rect x="1296" y="304" width="32" height="32" stroke="black" fill="white"/>
<text dominant-baseline="central" text-anchor="middle" font-family="monospace" font-size="30" x="1312" y="320">S</text>
<rect x="1360" y="304" width="32" height="32" stroke="black" fill="white"/>
<text dominant-baseline="central" text-anchor="middle" font-family="monospace" font-size="30" x="1376" y="320">S</text>
<rect x="1360" y="368" width="32" height="32" stroke="black" fill="white"/>
<text dominant-baseline="central" text-anchor="middle" font-family="monospace" font-size="30" x="1376" y="384">S</text>
<rect x="1424" y="368" width="32" height="32" stroke="black" fill="white"/>
<text dominant-baseline="central" text-anchor="middle" font-family="monospace" font-size="30" x="1440" y="384">H</text>
<rect x="1488" y="368" width="32" height="32" stroke="black" fill="white"/>
<text dominant-baseline="central" text-anchor="middle" font-family="monospace" font-size="30" x="1504" y="384">S</text>
<rect x="1552" y="368" width="32" height="32" stroke="black" fill="white"/>
<text dominant-baseline="central" text-anchor="middle" font-family="monospace" font-size="30" x="1568" y="384">S</text>
<rect x="1616" y="368" width="32" height="32" stroke="black" fill="white"/>
<text dominant-baseline="central" text-anchor="middle" font-family="monospace" font-size="30" x="1632" y="384">S</text>
<path d="M1632,64 L1632,128 " stroke="black"/>
<circle cx="1632" cy="128" r="12" stroke="none" fill="black"/>
<circle cx="1632" cy="64" r="12" stroke="black" fill="white"/>
<path d="M1620,64 L1644,64 M1632,52 L1632,76 " stroke="black"/>
<path d="M1696,128 L1696,448 " stroke="black"/>
<circle cx="1696" cy="448" r="12" stroke="none" fill="black"/>
<circle cx="1696" cy="128" r="12" stroke="black" fill="white"/>
<path d="M1684,128 L1708,128 M1696,116 L1696,140 " stroke="black"/>
<path d="M1760,128 L1760,192 " stroke="black"/>
<circle cx="1760" cy="192" r="12" stroke="none" fill="black"/>
<circle cx="1760" cy="128" r="12" stroke="black" fill="white"/>
<path d="M1748,128 L1772,128 M1760,116 L1760,140 " stroke="black"/>
<path d="M1824,192 L1824,448 " stroke="black"/>
<circle cx="1824" cy="448" r="12" stroke="none" fill="black"/>
<circle cx="1824" cy="192" r="12" stroke="black" fill="white"/>
<path d="M1812,192 L1836,192 M1824,180 L1824,204 " stroke="black"/>
<path d="M1888,192 L1888,256 " stroke="black"/>
<circle cx="1888" cy="256" r="12" stroke="none" fill="black"/>
<circle cx="1888" cy="192" r="12" stroke="black" fill="white"/>
<path d="M1876,192 L1900,192 M1888,180 L1888,204 " stroke="black"/>
<path d="M1952,256 L1952,448 " stroke="black"/>
<circle cx="1952" cy="448" r="12" stroke="none" fill="black"/>
<circle cx="1952" cy="256" r="12" stroke="black" fill="white"/>
<path d="M1940,256 L1964,256 M1952,244 L1952,268 " stroke="black"/>
<rect x="1936" y="176" width="32" height="32" stroke="black" fill="white"/>
<text dominant-baseline="central" text-anchor="middle" font-family="monospace" font-size="30" x="1952" y="192">S</text>
<rect x="2000" y="176" width="32" height="32" stroke="black" fill="white"/>
<text dominant-baseline="central" text-anchor="middle" font-family="monospace" font-size="30" x="2016" y="192">H</text>
<rect x="2064" y="176" width="32" height="32" stroke="black" fill="white"/>
<text dominant-baseline="central" text-anchor="middle" font-family="monospace" font-size="30" x="2080" y="192">S</text>
<rect x="2128" y="176" width="32" height="32" stroke="black" fill="white"/>
<text dominant-baseline="central" text-anchor="middle" font-family="monospace" font-size="30" x="2144" y="192">S</text>
<rect x="2192" y="176" width="32" height="32" stroke="black" fill="white"/>
<text dominant-baseline="central" text-anchor="middle" font-family="monospace" font-size="30" x="2208" y="192">S</text>
<rect x="2192" y="240" width="32" height="32" stroke="black" fill="white"/>
<text dominant-baseline="central" text-anchor="middle" font-family="monospace" font-size="30" x="2208" y="256">S</text>
<rect x="2256" y="240" width="32" height="32" stroke="black" fill="white"/>
<text dominant-baseline="central" text-anchor="middle" font-family="monospace" font-size="30" x="2272" y="256">H</text>
<rect x="2320" y="240" width="32" height="32" stroke="black" fill="white"/>
<text dominant-baseline="central" text-anchor="middle" font-family="monospace" font-size="30" x="2336" y="256">S</text>
<rect x="2384" y="240" width="32" height="32" stroke="black" fill="white"/>
<text dominant-baseline="central" text-anchor="middle" font-family="monospace" font-size="30" x="2400" y="256">S</text>
<rect x="2448" y="240" width="32" height="32" stroke="black" fill="white"/>
<text dominant-baseline="central" text-anchor="middle" font-family="monospace" font-size="30" x="2464" y="256">S</text>
<rect x="2448" y="304" width="32" height="32" stroke="black" fill="white"/>
<text dominant-baseline="central" text-anchor="middle" font-family="monospace" font-size="30" x="2464" y="320">S</text>
<rect x="2512" y="304" width="32" height="32" stroke="black" fill="white"/>
<text dominant-baseline="central" text-anchor="middle" font-family="monospace" font-size="30" x="2528" y="320">H</text>
<rect x="2576" y="304" width="32" height="32" stroke="black" fill="white"/>
<text dominant-baseline="central" text-anchor="middle" font-family="monospace" font-size="30" x="2592" y="320">S</text>
<rect x="2640" y="304" width="32" height="32" stroke="black" fill="white"/>
<text dominant-baseline="central" text-anchor="middle" font-family="monospace" font-size="30" x="2656" y="320">S</text>
<rect x="2704" y="304" width="32" height="32" stroke="black" fill="white"/>
<text dominant-baseline="central" text-anchor="middle" font-family="monospace" font-size="30" x="2720" y="320">S</text>
<rect x="2704" y="368" width="32" height="32" stroke="black" fill="white"/>
<text dominant-baseline="central" text-anchor="middle" font-family="monospace" font-size="30" x="2720" y="384">S</text>
<rect x="2768" y="368" width="32" height="32" stroke="black" fill="white"/>
<text dominant-baseline="central" text-anchor="middle" font-family="monospace" font-size="30" x="2784" y="384">H</text>
<rect x="2832" y="368" width="32" height="32" stroke="black" fill="white"/>
<text dominant-baseline="central" text-anchor="middle" font-family="monospace" font-size="30" x="2848" y="384">S</text>
<rect x="2896" y="368" width="32" height="32" stroke="black" fill="white"/>
<text dominant-baseline="central" text-anchor="middle" font-family="monospace" font-size="30" x="2912" y="384">S</text>
<rect x="2960" y="368" width="32" height="32" stroke="black" fill="white"/>
<text dominant-baseline="central" text-anchor="middle" font-family="monospace" font-size="30" x="2976" y="384">S</text>
<path d="M2976,192 L2976,320 " stroke="black"/>
<circle cx="2976" cy="192" r="12" stroke="none" fill="black"/>
<circle cx="2976" cy="320" r="12" stroke="black" fill="white"/>
<path d="M2964,320 L2988,320 M2976,308 L2976,332 " stroke="black"/>
<path d="M3040,320 L3040,448 " stroke="black"/>
<circle cx="3040" cy="448" r="12" stroke="none" fill="black"/>
<circle cx="3040" cy="320" r="12" stroke="black" fill="white"/>
<path d="M3028,320 L3052,320 M3040,308 L3040,332 " stroke="black"/>
<path d="M3104,256 L3104,384 " stroke="black"/>
<circle cx="3104" cy="256" r="12" stroke="none" fill="black"/>
<circle cx="3104" cy="384" r="12" stroke="black" fill="white"/>
<path d="M3092,384 L3116,384 M3104,372 L3104,396 " stroke="black"/>
<path d="M3168,384 L3168,448 " stroke="black"/>
<circle cx="3168" cy="448" r="12" stroke="none" fill="black"/>
<circle cx="3168" cy="384" r="12" stroke="black" fill="white"/>
<path d="M3156,384 L3180,384 M3168,372 L3168,396 " stroke="black"/>
<path d="M3168,128 L3168,320 " stroke="black"/>
<circle cx="3168" cy="320" r="12" stroke="none" fill="black"/>
<circle cx="3168" cy="128" r="12" stroke="black" fill="white"/>
<path d="M3156,128 L3180,128 M3168,116 L3168,140 " stroke="black"/>
<path d="M3232,192 L3232,384 " stroke="black"/>
<circle cx="3232" cy="384" r="12" stroke="none" fill="black"/>
<circle cx="3232" cy="192" r="12" stroke="black" fill="white"/>
<path d="M3220,192 L3244,192 M3232,180 L3232,204 " stroke="black"/>
<rect x="3216" y="48" width="32" height="32" stroke="black" fill="black"/>
<text dominant-baseline="central" text-anchor="middle" font-family="monospace" font-size="30" x="3232" y="64" fill="white">M</text>
<text dominant-baseline="hanging" text-anchor="middle" font-family="monospace" font-size="10" stroke="red" x="3232" y="84">0</text>
<text text-anchor="middle" font-family="monospace" font-size="8" x="3232" y="44">rec[0]</text>
<rect x="3216" y="112" width="32" height="32" stroke="black" fill="black"/>
<text dominant-baseline="central" text-anchor="middle" font-family="monospace" font-size="30" x="3232" y="128" fill="white">M</text>
<text dominant-baseline="hanging" text-anchor="middle" font-family="monospace" font-size="10" stroke="red" x="3232" y="148">0</text>
<text text-anchor="middle" font-family="monospace" font-size="8" x="3232" y="108">rec[1]</text>
<rect x="3280" y="176" width="32" height="32" stroke="black" fill="black"/>
<text dominant-baseline="central" text-anchor="middle" font-family="monospace" font-size="30" x="3296" y="192" fill="white">M</text>
<text dominant-baseline="hanging" text-anchor="middle" font-family="monospace" font-size="10" stroke="red" x="3296" y="212">0</text>
<text text-anchor="middle" font-family="monospace" font-size="8" x="3296" y="172">rec[2]</text>
<rect x="3280" y="240" width="32" height="32" stroke="black" fill="black"/>
<text dominant-baseline="central" text-anchor="middle" font-family="monospace" font-size="30" x="3296" y="256" fill="white">M</text>
<text dominant-baseline="hanging" text-anchor="middle" font-family="monospace" font-size="10" stroke="red" x="3296" y="276">0</text>
<text text-anchor="middle" font-family="monospace" font-size="8" x="3296" y="236">rec[3]</text>
<rect x="3280" y="304" width="32" height="32" stroke="black" fill="black"/>
<text dominant-baseline="central" text-anchor="middle" font-family="monospace" font-size="30" x="3296" y="320" fill="white">M</text>
<text dominant-baseline="hanging" text-anchor="middle" font-family="monospace" font-size="10" stroke="red" x="3296" y="340">0</text>
<text text-anchor="middle" font-family="monospace" font-size="8" x="3296" y="300">rec[4]</text>
<rect x="3280" y="368" width="32" height="32" stroke="black" fill="black"/>
<text dominant-baseline="central" text-anchor="middle" font-family="monospace" font-size="30" x="3296" y="384" fill="white">M</text>
<text dominant-baseline="hanging" text-anchor="middle" font-family="monospace" font-size="10" stroke="red" x="3296" y="404">0</text>
<text text-anchor="middle" font-family="monospace" font-size="8" x="3296" y="364">rec[5]</text>
<rect x="3280" y="432" width="32" height="32" stroke="black" fill="black"/>
<text dominant-baseline="central" text-anchor="middle" font-family="monospace" font-size="30" x="3296" y="448" fill="white">M</text>
<text dominant-baseline="hanging" text-anchor="middle" font-family="monospace" font-size="10" stroke="red" x="3296" y="468">0</text>
<text text-anchor="middle" font-family="monospace" font-size="8" x="3296" y="428">rec[6]</text>
</svg>