<svg xmlns="http://www.w3.org/2000/svg" viewBox="0 0 2848 928" version="1.1">
<g id="qubit_lines">
<path id="qubit_line:0" d="M64,64 L2816,64 " stroke="black"/>
<text dominant-baseline="central" text-anchor="end" font-family="monospace" font-size="12" x="64" y="64">q0</text>
<path id="qubit_line:1" d="M64,128 L2816,128 " stroke="black"/>
<text dominant-baseline="central" text-anchor="end" font-family="monospace" font-size="12" x="64" y="128">q1</text>
<path id="qubit_line:2" d="M64,192 L2816,192 " stroke="black"/>
<text dominant-baseline="central" text-anchor="end" font-family="monospace" font-size="12" x="64" y="192">q2</text>
<path id="qubit_line:3" d="M64,256 L2816,256 " stroke="black"/>
<text dominant-baseline="central" text-anchor="end" font-family="monospace" font-size="12" x="64" y="256">q3</text>
<path id="qubit_line:4" d="M64,320 L2816,320 " stroke="black"/>
<text dominant-baseline="central" text-anchor="end" font-family="monospace" font-size="12" x="64" y="320">q4</text>
<path id="qubit_line:5" d="M64,384 L2816,384 " stroke="black"/>
<text dominant-baseline="central" text-anchor="end" font-family="monospace" font-size="12" x="64" y="384">q5</text>
<path id="qubit_line:6" d="M64,448 L2816,448 " stroke="black"/>
<text dominant-baseline="central" text-anchor="end" font-family="monospace" font-size="12" x="64" y="448">q6</text>
<path id="qubit_line:7" d="M64,512 L2816,512 " stroke="black"/>
<text dominant-baseline="central" text-anchor="end" font-family="monospace" font-size="12" x="64" y="512">q7</text>
<path id="qubit_line:8" d="M64,576 L2816,576 " stroke="black"/>
<text dominant-baseline="central" text-anchor="end" font-family="monospace" font-size="12" x="64" y="576">q8</text>
<path id="qubit_line:9" d="M64,640 L2816,640 " stroke="black"/>
<text dominant-baseline="central" text-anchor="end" font-family="monospace" font-size="12" x="64" y="640">q9</text>
<path id="qubit_line:10" d="M64,704 L2816,704 " stroke="black"/>
<text dominant-baseline="central" text-anchor="end" font-family="monospace" font-size="12" x="64" y="704">q10</text>
<path id="qubit_line:11" d="M64,768 L2816,768 " stroke="black"/>
<text dominant-baseline="central" text-anchor="end" font-family="monospace" font-size="12" x="64" y="768">q11</text>
<path id="qubit_line:12" d="M64,832 L2816,832 " stroke="black"/>
<text dominant-baseline="central" text-anchor="end" font-family="monospace" font-size="12" x="64" y="832">q12</text>
</g>
<rect x="80" y="48" width="32" height="32" stroke="black" fill="white"/>
<text dominant-baseline="central" text-anchor="middle" font-family="monospace" font-size="30" x="96" y="64">H</text>
<rect x="80" y="112" width="32" height="32" stroke="black" fill="white"/>
<text dominant-baseline="central" text-anchor="middle" font-family="monospace" font-size="30" x="96" y="128">H</text>
<rect x="80" y="176" width="32" height="32" stroke="black" fill="white"/>
<text dominant-baseline="central" text-anchor="middle" font-family="monospace" font-size="30" x="96" y="192">H</text>
<path d="M160,64 L160,256 " stroke="black"/>
<circle cx="160" cy="64" r="12" stroke="none" fill="black"/>
<circle cx="160" cy="256" r="12" stroke="black" fill="white"/>
<path d="M148,256 L172,256 M160,244 L160,268 " stroke="black"/>
<path d="M224,128 L224,256 " stroke="black"/>
<circle cx="224" cy="128" r="12" stroke="none" fill="black"/>
<circle cx="224" cy="256" r="12" stroke="black" fill="white"/>
<path d="M212,256 L236,256 M224,244 L224,268 " stroke="black"/>
<path d="M288,64 L288,320 " stroke="black"/>
<circle cx="288" cy="64" r="12" stroke="none" fill="black"/>
<circle cx="288" cy="320" r="12" stroke="black" fill="white"/>
<path d="M276,320 L300,320 M288,308 L288,332 " stroke="black"/>
<path d="M352,192 L352,320 " stroke="black"/>
<circle cx="352" cy="192" r="12" stroke="none" fill="black"/>
<circle cx="352" cy="320" r="12" stroke="black" fill="white"/>
<path d="M340,320 L364,320 M352,308 L352,332 " stroke="black"/>
<path d="M416,128 L416,384 " stroke="black"/>
<circle cx="416" cy="128" r="12" stroke="none" fill="black"/>
<circle cx="416" cy="384" r="12" stroke="black" fill="white"/>
<path d="M404,384 L428,384 M416,372 L416,396 " stroke="black"/>
<path d="M480,192 L480,384 " stroke="black"/>
<circle cx="480" cy="192" r="12" stroke="none" fill="black"/>
<circle cx="480" cy="384" r="12" stroke="black" fill="white"/>
<path d="M468,384 L492,384 M480,372 L480,396 " stroke="black"/>
<path d="M544,64 L544,448 " stroke="black"/>
<circle cx="544" cy="64" r="12" stroke="none" fill="black"/>
<circle cx="544" cy="448" r="12" stroke="black" fill="white"/>
<path d="M532,448 L556,448 M544,436 L544,460 " stroke="black"/>
<path d="M608,128 L608,448 " stroke="black"/>
<circle cx="608" cy="128" r="12" stroke="none" fill="black"/>
<circle cx="608" cy="448" r="12" stroke="black" fill="white"/>
<path d="M596,448 L620,448 M608,436 L608,460 " stroke="black"/>
<path d="M672,192 L672,448 " stroke="black"/>
<circle cx="672" cy="192" r="12" stroke="none" fill="black"/>
<circle cx="672" cy="448" r="12" stroke="black" fill="white"/>
<path d="M660,448 L684,448 M672,436 L672,460 " stroke="black"/>
<rect x="656" y="48" width="32" height="32" stroke="black" fill="white"/>
<text dominant-baseline="central" text-anchor="middle" font-family="monospace" font-size="30" x="672" y="64">X</text>
<rect x="656" y="496" width="32" height="32" stroke="black" fill="white"/>
<text dominant-baseline="central" text-anchor="middle" font-family="monospace" font-size="30" x="672" y="512">H</text>
<path d="M736,64 L736,512 " stroke="black"/>
<circle cx="736" cy="512" r="12" stroke="none" fill="black"/>
<circle cx="736" cy="64" r="12" stroke="black" fill="white"/>
<path d="M724,64 L748,64 M736,52 L736,76 " stroke="black"/>
<path d="M800,128 L800,512 " stroke="black"/>
<circle cx="800" cy="512" r="12" stroke="none" fill="black"/>
<circle cx="800" cy="128" r="12" stroke="black" fill="white"/>
<path d="M788,128 L812,128 M800,116 L800,140 " stroke="black"/>
<path d="M864,192 L864,512 " stroke="black"/>
<circle cx="864" cy="512" r="12" stroke="none" fill="black"/>
<circle cx="864" cy="192" r="12" stroke="black" fill="white"/>
<path d="M852,192 L876,192 M864,180 L864,204 " stroke="black"/>
<path d="M928,256 L928,512 " stroke="black"/>
<circle cx="928" cy="512" r="12" stroke="none" fill="black"/>
<circle cx="928" cy="256" r="12" stroke="black" fill="white"/>
<path d="M916,256 L940,256 M928,244 L928,268 " stroke="black"/>
<rect x="976" y="496" width="32" height="32" stroke="black" fill="white"/>
<text dominant-baseline="central" text-anchor="middle" font-family="monospace" font-size="30" x="992" y="512">H</text>
<rect x="1040" y="496" width="32" height="32" stroke="black" fill="black"/>
<text dominant-baseline="central" text-anchor="middle" font-family="monospace" font-size="30" x="1056" y="512" fill="white">M</text>
<text dominant-baseline="hanging" text-anchor="middle" font-family="monospace" font-size="10" stroke="red" x="1056" y="532">0</text>
<text text-anchor="middle" font-family="monospace" font-size="8" x="1056" y="492">rec[0]</text>
<rect x="1040" y="560" width="32" height="32" stroke="black" fill="white"/>
<text dominant-baseline="central" text-anchor="middle" font-family="monospace" font-size="30" x="1056" y="576">H</text>
<path d="M1120,64 L1120,576 " stroke="black"/>
<circle cx="1120" cy="576" r="12" stroke="none" fill="black"/>
<circle cx="1120" cy="64" r="12" stroke="black" fill="white"/>
<path d="M1108,64 L1132,64 M1120,52 L1120,76 " stroke="black"/>
<path d="M1184,128 L1184,576 " stroke="black"/>
<circle cx="1184" cy="576" r="12" stroke="none" fill="black"/>
<circle cx="1184" cy="128" r="12" stroke="black" fill="white"/>
<path d="M1172,128 L1196,128 M1184,116 L1184,140 " stroke="black"/>
<path d="M1248,320 L1248,576 " stroke="black"/>
<circle cx="1248" cy="576" r="12" stroke="none" fill="black"/>
<circle cx="1248" cy="320" r="12" stroke="black" fill="white"/>
<path d="M1236,320 L1260,320 M1248,308 L1248,332 " stroke="black"/>
<path d="M1312,384 L1312,576 " stroke="black"/>
<circle cx="1312" cy="576" r="12" stroke="none" fill="black"/>
<circle cx="1312" cy="384" r="12" stroke="black" fill="white"/>
<path d="M1300,384 L1324,384 M1312,372 L1312,396 " stroke="black"/>
<rect x="1360" y="560" width="32" height="32" stroke="black" fill="white"/>
<text dominant-baseline="central" text-anchor="middle" font-family="monospace" font-size="30" x="1376" y="576">H</text>
<rect x="1424" y="560" width="32" height="32" stroke="black" fill="black"/>
<text dominant-baseline="central" text-anchor="middle" font-family="monospace" font-size="30" x="1440" y="576" fill="white">M</text>
<text dominant-baseline="hanging" text-anchor="middle" font-family="monospace" font-size="10" stroke="red" x="1440" y="596">0</text>
<text text-anchor="middle" font-family="monospace" font-size="8" x="1440" y="556">rec[1]</text>
<rect x="1424" y="624" width="32" height="32" stroke="black" fill="white"/>
<text dominant-baseline="central" text-anchor="middle" font-family="monospace" font-size="30" x="1440" y="640">H</text>
<path d="M1504,64 L1504,640 " stroke="black"/>
<circle cx="1504" cy="640" r="12" stroke="none" fill="black"/>
<circle cx="1504" cy="64" r="12" stroke="black" fill="white"/>
<path d="M1492,64 L1516,64 M1504,52 L1504,76 " stroke="black"/>
<path d="M1568,192 L1568,640 " stroke="black"/>
<circle cx="1568" cy="640" r="12" stroke="none" fill="black"/>
<circle cx="1568" cy="192" r="12" stroke="black" fill="white"/>
<path d="M1556,192 L1580,192 M1568,180 L1568,204 " stroke="black"/>
<path d="M1632,320 L1632,640 " stroke="black"/>
<circle cx="1632" cy="640" r="12" stroke="none" fill="black"/>
<circle cx="1632" cy="320" r="12" stroke="black" fill="white"/>
<path d="M1620,320 L1644,320 M1632,308 L1632,332 " stroke="black"/>
<path d="M1696,448 L1696,640 " stroke="black"/>
<circle cx="1696" cy="640" r="12" stroke="none" fill="black"/>
<circle cx="1696" cy="448" r="12" stroke="black" fill="white"/>
<path d="M1684,448 L1708,448 M1696,436 L1696,460 " stroke="black"/>
<rect x="1744" y="624" width="32" height="32" stroke="black" fill="white"/>
<text dominant-baseline="central" text-anchor="middle" font-family="monospace" font-size="30" x="1760" y="640">H</text>
<rect x="1808" y="624" width="32" height="32" stroke="black" fill="black"/>
<text dominant-baseline="central" text-anchor="middle" font-family="monospace" font-size="30" x="1824" y="640" fill="white">M</text>
<text dominant-baseline="hanging" text-anchor="middle" font-family="monospace" font-size="10" stroke="red" x="1824" y="660">0</text>
<text text-anchor="middle" font-family="monospace" font-size="8" x="1824" y="620">rec[2]</text>
<path d="M1888,64 L1888,704 " stroke="black"/>
<circle cx="1888" cy="64" r="12" stroke="none" fill="black"/>
<circle cx="1888" cy="704" r="12" stroke="black" fill="white"/>
<path d="M1876,704 L1900,704 M1888,692 L1888,716 " stroke="black"/>
<path d="M1952,128 L1952,704 " stroke="black"/>
<circle cx="1952" cy="128" r="12" stroke="none" fill="black"/>
<circle cx="1952" cy="704" r="12" stroke="black" fill="white"/>
<path d="M1940,704 L1964,704 M1952,692 L1952,716 " stroke="black"/>
<path d="M2016,192 L2016,704 " stroke="black"/>
<circle cx="2016" cy="192" r="12" stroke="none" fill="black"/>
<circle cx="2016" cy="704" r="12" stroke="black" fill="white"/>
<path d="M2004,704 L2028,704 M2016,692 L2016,716 " stroke="black"/>
<path d="M2080,256 L2080,704 " stroke="black"/>
<circle cx="2080" cy="256" r="12" stroke="none" fill="black"/>
<circle cx="2080" cy="704" r="12" stroke="black" fill="white"/>
<path d="M2068,704 L2092,704 M2080,692 L2080,716 " stroke="black"/>
<rect x="2128" y="688" width="32" height="32" stroke="black" fill="black"/>
<text dominant-baseline="central" text-anchor="middle" font-family="monospace" font-size="30" x="2144" y="704" fill="white">M</text>
<text dominant-baseline="hanging" text-anchor="middle" font-family="monospace" font-size="10" stroke="red" x="2144" y="724">0</text>
<text text-anchor="middle" font-family="monospace" font-size="8" x="2144" y="684">rec[3]</text>
<path d="M2208,64 L2208,768 " stroke="black"/>
<circle cx="2208" cy="64" r="12" stroke="none" fill="black"/>
<circle cx="2208" cy="768" r="12" stroke="black" fill="white"/>
<path d="M2196,768 L2220,768 M2208,756 L2208,780 " stroke="black"/>
<path d="M2272,128 L2272,768 " stroke="black"/>
<circle cx="2272" cy="128" r="12" stroke="none" fill="black"/>
<circle cx="2272" cy="768" r="12" stroke="black" fill="white"/>
<path d="M2260,768 L2284,768 M2272,756 L2272,780 " stroke="black"/>
<path d="M2336,320 L2336,768 " stroke="black"/>
<circle cx="2336" cy="320" r="12" stroke="none" fill="black"/>
<circle cx="2336" cy="768" r="12" stroke="black" fill="white"/>
<path d="M2324,768 L2348,768 M2336,756 L2336,780 " stroke="black"/>
<path d="M2400,384 L2400,768 " stroke="black"/>
<circle cx="2400" cy="384" r="12" stroke="none" fill="black"/>
<circle cx="2400" cy="768" r="12" stroke="black" fill="white"/>
<path d="M2388,768 L2412,768 M2400,756 L2400,780 " stroke="black"/>
<rect x="2448" y="752" width="32" height="32" stroke="black" fill="black"/>
<text dominant-baseline="central" text-anchor="middle" font-family="monospace" font-size="30" x="2464" y="768" fill="white">M</text>
<text dominant-baseline="hanging" text-anchor="middle" font-family="monospace" font-size="10" stroke="red" x="2464" y="788">0</text>
<text text-anchor="middle" font-family="monospace" font-size="8" x="2464" y="748">rec[4]</text>
<path d="M2528,64 L2528,832 " stroke="black"/>
<circle cx="2528" cy="64" r="12" stroke="none" fill="black"/>
<circle cx="2528" cy="832" r="12" stroke="black" fill="white"/>
<path d="M2516,832 L2540,832 M2528,820 L2528,844 " stroke="black"/>
<path d="M2592,192 L2592,832 " stroke="black"/>
<circle cx="2592" cy="192" r="12" stroke="none" fill="black"/>
<circle cx="2592" cy="832" r="12" stroke="black" fill="white"/>
<path d="M2580,832 L2604,832 M2592,820 L2592,844 " stroke="black"/>
<path d="M2656,320 L2656,832 " stroke="black"/>
<circle cx="2656" cy="320" r="12" stroke="none" fill="black"/>
<circle cx="2656" cy="832" r="12" stroke="black" fill="white"/>
<path d="M2644,832 L2668,832 M2656,820 L2656,844 " stroke="black"/>
<path d="M2720,448 L2720,832 " stroke="black"/>
<circle cx="2720" cy="448" r="12" stroke="none" fill="black"/>
<circle cx="2720" cy="832" r="12" stroke="black" fill="white"/>
<path d="M2708,832 L2732,832 M2720,820 L2720,844 " stroke="black"/>
<rect x="2768" y="816" width="32" height="32" stroke="black" fill="black"/>
<text dominant-baseline="central" text-anchor="middle" font-family="monospace" font-size="30" x="2784" y="832" fill="white">M</text>
<text dominant-baseline="hanging" text-anchor="middle" font-family="monospace" font-size="10" stroke="red" x="2784" y="852">0</text>
<text text-anchor="middle" font-family="monospace" font-size="8" x="2784" y="812">rec[5]</text>
<rect x="2768" y="48" width="32" height="32" stroke="black" fill="black"/>
<text dominant-baseline="central" text-anchor="middle" font-family="monospace" font-size="30" x="2784" y="64" fill="white">M</text>
<text dominant-baseline="hanging" text-anchor="middle" font-family="monospace" font-size="10" stroke="red" x="2784" y="84">0</text>
<text text-anchor="middle" font-family="monospace" font-size="8" x="2784" y="44">rec[6]</text>
<rect x="2768" y="112" width="32" height="32" stroke="black" fill="black"/>
<text dominant-baseline="central" text-anchor="middle" font-family="monospace" font-size="30" x="2784" y="128" fill="white">M</text>
<text dominant-baseline="hanging" text-anchor="middle" font-family="monospace" font-size="10" stroke="red" x="2784" y="148">0</text>
<text text-anchor="middle" font-family="monospace" font-size="8" x="2784" y="108">rec[7]</text>
<rect x="2768" y="176" width="32" height="32" stroke="black" fill="black"/>
<text dominant-baseline="central" text-anchor="middle" font-family="monospace" font-size="30" x="2784" y="192" fill="white">M</text>
<text dominant-baseline="hanging" text-anchor="middle" font-family="monospace" font-size="10" stroke="red" x="2784" y="212">0</text>
<text text-anchor="middle" font-family="monospace" font-size="8" x="2784" y="172">rec[8]</text>
<rect x="2768" y="240" width="32" height="32" stroke="black" fill="black"/>
<text dominant-baseline="central" text-anchor="middle" font-family="monospace" font-size="30" x="2784" y="256" fill="white">M</text>
<text dominant-baseline="hanging" text-anchor="middle" font-family="monospace" font-size="10" stroke="red" x="2784" y="276">0</text>
<text text-anchor="middle" font-family="monospace" font-size="8" x="2784" y="236">rec[9]</text>
<rect x="2768" y="304" width="32" height="32" stroke="black" fill="black"/>
<text dominant-baseline="central" text-anchor="middle" font-family="monospace" font-size="30" x="2784" y="320" fill="white">M</text>
<text dominant-baseline="hanging" text-anchor="middle" font-family="monospace" font-size="10" stroke="red" x="2784" y="340">0</text>
<text text-anchor="middle" font-family="monospace" font-size="8" x="2784" y="300">rec[10]</text>
<rect x="2768" y="368" width="32" height="32" stroke="black" fill="black"/>
<text dominant-baseline="central" text-anchor="middle" font-family="monospace" font-size="30" x="2784" y="384" fill="white">M</text>
<text dominant-baseline="hanging" text-anchor="middle" font-family="monospace" font-size="10" stroke="red" x="2784" y="404">0</text>
<text text-anchor="middle" font-family="monospace" font-size="8" x="2784" y="364">rec[11]</text>
<rect x="2768" y="432" width="32" height="32" stroke="black" fill="black"/>
<text dominant-baseline="central" text-anchor="middle" font-family="monospace" font-size="30" x="2784" y="448" fill="white">M</text>
<text dominant-baseline="hanging" text-anchor="middle" font-family="monospace" font-size="10" stroke="red" x="2784" y="468">0</text>
<text text-anchor="middle" font-family="monospace" font-size="8" x="2784" y="428">rec[12]</text>
</svg>