<svg xmlns="http://www.w3.org/2000/svg" viewBox="0 0 7136 1696" version="1.1">
<g id="qubit_lines">
<path id="qubit_line:0" d="M64,64 L7104,64 " stroke="black"/>
<text dominant-baseline="central" text-anchor="end" font-family="monospace" font-size="12" x="64" y="64">q0</text>
<path id="qubit_line:1" d="M64,128 L7104,128 " stroke="black"/>
<text dominant-baseline="central" text-anchor="end" font-family="monospace" font-size="12" x="64" y="128">q1</text>
<path id="qubit_line:2" d="M64,192 L7104,192 " stroke="black"/>
<text dominant-baseline="central" text-anchor="end" font-family="monospace" font-size="12" x="64" y="192">q2</text>
<path id="qubit_line:3" d="M64,256 L7104,256 " stroke="black"/>
<text dominant-baseline="central" text-anchor="end" font-family="monospace" font-size="12" x="64" y="256">q3</text>
<path id="qubit_line:4" d="M64,320 L7104,320 " stroke="black"/>
<text dominant-baseline="central" text-anchor="end" font-family="monospace" font-size="12" x="64" y="320">q4</text>
<path id="qubit_line:5" d="M64,384 L7104,384 " stroke="black"/>
<text dominant-baseline="central" text-anchor="end" font-family="monospace" font-size="12" x="64" y="384">q5</text>
<path id="qubit_line:6" d="M64,448 L7104,448 " stroke="black"/>
<text dominant-baseline="central" text-anchor="end" font-family="monospace" font-size="12" x="64" y="448">q6</text>
<path id="qubit_line:7" d="M64,512 L7104,512 " stroke="black"/>
<text dominant-baseline="central" text-anchor="end" font-family="monospace" font-size="12" x="64" y="512">q7</text>
<path id="qubit_line:8" d="M64,576 L7104,576 " stroke="black"/>
<text dominant-baseline="central" text-anchor="end" font-family="monospace" font-size="12" x="64" y="576">q8</text>
<path id="qubit_line:9" d="M64,640 L7104,640 " stroke="black"/>
<text dominant-baseline="central" text-anchor="end" font-family="monospace" font-size="12" x="64" y="640">q9</text>
<path id="qubit_line:10" d="M64,704 L7104,704 " stroke="black"/>
<text dominant-baseline="central" text-anchor="end" font-family="monospace" font-size="12" x="64" y="704">q10</text>
<path id="qubit_line:11" d="M64,768 L7104,768 " stroke="black"/>
<text dominant-baseline="central" text-anchor="end" font-family="monospace" font-size="12" x="64" y="768">q11</text>
<path id="qubit_line:12" d="M64,832 L7104,832 " stroke="black"/>
<text dominant-baseline="central" text-anchor="end" font-family="monospace" font-size="12" x="64" y="832">q12</text>
<path id="qubit_line:13" d="M64,896 L7104,896 " stroke="black"/>
<text dominant-baseline="central" text-anchor="end" font-family="monospace" font-size="12" x="64" y="896">q13</text>
<path id="qubit_line:14" d="M64,960 L7104,960 " stroke="black"/>
<text dominant-baseline="central" text-anchor="end" font-family="monospace" font-size="12" x="64" y="960">q14</text>
<path id="qubit_line:15" d="M64,1024 L7104,1024 " stroke="black"/>
<text dominant-baseline="central" text-anchor="end" font-family="monospace" font-size="12" x="64" y="1024">q15</text>
<path id="qubit_line:16" d="M64,1088 L7104,1088 " stroke="black"/>
<text dominant-baseline="central" text-anchor="end" font-family="monospace" font-size="12" x="64" y="1088">q16</text>
<path id="qubit_line:17" d="M64,1152 L7104,1152 " stroke="black"/>
<text dominant-baseline="central" text-anchor="end" font-family="monospace" font-size="12" x="64" y="1152">q17</text>
<path id="qubit_line:18" d="M64,1216 L7104,1216 " stroke="black"/>
<text dominant-baseline="central" text-anchor="end" font-family="monospace" font-size="12" x="64" y="1216">q18</text>
<path id="qubit_line:19" d="M64,1280 L7104,1280 " stroke="black"/>
<text dominant-baseline="central" text-anchor="end" font-family="monospace" font-size="12" x="64" y="1280">q19</text>
<path id="qubit_line:20" d="M64,1344 L7104,1344 " stroke="black"/>
<text dominant-baseline="central" text-anchor="end" font-family="monospace" font-size="12" x="64" y="1344">q20</text>
<path id="qubit_line:21" d="M64,1408 L7104,1408 " stroke="black"/>
<text dominant-baseline="central" text-anchor="end" font-family="monospace" font-size="12" x="64" y="1408">q21</text>
<path id="qubit_line:22" d="M64,1472 L7104,1472 " stroke="black"/>
<text dominant-baseline="central" text-anchor="end" font-family="monospace" font-size="12" x="64" y="1472">q22</text>
<path id="qubit_line:23" d="M64,1536 L7104,1536 " stroke="black"/>
<text dominant-baseline="central" text-anchor="end" font-family="monospace" font-size="12" x="64" y="1536">q23</text>
<path id="qubit_line:24" d="M64,1600 L7104,1600 " stroke="black"/>
<text dominant-baseline="central" text-anchor="end" font-family="monospace" font-size="12" x="64" y="1600">q24</text>
</g>
<rect x="80" y="48" width="32" height="32" stroke="black" fill="white"/>
<text dominant-baseline="central" text-anchor="middle" font-family="monospace" font-size="30" x="96" y="64">H</text>
<rect x="80" y="112" width="32" height="32" stroke="black" fill="white"/>
<text dominant-baseline="central" text-anchor="middle" font-family="monospace" font-size="30" x="96" y="128">H</text>
<rect x="80" y="176" width="32" height="32" stroke="black" fill="white"/>
<text dominant-baseline="central" text-anchor="middle" font-family="monospace" font-size="30" x="96" y="192">H</text>
<path d="M160,64 L160,256 " stroke="black"/>
<circle cx="160" cy="64" r="12" stroke="none" fill="black"/>
<circle cx="160" cy="256" r="12" stroke="black" fill="white"/>
<path d="M148,256 L172,256 M160,244 L160,268 " stroke="black"/>
<path d="M224,128 L224,256 " stroke="black"/>
<circle cx="224" cy="128" r="12" stroke="none" fill="black"/>
<circle cx="224" cy="256" r="12" stroke="black" fill="white"/>
<path d="M212,256 L236,256 M224,244 L224,268 " stroke="black"/>
<path d="M288,64 L288,320 " stroke="black"/>
<circle cx="288" cy="64" r="12" stroke="none" fill="black"/>
<circle cx="288" cy="320" r="12" stroke="black" fill="white"/>
<path d="M276,320 L300,320 M288,308 L288,332 " stroke="black"/>
<path d="M352,192 L352,320 " stroke="black"/>
<circle cx="352" cy="192" r="12" stroke="none" fill="black"/>
<circle cx="352" cy="320" r="12" stroke="black" fill="white"/>
<path d="M340,320 L364,320 M352,308 L352,332 " stroke="black"/>
<path d="M416,128 L416,384 " stroke="black"/>
<circle cx="416" cy="128" r="12" stroke="none" fill="black"/>
<circle cx="416" cy="384" r="12" stroke="black" fill="white"/>
<path d="M404,384 L428,384 M416,372 L416,396 " stroke="black"/>
<path d="M480,192 L480,384 " stroke="black"/>
<circle cx="480" cy="192" r="12" stroke="none" fill="black"/>
<circle cx="480" cy="384" r="12" stroke="black" fill="white"/>
<path d="M468,384 L492,384 M480,372 L480,396 " stroke="black"/>
<path d="M544,64 L544,448 " stroke="black"/>
<circle cx="544" cy="64" r="12" stroke="none" fill="black"/>
<circle cx="544" cy="448" r="12" stroke="black" fill="white"/>
<path d="M532,448 L556,448 M544,436 L544,460 " stroke="black"/>
<path d="M608,128 L608,448 " stroke="black"/>
<circle cx="608" cy="128" r="12" stroke="none" fill="black"/>
<circle cx="608" cy="448" r="12" stroke="black" fill="white"/>
<path d="M596,448 L620,448 M608,436 L608,460 " stroke="black"/>
<path d="M672,192 L672,448 " stroke="black"/>
<circle cx="672" cy="192" r="12" stroke="none" fill="black"/>
<circle cx="672" cy="448" r="12" stroke="black" fill="white"/>
<path d="M660,448 L684,448 M672,436 L672,460 " stroke="black"/>
<rect x="656" y="48" width="32" height="32" stroke="black" fill="pink"/>
<text dominant-baseline="central" text-anchor="middle" font-family="monospace" font-size="12" x="672" y="64">DEP<tspan baseline-shift="sub" font-size="10">1</tspan></text>
<text dominant-baseline="hanging" text-anchor="middle" font-family="monospace" font-size="10" stroke="red" x="672" y="84">0.01</text>
<rect x="656" y="112" width="32" height="32" stroke="black" fill="pink"/>
<text dominant-baseline="central" text-anchor="middle" font-family="monospace" font-size="12" x="672" y="128">DEP<tspan baseline-shift="sub" font-size="10">1</tspan></text>
<text dominant-baseline="hanging" text-anchor="middle" font-family="monospace" font-size="10" stroke="red" x="672" y="148">0.01</text>
<rect x="720" y="176" width="32" height="32" stroke="black" fill="pink"/>
<text dominant-baseline="central" text-anchor="middle" font-family="monospace" font-size="12" x="736" y="192">DEP<tspan baseline-shift="sub" font-size="10">1</tspan></text>
<text dominant-baseline="hanging" text-anchor="middle" font-family="monospace" font-size="10" stroke="red" x="736" y="212">0.01</text>
<rect x="720" y="240" width="32" height="32" stroke="black" fill="pink"/>
<text dominant-baseline="central" text-anchor="middle" font-family="monospace" font-size="12" x="736" y="256">DEP<tspan baseline-shift="sub" font-size="10">1</tspan></text>
<text dominant-baseline="hanging" text-anchor="middle" font-family="monospace" font-size="10" stroke="red" x="736" y="276">0.01</text>
<rect x="720" y="304" width="32" height="32" stroke="black" fill="pink"/>
<text dominant-baseline="central" text-anchor="middle" font-family="monospace" font-size="12" x="736" y="320">DEP<tspan baseline-shift="sub" font-size="10">1</tspan></text>
<text dominant-baseline="hanging" text-anchor="middle" font-family="monospace" font-size="10" stroke="red" x="736" y="340">0.01</text>
<rect x="720" y="368" width="32" height="32" stroke="black" fill="pink"/>
<text dominant-baseline="central" text-anchor="middle" font-family="monospace" font-size="12" x="736" y="384">DEP<tspan baseline-shift="sub" font-size="10">1</tspan></text>
<text dominant-baseline="hanging" text-anchor="middle" font-family="monospace" font-size="10" stroke="red" x="736" y="404">0.01</text>
<rect x="720" y="432" width="32" height="32" stroke="black" fill="pink"/>
<text dominant-baseline="central" text-anchor="middle" font-family="monospace" font-size="12" x="736" y="448">DEP<tspan baseline-shift="sub" font-size="10">1</tspan></text>
<text dominant-baseline="hanging" text-anchor="middle" font-family="monospace" font-size="10" stroke="red" x="736" y="468">0.01</text>
<rect x="720" y="496" width="32" height="32" stroke="black" fill="white"/>
<text dominant-baseline="central" text-anchor="middle" font-family="monospace" font-size="30" x="736" y="512">H</text>
<path d="M800,64 L800,512 " stroke="black"/>
<circle cx="800" cy="512" r="12" stroke="none" fill="black"/>
<circle cx="800" cy="64" r="12" stroke="black" fill="white"/>
<path d="M788,64 L812,64 M800,52 L800,76 " stroke="black"/>
<path d="M864,128 L864,512 " stroke="black"/>
<circle cx="864" cy="512" r="12" stroke="none" fill="black"/>
<circle cx="864" cy="128" r="12" stroke="black" fill="white"/>
<path d="M852,128 L876,128 M864,116 L864,140 " stroke="black"/>
<path d="M928,192 L928,512 " stroke="black"/>
<circle cx="928" cy="512" r="12" stroke="none" fill="black"/>
<circle cx="928" cy="192" r="12" stroke="black" fill="white"/>
<path d="M916,192 L940,192 M928,180 L928,204 " stroke="black"/>
<path d="M992,256 L992,512 " stroke="black"/>
<circle cx="992" cy="512" r="12" stroke="none" fill="black"/>
<circle cx="992" cy="256" r="12" stroke="black" fill="white"/>
<path d="M980,256 L1004,256 M992,244 L992,268 " stroke="black"/>
<rect x="1040" y="496" width="32" height="32" stroke="black" fill="white"/>
<text dominant-baseline="central" text-anchor="middle" font-family="monospace" font-size="30" x="1056" y="512">H</text>
<rect x="1104" y="496" width="32" height="32" stroke="black" fill="black"/>
<text dominant-baseline="central" text-anchor="middle" font-family="monospace" font-size="30" x="1120" y="512" fill="white">M</text>
<text dominant-baseline="hanging" text-anchor="middle" font-family="monospace" font-size="10" stroke="red" x="1120" y="532">0</text>
<text text-anchor="middle" font-family="monospace" font-size="8" x="1120" y="492">rec[0]</text>
<rect x="1104" y="560" width="32" height="32" stroke="black" fill="white"/>
<text dominant-baseline="central" text-anchor="middle" font-family="monospace" font-size="30" x="1120" y="576">H</text>
<path d="M1184,64 L1184,576 " stroke="black"/>
<circle cx="1184" cy="576" r="12" stroke="none" fill="black"/>
<circle cx="1184" cy="64" r="12" stroke="black" fill="white"/>
<path d="M1172,64 L1196,64 M1184,52 L1184,76 " stroke="black"/>
<path d="M1248,128 L1248,576 " stroke="black"/>
<circle cx="1248" cy="576" r="12" stroke="none" fill="black"/>
<circle cx="1248" cy="128" r="12" stroke="black" fill="white"/>
<path d="M1236,128 L1260,128 M1248,116 L1248,140 " stroke="black"/>
<path d="M1312,320 L1312,576 " stroke="black"/>
<circle cx="1312" cy="576" r="12" stroke="none" fill="black"/>
<circle cx="1312" cy="320" r="12" stroke="black" fill="white"/>
<path d="M1300,320 L1324,320 M1312,308 L1312,332 " stroke="black"/>
<path d="M1376,384 L1376,576 " stroke="black"/>
<circle cx="1376" cy="576" r="12" stroke="none" fill="black"/>
<circle cx="1376" cy="384" r="12" stroke="black" fill="white"/>
<path d="M1364,384 L1388,384 M1376,372 L1376,396 " stroke="black"/>
<rect x="1424" y="560" width="32" height="32" stroke="black" fill="white"/>
<text dominant-baseline="central" text-anchor="middle" font-family="monospace" font-size="30" x="1440" y="576">H</text>
<rect x="1488" y="560" width="32" height="32" stroke="black" fill="black"/>
<text dominant-baseline="central" text-anchor="middle" font-family="monospace" font-size="30" x="1504" y="576" fill="white">M</text>
<text dominant-baseline="hanging" text-anchor="middle" font-family="monospace" font-size="10" stroke="red" x="1504" y="596">0</text>
<text text-anchor="middle" font-family="monospace" font-size="8" x="1504" y="556">rec[1]</text>
<rect x="1488" y="624" width="32" height="32" stroke="black" fill="white"/>
<text dominant-baseline="central" text-anchor="middle" font-family="monospace" font-size="30" x="1504" y="640">H</text>
<path d="M1568,64 L1568,640 " stroke="black"/>
<circle cx="1568" cy="640" r="12" stroke="none" fill="black"/>
<circle cx="1568" cy="64" r="12" stroke="black" fill="white"/>
<path d="M1556,64 L1580,64 M1568,52 L1568,76 " stroke="black"/>
<path d="M1632,192 L1632,640 " stroke="black"/>
<circle cx="1632" cy="640" r="12" stroke="none" fill="black"/>
<circle cx="1632" cy="192" r="12" stroke="black" fill="white"/>
<path d="M1620,192 L1644,192 M1632,180 L1632,204 " stroke="black"/>
<path d="M1696,320 L1696,640 " stroke="black"/>
<circle cx="1696" cy="640" r="12" stroke="none" fill="black"/>
<circle cx="1696" cy="320" r="12" stroke="black" fill="white"/>
<path d="M1684,320 L1708,320 M1696,308 L1696,332 " stroke="black"/>
<path d="M1760,448 L1760,640 " stroke="black"/>
<circle cx="1760" cy="640" r="12" stroke="none" fill="black"/>
<circle cx="1760" cy="448" r="12" stroke="black" fill="white"/>
<path d="M1748,448 L1772,448 M1760,436 L1760,460 " stroke="black"/>
<rect x="1808" y="624" width="32" height="32" stroke="black" fill="white"/>
<text dominant-baseline="central" text-anchor="middle" font-family="monospace" font-size="30" x="1824" y="640">H</text>
<rect x="1872" y="624" width="32" height="32" stroke="black" fill="black"/>
<text dominant-baseline="central" text-anchor="middle" font-family="monospace" font-size="30" x="1888" y="640" fill="white">M</text>
<text dominant-baseline="hanging" text-anchor="middle" font-family="monospace" font-size="10" stroke="red" x="1888" y="660">0</text>
<text text-anchor="middle" font-family="monospace" font-size="8" x="1888" y="620">rec[2]</text>
<path d="M1952,64 L1952,704 " stroke="black"/>
<circle cx="1952" cy="64" r="12" stroke="none" fill="black"/>
<circle cx="1952" cy="704" r="12" stroke="black" fill="white"/>
<path d="M1940,704 L1964,704 M1952,692 L1952,716 " stroke="black"/>
<path d="M2016,128 L2016,704 " stroke="black"/>
<circle cx="2016" cy="128" r="12" stroke="none" fill="black"/>
<circle cx="2016" cy="704" r="12" stroke="black" fill="white"/>
<path d="M2004,704 L2028,704 M2016,692 L2016,716 " stroke="black"/>
<path d="M2080,192 L2080,704 " stroke="black"/>
<circle cx="2080" cy="192" r="12" stroke="none" fill="black"/>
<circle cx="2080" cy="704" r="12" stroke="black" fill="white"/>
<path d="M2068,704 L2092,704 M2080,692 L2080,716 " stroke="black"/>
<path d="M2144,256 L2144,704 " stroke="black"/>
<circle cx="2144" cy="256" r="12" stroke="none" fill="black"/>
<circle cx="2144" cy="704" r="12" stroke="black" fill="white"/>
<path d="M2132,704 L2156,704 M2144,692 L2144,716 " stroke="black"/>
<rect x="2192" y="688" width="32" height="32" stroke="black" fill="black"/>
<text dominant-baseline="central" text-anchor="middle" font-family="monospace" font-size="30" x="2208" y="704" fill="white">M</text>
<text dominant-baseline="hanging" text-anchor="middle" font-family="monospace" font-size="10" stroke="red" x="2208" y="724">0</text>
<text text-anchor="middle" font-family="monospace" font-size="8" x="2208" y="684">rec[3]</text>
<path d="M2272,64 L2272,768 " stroke="black"/>
<circle cx="2272" cy="64" r="12" stroke="none" fill="black"/>
<circle cx="2272" cy="768" r="12" stroke="black" fill="white"/>
<path d="M2260,768 L2284,768 M2272,756 L2272,780 " stroke="black"/>
<path d="M2336,128 L2336,768 " stroke="black"/>
<circle cx="2336" cy="128" r="12" stroke="none" fill="black"/>
<circle cx="2336" cy="768" r="12" stroke="black" fill="white"/>
<path d="M2324,768 L2348,768 M2336,756 L2336,780 " stroke="black"/>
<path d="M2400,320 L2400,768 " stroke="black"/>
<circle cx="2400" cy="320" r="12" stroke="none" fill="black"/>
<circle cx="2400" cy="768" r="12" stroke="black" fill="white"/>
<path d="M2388,768 L2412,768 M2400,756 L2400,780 " stroke="black"/>
<path d="M2464,384 L2464,768 " stroke="black"/>
<circle cx="2464" cy="384" r="12" stroke="none" fill="black"/>
<circle cx="2464" cy="768" r="12" stroke="black" fill="white"/>
<path d="M2452,768 L2476,768 M2464,756 L2464,780 " stroke="black"/>
<rect x="2512" y="752" width="32" height="32" stroke="black" fill="black"/>
<text dominant-baseline="central" text-anchor="middle" font-family="monospace" font-size="30" x="2528" y="768" fill="white">M</text>
<text dominant-baseline="hanging" text-anchor="middle" font-family="monospace" font-size="10" stroke="red" x="2528" y="788">0</text>
<text text-anchor="middle" font-family="monospace" font-size="8" x="2528" y="748">rec[4]</text>
<path d="M2592,64 L2592,832 " stroke="black"/>
<circle cx="2592" cy="64" r="12" stroke="none" fill="black"/>
<circle cx="2592" cy="832" r="12" stroke="black" fill="white"/>
<path d="M2580,832 L2604,832 M2592,820 L2592,844 " stroke="black"/>
<path d="M2656,192 L2656,832 " stroke="black"/>
<circle cx="2656" cy="192" r="12" stroke="none" fill="black"/>
<circle cx="2656" cy="832" r="12" stroke="black" fill="white"/>
<path d="M2644,832 L2668,832 M2656,820 L2656,844 " stroke="black"/>
<path d="M2720,320 L2720,832 " stroke="black"/>
<circle cx="2720" cy="320" r="12" stroke="none" fill="black"/>
<circle cx="2720" cy="832" r="12" stroke="black" fill="white"/>
<path d="M2708,832 L2732,832 M2720,820 L2720,844 " stroke="black"/>
<path d="M2784,448 L2784,832 " stroke="black"/>
<circle cx="2784" cy="448" r="12" stroke="none" fill="black"/>
<circle cx="2784" cy="832" r="12" stroke="black" fill="white"/>
<path d="M2772,832 L2796,832 M2784,820 L2784,844 " stroke="black"/>
<rect x="2832" y="816" width="32" height="32" stroke="black" fill="black"/>
<text dominant-baseline="central" text-anchor="middle" font-family="monospace" font-size="30" x="2848" y="832" fill="white">M</text>
<text dominant-baseline="hanging" text-anchor="middle" font-family="monospace" font-size="10" stroke="red" x="2848" y="852">0</text>
<text text-anchor="middle" font-family="monospace" font-size="8" x="2848" y="812">rec[5]</text>
<rect x="2832" y="48" width="32" height="32" stroke="black" fill="pink"/>
<text dominant-baseline="central" text-anchor="middle" font-family="monospace" font-size="12" x="2848" y="64">DEP<tspan baseline-shift="sub" font-size="10">1</tspan></text>
<text dominant-baseline="hanging" text-anchor="middle" font-family="monospace" font-size="10" stroke="red" x="2848" y="84">0.01</text>
<rect x="2832" y="112" width="32" height="32" stroke="black" fill="pink"/>
<text dominant-baseline="central" text-anchor="middle" font-family="monospace" font-size="12" x="2848" y="128">DEP<tspan baseline-shift="sub" font-size="10">1</tspan></text>
<text dominant-baseline="hanging" text-anchor="middle" font-family="monospace" font-size="10" stroke="red" x="2848" y="148">0.01</text>
<rect x="2832" y="176" width="32" height="32" stroke="black" fill="pink"/>
<text dominant-baseline="central" text-anchor="middle" font-family="monospace" font-size="12" x="2848" y="192">DEP<tspan baseline-shift="sub" font-size="10">1</tspan></text>
<text dominant-baseline="hanging" text-anchor="middle" font-family="monospace" font-size="10" stroke="red" x="2848" y="212">0.01</text>
<rect x="2832" y="240" width="32" height="32" stroke="black" fill="pink"/>
<text dominant-baseline="central" text-anchor="middle" font-family="monospace" font-size="12" x="2848" y="256">DEP<tspan baseline-shift="sub" font-size="10">1</tspan></text>
<text dominant-baseline="hanging" text-anchor="middle" font-family="monospace" font-size="10" stroke="red" x="2848" y="276">0.01</text>
<rect x="2832" y="304" width="32" height="32" stroke="black" fill="pink"/>
<text dominant-baseline="central" text-anchor="middle" font-family="monospace" font-size="12" x="2848" y="320">DEP<tspan baseline-shift="sub" font-size="10">1</tspan></text>
<text dominant-baseline="hanging" text-anchor="middle" font-family="monospace" font-size="10" stroke="red" x="2848" y="340">0.01</text>
<rect x="2832" y="368" width="32" height="32" stroke="black" fill="pink"/>
<text dominant-baseline="central" text-anchor="middle" font-family="monospace" font-size="12" x="2848" y="384">DEP<tspan baseline-shift="sub" font-size="10">1</tspan></text>
<text dominant-baseline="hanging" text-anchor="middle" font-family="monospace" font-size="10" stroke="red" x="2848" y="404">0.01</text>
<rect x="2832" y="432" width="32" height="32" stroke="black" fill="pink"/>
<text dominant-baseline="central" text-anchor="middle" font-family="monospace" font-size="12" x="2848" y="448">DEP<tspan baseline-shift="sub" font-size="10">1</tspan></text>
<text dominant-baseline="hanging" text-anchor="middle" font-family="monospace" font-size="10" stroke="red" x="2848" y="468">0.01</text>
<rect x="2832" y="880" width="32" height="32" stroke="black" fill="white"/>
<text dominant-baseline="central" text-anchor="middle" font-family="monospace" font-size="30" x="2848" y="896">H</text>
<path d="M2912,64 L2912,896 " stroke="black"/>
<circle cx="2912" cy="896" r="12" stroke="none" fill="black"/>
<circle cx="2912" cy="64" r="12" stroke="black" fill="white"/>
<path d="M2900,64 L2924,64 M2912,52 L2912,76 " stroke="black"/>
<path d="M2976,128 L2976,896 " stroke="black"/>
<circle cx="2976" cy="896" r="12" stroke="none" fill="black"/>
<circle cx="2976" cy="128" r="12" stroke="black" fill="white"/>
<path d="M2964,128 L2988,128 M2976,116 L2976,140 " stroke="black"/>
<path d="M3040,192 L3040,896 " stroke="black"/>
<circle cx="3040" cy="896" r="12" stroke="none" fill="black"/>
<circle cx="3040" cy="192" r="12" stroke="black" fill="white"/>
<path d="M3028,192 L3052,192 M3040,180 L3040,204 " stroke="black"/>
<path d="M3104,256 L3104,896 " stroke="black"/>
<circle cx="3104" cy="896" r="12" stroke="none" fill="black"/>
<circle cx="3104" cy="256" r="12" stroke="black" fill="white"/>
<path d="M3092,256 L3116,256 M3104,244 L3104,268 " stroke="black"/>
<rect x="3152" y="880" width="32" height="32" stroke="black" fill="white"/>
<text dominant-baseline="central" text-anchor="middle" font-family="monospace" font-size="30" x="3168" y="896">H</text>
<rect x="3216" y="880" width="32" height="32" stroke="black" fill="black"/>
<text dominant-baseline="central" text-anchor="middle" font-family="monospace" font-size="30" x="3232" y="896" fill="white">M</text>
<text dominant-baseline="hanging" text-anchor="middle" font-family="monospace" font-size="10" stroke="red" x="3232" y="916">0</text>
<text text-anchor="middle" font-family="monospace" font-size="8" x="3232" y="876">rec[6]</text>
<rect x="3216" y="944" width="32" height="32" stroke="black" fill="white"/>
<text dominant-baseline="central" text-anchor="middle" font-family="monospace" font-size="30" x="3232" y="960">H</text>
<path d="M3296,64 L3296,960 " stroke="black"/>
<circle cx="3296" cy="960" r="12" stroke="none" fill="black"/>
<circle cx="3296" cy="64" r="12" stroke="black" fill="white"/>
<path d="M3284,64 L3308,64 M3296,52 L3296,76 " stroke="black"/>
<path d="M3360,128 L3360,960 " stroke="black"/>
<circle cx="3360" cy="960" r="12" stroke="none" fill="black"/>
<circle cx="3360" cy="128" r="12" stroke="black" fill="white"/>
<path d="M3348,128 L3372,128 M3360,116 L3360,140 " stroke="black"/>
<path d="M3424,320 L3424,960 " stroke="black"/>
<circle cx="3424" cy="960" r="12" stroke="none" fill="black"/>
<circle cx="3424" cy="320" r="12" stroke="black" fill="white"/>
<path d="M3412,320 L3436,320 M3424,308 L3424,332 " stroke="black"/>
<path d="M3488,384 L3488,960 " stroke="black"/>
<circle cx="3488" cy="960" r="12" stroke="none" fill="black"/>
<circle cx="3488" cy="384" r="12" stroke="black" fill="white"/>
<path d="M3476,384 L3500,384 M3488,372 L3488,396 " stroke="black"/>
<rect x="3536" y="944" width="32" height="32" stroke="black" fill="white"/>
<text dominant-baseline="central" text-anchor="middle" font-family="monospace" font-size="30" x="3552" y="960">H</text>
<rect x="3600" y="944" width="32" height="32" stroke="black" fill="black"/>
<text dominant-baseline="central" text-anchor="middle" font-family="monospace" font-size="30" x="3616" y="960" fill="white">M</text>
<text dominant-baseline="hanging" text-anchor="middle" font-family="monospace" font-size="10" stroke="red" x="3616" y="980">0</text>
<text text-anchor="middle" font-family="monospace" font-size="8" x="3616" y="940">rec[7]</text>
<rect x="3600" y="1008" width="32" height="32" stroke="black" fill="white"/>
<text dominant-baseline="central" text-anchor="middle" font-family="monospace" font-size="30" x="3616" y="1024">H</text>
<path d="M3680,64 L3680,1024 " stroke="black"/>
<circle cx="3680" cy="1024" r="12" stroke="none" fill="black"/>
<circle cx="3680" cy="64" r="12" stroke="black" fill="white"/>
<path d="M3668,64 L3692,64 M3680,52 L3680,76 " stroke="black"/>
<path d="M3744,192 L3744,1024 " stroke="black"/>
<circle cx="3744" cy="1024" r="12" stroke="none" fill="black"/>
<circle cx="3744" cy="192" r="12" stroke="black" fill="white"/>
<path d="M3732,192 L3756,192 M3744,180 L3744,204 " stroke="black"/>
<path d="M3808,320 L3808,1024 " stroke="black"/>
<circle cx="3808" cy="1024" r="12" stroke="none" fill="black"/>
<circle cx="3808" cy="320" r="12" stroke="black" fill="white"/>
<path d="M3796,320 L3820,320 M3808,308 L3808,332 " stroke="black"/>
<path d="M3872,448 L3872,1024 " stroke="black"/>
<circle cx="3872" cy="1024" r="12" stroke="none" fill="black"/>
<circle cx="3872" cy="448" r="12" stroke="black" fill="white"/>
<path d="M3860,448 L3884,448 M3872,436 L3872,460 " stroke="black"/>
<rect x="3920" y="1008" width="32" height="32" stroke="black" fill="white"/>
<text dominant-baseline="central" text-anchor="middle" font-family="monospace" font-size="30" x="3936" y="1024">H</text>
<rect x="3984" y="1008" width="32" height="32" stroke="black" fill="black"/>
<text dominant-baseline="central" text-anchor="middle" font-family="monospace" font-size="30" x="4000" y="1024" fill="white">M</text>
<text dominant-baseline="hanging" text-anchor="middle" font-family="monospace" font-size="10" stroke="red" x="4000" y="1044">0</text>
<text text-anchor="middle" font-family="monospace" font-size="8" x="4000" y="1004">rec[8]</text>
<path d="M4064,64 L4064,1088 " stroke="black"/>
<circle cx="4064" cy="64" r="12" stroke="none" fill="black"/>
<circle cx="4064" cy="1088" r="12" stroke="black" fill="white"/>
<path d="M4052,1088 L4076,1088 M4064,1076 L4064,1100 " stroke="black"/>
<path d="M4128,128 L4128,1088 " stroke="black"/>
<circle cx="4128" cy="128" r="12" stroke="none" fill="black"/>
<circle cx="4128" cy="1088" r="12" stroke="black" fill="white"/>
<path d="M4116,1088 L4140,1088 M4128,1076 L4128,1100 " stroke="black"/>
<path d="M4192,192 L4192,1088 " stroke="black"/>
<circle cx="4192" cy="192" r="12" stroke="none" fill="black"/>
<circle cx="4192" cy="1088" r="12" stroke="black" fill="white"/>
<path d="M4180,1088 L4204,1088 M4192,1076 L4192,1100 " stroke="black"/>
<path d="M4256,256 L4256,1088 " stroke="black"/>
<circle cx="4256" cy="256" r="12" stroke="none" fill="black"/>
<circle cx="4256" cy="1088" r="12" stroke="black" fill="white"/>
<path d="M4244,1088 L4268,1088 M4256,1076 L4256,1100 " stroke="black"/>
<rect x="4304" y="1072" width="32" height="32" stroke="black" fill="black"/>
<text dominant-baseline="central" text-anchor="middle" font-family="monospace" font-size="30" x="4320" y="1088" fill="white">M</text>
<text dominant-baseline="hanging" text-anchor="middle" font-family="monospace" font-size="10" stroke="red" x="4320" y="1108">0</text>
<text text-anchor="middle" font-family="monospace" font-size="8" x="4320" y="1068">rec[9]</text>
<path d="M4384,64 L4384,1152 " stroke="black"/>
<circle cx="4384" cy="64" r="12" stroke="none" fill="black"/>
<circle cx="4384" cy="1152" r="12" stroke="black" fill="white"/>
<path d="M4372,1152 L4396,1152 M4384,1140 L4384,1164 " stroke="black"/>
<path d="M4448,128 L4448,1152 " stroke="black"/>
<circle cx="4448" cy="128" r="12" stroke="none" fill="black"/>
<circle cx="4448" cy="1152" r="12" stroke="black" fill="white"/>
<path d="M4436,1152 L4460,1152 M4448,1140 L4448,1164 " stroke="black"/>
<path d="M4512,320 L4512,1152 " stroke="black"/>
<circle cx="4512" cy="320" r="12" stroke="none" fill="black"/>
<circle cx="4512" cy="1152" r="12" stroke="black" fill="white"/>
<path d="M4500,1152 L4524,1152 M4512,1140 L4512,1164 " stroke="black"/>
<path d="M4576,384 L4576,1152 " stroke="black"/>
<circle cx="4576" cy="384" r="12" stroke="none" fill="black"/>
<circle cx="4576" cy="1152" r="12" stroke="black" fill="white"/>
<path d="M4564,1152 L4588,1152 M4576,1140 L4576,1164 " stroke="black"/>
<rect x="4624" y="1136" width="32" height="32" stroke="black" fill="black"/>
<text dominant-baseline="central" text-anchor="middle" font-family="monospace" font-size="30" x="4640" y="1152" fill="white">M</text>
<text dominant-baseline="hanging" text-anchor="middle" font-family="monospace" font-size="10" stroke="red" x="4640" y="1172">0</text>
<text text-anchor="middle" font-family="monospace" font-size="8" x="4640" y="1132">rec[10]</text>
<path d="M4704,64 L4704,1216 " stroke="black"/>
<circle cx="4704" cy="64" r="12" stroke="none" fill="black"/>
<circle cx="4704" cy="1216" r="12" stroke="black" fill="white"/>
<path d="M4692,1216 L4716,1216 M4704,1204 L4704,1228 " stroke="black"/>
<path d="M4768,192 L4768,1216 " stroke="black"/>
<circle cx="4768" cy="192" r="12" stroke="none" fill="black"/>
<circle cx="4768" cy="1216" r="12" stroke="black" fill="white"/>
<path d="M4756,1216 L4780,1216 M4768,1204 L4768,1228 " stroke="black"/>
<path d="M4832,320 L4832,1216 " stroke="black"/>
<circle cx="4832" cy="320" r="12" stroke="none" fill="black"/>
<circle cx="4832" cy="1216" r="12" stroke="black" fill="white"/>
<path d="M4820,1216 L4844,1216 M4832,1204 L4832,1228 " stroke="black"/>
<path d="M4896,448 L4896,1216 " stroke="black"/>
<circle cx="4896" cy="448" r="12" stroke="none" fill="black"/>
<circle cx="4896" cy="1216" r="12" stroke="black" fill="white"/>
<path d="M4884,1216 L4908,1216 M4896,1204 L4896,1228 " stroke="black"/>
<rect x="4944" y="1200" width="32" height="32" stroke="black" fill="black"/>
<text dominant-baseline="central" text-anchor="middle" font-family="monospace" font-size="30" x="4960" y="1216" fill="white">M</text>
<text dominant-baseline="hanging" text-anchor="middle" font-family="monospace" font-size="10" stroke="red" x="4960" y="1236">0</text>
<text text-anchor="middle" font-family="monospace" font-size="8" x="4960" y="1196">rec[11]</text>
<rect x="4944" y="48" width="32" height="32" stroke="black" fill="pink"/>
<text dominant-baseline="central" text-anchor="middle" font-family="monospace" font-size="12" x="4960" y="64">DEP<tspan baseline-shift="sub" font-size="10">1</tspan></text>
<text dominant-baseline="hanging" text-anchor="middle" font-family="monospace" font-size="10" stroke="red" x="4960" y="84">0.01</text>
<rect x="4944" y="112" width="32" height="32" stroke="black" fill="pink"/>
<text dominant-baseline="central" text-anchor="middle" font-family="monospace" font-size="12" x="4960" y="128">DEP<tspan baseline-shift="sub" font-size="10">1</tspan></text>
<text dominant-baseline="hanging" text-anchor="middle" font-family="monospace" font-size="10" stroke="red" x="4960" y="148">0.01</text>
<rect x="4944" y="176" width="32" height="32" stroke="black" fill="pink"/>
<text dominant-baseline="central" text-anchor="middle" font-family="monospace" font-size="12" x="4960" y="192">DEP<tspan baseline-shift="sub" font-size="10">1</tspan></text>
<text dominant-baseline="hanging" text-anchor="middle" font-family="monospace" font-size="10" stroke="red" x="4960" y="212">0.01</text>
<rect x="4944" y="240" width="32" height="32" stroke="black" fill="pink"/>
<text dominant-baseline="central" text-anchor="middle" font-family="monospace" font-size="12" x="4960" y="256">DEP<tspan baseline-shift="sub" font-size="10">1</tspan></text>
<text dominant-baseline="hanging" text-anchor="middle" font-family="monospace" font-size="10" stroke="red" x="4960" y="276">0.01</text>
<rect x="4944" y="304" width="32" height="32" stroke="black" fill="pink"/>
<text dominant-baseline="central" text-anchor="middle" font-family="monospace" font-size="12" x="4960" y="320">DEP<tspan baseline-shift="sub" font-size="10">1</tspan></text>
<text dominant-baseline="hanging" text-anchor="middle" font-family="monospace" font-size="10" stroke="red" x="4960" y="340">0.01</text>
<rect x="4944" y="368" width="32" height="32" stroke="black" fill="pink"/>
<text dominant-baseline="central" text-anchor="middle" font-family="monospace" font-size="12" x="4960" y="384">DEP<tspan baseline-shift="sub" font-size="10">1</tspan></text>
<text dominant-baseline="hanging" text-anchor="middle" font-family="monospace" font-size="10" stroke="red" x="4960" y="404">0.01</text>
<rect x="4944" y="432" width="32" height="32" stroke="black" fill="pink"/>
<text dominant-baseline="central" text-anchor="middle" font-family="monospace" font-size="12" x="4960" y="448">DEP<tspan baseline-shift="sub" font-size="10">1</tspan></text>
<text dominant-baseline="hanging" text-anchor="middle" font-family="monospace" font-size="10" stroke="red" x="4960" y="468">0.01</text>
<rect x="4944" y="1264" width="32" height="32" stroke="black" fill="white"/>
<text dominant-baseline="central" text-anchor="middle" font-family="monospace" font-size="30" x="4960" y="1280">H</text>
<path d="M5024,64 L5024,1280 " stroke="black"/>
<circle cx="5024" cy="1280" r="12" stroke="none" fill="black"/>
<circle cx="5024" cy="64" r="12" stroke="black" fill="white"/>
<path d="M5012,64 L5036,64 M5024,52 L5024,76 " stroke="black"/>
<path d="M5088,128 L5088,1280 " stroke="black"/>
<circle cx="5088" cy="1280" r="12" stroke="none" fill="black"/>
<circle cx="5088" cy="128" r="12" stroke="black" fill="white"/>
<path d="M5076,128 L5100,128 M5088,116 L5088,140 " stroke="black"/>
<path d="M5152,192 L5152,1280 " stroke="black"/>
<circle cx="5152" cy="1280" r="12" stroke="none" fill="black"/>
<circle cx="5152" cy="192" r="12" stroke="black" fill="white"/>
<path d="M5140,192 L5164,192 M5152,180 L5152,204 " stroke="black"/>
<path d="M5216,256 L5216,1280 " stroke="black"/>
<circle cx="5216" cy="1280" r="12" stroke="none" fill="black"/>
<circle cx="5216" cy="256" r="12" stroke="black" fill="white"/>
<path d="M5204,256 L5228,256 M5216,244 L5216,268 " stroke="black"/>
<rect x="5264" y="1264" width="32" height="32" stroke="black" fill="white"/>
<text dominant-baseline="central" text-anchor="middle" font-family="monospace" font-size="30" x="5280" y="1280">H</text>
<rect x="5328" y="1264" width="32" height="32" stroke="black" fill="black"/>
<text dominant-baseline="central" text-anchor="middle" font-family="monospace" font-size="30" x="5344" y="1280" fill="white">M</text>
<text dominant-baseline="hanging" text-anchor="middle" font-family="monospace" font-size="10" stroke="red" x="5344" y="1300">0</text>
<text text-anchor="middle" font-family="monospace" font-size="8" x="5344" y="1260">rec[12]</text>
<rect x="5328" y="1328" width="32" height="32" stroke="black" fill="white"/>
<text dominant-baseline="central" text-anchor="middle" font-family="monospace" font-size="30" x="5344" y="1344">H</text>
<path d="M5408,64 L5408,1344 " stroke="black"/>
<circle cx="5408" cy="1344" r="12" stroke="none" fill="black"/>
<circle cx="5408" cy="64" r="12" stroke="black" fill="white"/>
<path d="M5396,64 L5420,64 M5408,52 L5408,76 " stroke="black"/>
<path d="M5472,128 L5472,1344 " stroke="black"/>
<circle cx="5472" cy="1344" r="12" stroke="none" fill="black"/>
<circle cx="5472" cy="128" r="12" stroke="black" fill="white"/>
<path d="M5460,128 L5484,128 M5472,116 L5472,140 " stroke="black"/>
<path d="M5536,320 L5536,1344 " stroke="black"/>
<circle cx="5536" cy="1344" r="12" stroke="none" fill="black"/>
<circle cx="5536" cy="320" r="12" stroke="black" fill="white"/>
<path d="M5524,320 L5548,320 M5536,308 L5536,332 " stroke="black"/>
<path d="M5600,384 L5600,1344 " stroke="black"/>
<circle cx="5600" cy="1344" r="12" stroke="none" fill="black"/>
<circle cx="5600" cy="384" r="12" stroke="black" fill="white"/>
<path d="M5588,384 L5612,384 M5600,372 L5600,396 " stroke="black"/>
<rect x="5648" y="1328" width="32" height="32" stroke="black" fill="white"/>
<text dominant-baseline="central" text-anchor="middle" font-family="monospace" font-size="30" x="5664" y="1344">H</text>
<rect x="5712" y="1328" width="32" height="32" stroke="black" fill="black"/>
<text dominant-baseline="central" text-anchor="middle" font-family="monospace" font-size="30" x="5728" y="1344" fill="white">M</text>
<text dominant-baseline="hanging" text-anchor="middle" font-family="monospace" font-size="10" stroke="red" x="5728" y="1364">0</text>
<text text-anchor="middle" font-family="monospace" font-size="8" x="5728" y="1324">rec[13]</text>
<rect x="5712" y="1392" width="32" height="32" stroke="black" fill="white"/>
<text dominant-baseline="central" text-anchor="middle" font-family="monospace" font-size="30" x="5728" y="1408">H</text>
<path d="M5792,64 L5792,1408 " stroke="black"/>
<circle cx="5792" cy="1408" r="12" stroke="none" fill="black"/>
<circle cx="5792" cy="64" r="12" stroke="black" fill="white"/>
<path d="M5780,64 L5804,64 M5792,52 L5792,76 " stroke="black"/>
<path d="M5856,192 L5856,1408 " stroke="black"/>
<circle cx="5856" cy="1408" r="12" stroke="none" fill="black"/>
<circle cx="5856" cy="192" r="12" stroke="black" fill="white"/>
<path d="M5844,192 L5868,192 M5856,180 L5856,204 " stroke="black"/>
<path d="M5920,320 L5920,1408 " stroke="black"/>
<circle cx="5920" cy="1408" r="12" stroke="none" fill="black"/>
<circle cx="5920" cy="320" r="12" stroke="black" fill="white"/>
<path d="M5908,320 L5932,320 M5920,308 L5920,332 " stroke="black"/>
<path d="M5984,448 L5984,1408 " stroke="black"/>
<circle cx="5984" cy="1408" r="12" stroke="none" fill="black"/>
<circle cx="5984" cy="448" r="12" stroke="black" fill="white"/>
<path d="M5972,448 L5996,448 M5984,436 L5984,460 " stroke="black"/>
<rect x="6032" y="1392" width="32" height="32" stroke="black" fill="white"/>
<text dominant-baseline="central" text-anchor="middle" font-family="monospace" font-size="30" x="6048" y="1408">H</text>
<rect x="6096" y="1392" width="32" height="32" stroke="black" fill="black"/>
<text dominant-baseline="central" text-anchor="middle" font-family="monospace" font-size="30" x="6112" y="1408" fill="white">M</text>
<text dominant-baseline="hanging" text-anchor="middle" font-family="monospace" font-size="10" stroke="red" x="6112" y="1428">0</text>
<text text-anchor="middle" font-family="monospace" font-size="8" x="6112" y="1388">rec[14]</text>
<path d="M6176,64 L6176,1472 " stroke="black"/>
<circle cx="6176" cy="64" r="12" stroke="none" fill="black"/>
<circle cx="6176" cy="1472" r="12" stroke="black" fill="white"/>
<path d="M6164,1472 L6188,1472 M6176,1460 L6176,1484 " stroke="black"/>
<path d="M6240,128 L6240,1472 " stroke="black"/>
<circle cx="6240" cy="128" r="12" stroke="none" fill="black"/>
<circle cx="6240" cy="1472" r="12" stroke="black" fill="white"/>
<path d="M6228,1472 L6252,1472 M6240,1460 L6240,1484 " stroke="black"/>
<path d="M6304,192 L6304,1472 " stroke="black"/>
<circle cx="6304" cy="192" r="12" stroke="none" fill="black"/>
<circle cx="6304" cy="1472" r="12" stroke="black" fill="white"/>
<path d="M6292,1472 L6316,1472 M6304,1460 L6304,1484 " stroke="black"/>
<path d="M6368,256 L6368,1472 " stroke="black"/>
<circle cx="6368" cy="256" r="12" stroke="none" fill="black"/>
<circle cx="6368" cy="1472" r="12" stroke="black" fill="white"/>
<path d="M6356,1472 L6380,1472 M6368,1460 L6368,1484 " stroke="black"/>
<rect x="6416" y="1456" width="32" height="32" stroke="black" fill="black"/>
<text dominant-baseline="central" text-anchor="middle" font-family="monospace" font-size="30" x="6432" y="1472" fill="white">M</text>
<text dominant-baseline="hanging" text-anchor="middle" font-family="monospace" font-size="10" stroke="red" x="6432" y="1492">0</text>
<text text-anchor="middle" font-family="monospace" font-size="8" x="6432" y="1452">rec[15]</text>
<path d="M6496,64 L6496,1536 " stroke="black"/>
<circle cx="6496" cy="64" r="12" stroke="none" fill="black"/>
<circle cx="6496" cy="1536" r="12" stroke="black" fill="white"/>
<path d="M6484,1536 L6508,1536 M6496,1524 L6496,1548 " stroke="black"/>
<path d="M6560,128 L6560,1536 " stroke="black"/>
<circle cx="6560" cy="128" r="12" stroke="none" fill="black"/>
<circle cx="6560" cy="1536" r="12" stroke="black" fill="white"/>
<path d="M6548,1536 L6572,1536 M6560,1524 L6560,1548 " stroke="black"/>
<path d="M6624,320 L6624,1536 " stroke="black"/>
<circle cx="6624" cy="320" r="12" stroke="none" fill="black"/>
<circle cx="6624" cy="1536" r="12" stroke="black" fill="white"/>
<path d="M6612,1536 L6636,1536 M6624,1524 L6624,1548 " stroke="black"/>
<path d="M6688,384 L6688,1536 " stroke="black"/>
<circle cx="6688" cy="384" r="12" stroke="none" fill="black"/>
<circle cx="6688" cy="1536" r="12" stroke="black" fill="white"/>
<path d="M6676,1536 L6700,1536 M6688,1524 L6688,1548 " stroke="black"/>
<rect x="6736" y="1520" width="32" height="32" stroke="black" fill="black"/>
<text dominant-baseline="central" text-anchor="middle" font-family="monospace" font-size="30" x="6752" y="1536" fill="white">M</text>
<text dominant-baseline="hanging" text-anchor="middle" font-family="monospace" font-size="10" stroke="red" x="6752" y="1556">0</text>
<text text-anchor="middle" font-family="monospace" font-size="8" x="6752" y="1516">rec[16]</text>
<path d="M6816,64 L6816,1600 " stroke="black"/>
<circle cx="6816" cy="64" r="12" stroke="none" fill="black"/>
<circle cx="6816" cy="1600" r="12" stroke="black" fill="white"/>
<path d="M6804,1600 L6828,1600 M6816,1588 L6816,1612 " stroke="black"/>
<path d="M6880,192 L6880,1600 " stroke="black"/>
<circle cx="6880" cy="192" r="12" stroke="none" fill="black"/>
<circle cx="6880" cy="1600" r="12" stroke="black" fill="white"/>
<path d="M6868,1600 L6892,1600 M6880,1588 L6880,1612 " stroke="black"/>
<path d="M6944,320 L6944,1600 " stroke="black"/>
<circle cx="6944" cy="320" r="12" stroke="none" fill="black"/>
<circle cx="6944" cy="1600" r="12" stroke="black" fill="white"/>
<path d="M6932,1600 L6956,1600 M6944,1588 L6944,1612 " stroke="black"/>
<path d="M7008,448 L7008,1600 " stroke="black"/>
<circle cx="7008" cy="448" r="12" stroke="none" fill="black"/>
<circle cx="7008" cy="1600" r="12" stroke="black" fill="white"/>
<path d="M6996,1600 L7020,1600 M7008,1588 L7008,1612 " stroke="black"/>
<rect x="7056" y="1584" width="32" height="32" stroke="black" fill="black"/>
<text dominant-baseline="central" text-anchor="middle" font-family="monospace" font-size="30" x="7072" y="1600" fill="white">M</text>
<text dominant-baseline="hanging" text-anchor="middle" font-family="monospace" font-size="10" stroke="red" x="7072" y="1620">0</text>
<text text-anchor="middle" font-family="monospace" font-size="8" x="7072" y="1580">rec[17]</text>
<rect x="7056" y="48" width="32" height="32" stroke="black" fill="black"/>
<text dominant-baseline="central" text-anchor="middle" font-family="monospace" font-size="30" x="7072" y="64" fill="white">M</text>
<text dominant-baseline="hanging" text-anchor="middle" font-family="monospace" font-size="10" stroke="red" x="7072" y="84">0</text>
<text text-anchor="middle" font-family="monospace" font-size="8" x="7072" y="44">rec[18]</text>
<rect x="7056" y="112" width="32" height="32" stroke="black" fill="black"/>
<text dominant-baseline="central" text-anchor="middle" font-family="monospace" font-size="30" x="7072" y="128" fill="white">M</text>
<text dominant-baseline="hanging" text-anchor="middle" font-family="monospace" font-size="10" stroke="red" x="7072" y="148">0</text>
<text text-anchor="middle" font-family="monospace" font-size="8" x="7072" y="108">rec[19]</text>
<rect x="7056" y="176" width="32" height="32" stroke="black" fill="black"/>
<text dominant-baseline="central" text-anchor="middle" font-family="monospace" font-size="30" x="7072" y="192" fill="white">M</text>
<text dominant-baseline="hanging" text-anchor="middle" font-family="monospace" font-size="10" stroke="red" x="7072" y="212">0</text>
<text text-anchor="middle" font-family="monospace" font-size="8" x="7072" y="172">rec[20]</text>
<rect x="7056" y="240" width="32" height="32" stroke="black" fill="black"/>
<text dominant-baseline="central" text-anchor="middle" font-family="monospace" font-size="30" x="7072" y="256" fill="white">M</text>
<text dominant-baseline="hanging" text-anchor="middle" font-family="monospace" font-size="10" stroke="red" x="7072" y="276">0</text>
<text text-anchor="middle" font-family="monospace" font-size="8" x="7072" y="236">rec[21]</text>
<rect x="7056" y="304" width="32" height="32" stroke="black" fill="black"/>
<text dominant-baseline="central" text-anchor="middle" font-family="monospace" font-size="30" x="7072" y="320" fill="white">M</text>
<text dominant-baseline="hanging" text-anchor="middle" font-family="monospace" font-size="10" stroke="red" x="7072" y="340">0</text>
<text text-anchor="middle" font-family="monospace" font-size="8" x="7072" y="300">rec[22]</text>
<rect x="7056" y="368" width="32" height="32" stroke="black" fill="black"/>
<text dominant-baseline="central" text-anchor="middle" font-family="monospace" font-size="30" x="7072" y="384" fill="white">M</text>
<text dominant-baseline="hanging" text-anchor="middle" font-family="monospace" font-size="10" stroke="red" x="7072" y="404">0</text>
<text text-anchor="middle" font-family="monospace" font-size="8" x="7072" y="364">rec[23]</text>
<rect x="7056" y="432" width="32" height="32" stroke="black" fill="black"/>
<text dominant-baseline="central" text-anchor="middle" font-family="monospace" font-size="30" x="7072" y="448" fill="white">M</text>
<text dominant-baseline="hanging" text-anchor="middle" font-family="monospace" font-size="10" stroke="red" x="7072" y="468">0</text>
<text text-anchor="middle" font-family="monospace" font-size="8" x="7072" y="428">rec[24]</text>
</svg>