<svg xmlns="http://www.w3.org/2000/svg" viewBox="0 0 1120 608" version="1.1">
<g id="qubit_lines">
<path id="qubit_line:0" d="M64,64 L1088,64 " stroke="black"/>
<text dominant-baseline="central" text-anchor="end" font-family="monospace" font-size="12" x="64" y="64">q0</text>
<path id="qubit_line:1" d="M64,128 L1088,128 " stroke="black"/>
<text dominant-baseline="central" text-anchor="end" font-family="monospace" font-size="12" x="64" y="128">q1</text>
<path id="qubit_line:2" d="M64,192 L1088,192 " stroke="black"/>
<text dominant-baseline="central" text-anchor="end" font-family="monospace" font-size="12" x="64" y="192">q2</text>
<path id="qubit_line:3" d="M64,256 L1088,256 " stroke="black"/>
<text dominant-baseline="central" text-anchor="end" font-family="monospace" font-size="12" x="64" y="256">q3</text>
<path id="qubit_line:4" d="M64,320 L1088,320 " stroke="black"/>
<text dominant-baseline="central" text-anchor="end" font-family="monospace" font-size="12" x="64" y="320">q4</text>
<path id="qubit_line:5" d="M64,384 L1088,384 " stroke="black"/>
<text dominant-baseline="central" text-anchor="end" font-family="monospace" font-size="12" x="64" y="384">q5</text>
<path id="qubit_line:6" d="M64,448 L1088,448 " stroke="black"/>
<text dominant-baseline="central" text-anchor="end" font-family="monospace" font-size="12" x="64" y="448">q6</text>
<path id="qubit_line:7" d="M64,512 L1088,512 " stroke="black"/>
<text dominant-baseline="central" text-anchor="end" font-family="monospace" font-size="12" x="64" y="512">q7</text>
</g>
<rect x="80" y="48" width="32" height="32" stroke="black" fill="white"/>
<text dominant-baseline="central" text-anchor="middle" font-family="monospace" font-size="30" x="96" y="64">H</text>
<rect x="80" y="112" width="32" height="32" stroke="black" fill="white"/>
<text dominant-baseline="central" text-anchor="middle" font-family="monospace" font-size="30" x="96" y="128">H</text>
<rect x="80" y="176" width="32" height="32" stroke="black" fill="white"/>
<text dominant-baseline="central" text-anchor="middle" font-family="monospace" font-size="30" x="96" y="192">H</text>
<path d="M160,64 L160,256 " stroke="black"/>
<circle cx="160" cy="64" r="12" stroke="none" fill="black"/>
<circle cx="160" cy="256" r="12" stroke="black" fill="white"/>
<path d="M148,256 L172,256 M160,244 L160,268 " stroke="black"/>
<path d="M224,128 L224,256 " stroke="black"/>
<circle cx="224" cy="128" r="12" stroke="none" fill="black"/>
<circle cx="224" cy="256" r="12" stroke="black" fill="white"/>
<path d="M212,256 L236,256 M224,244 L224,268 " stroke="black"/>
<path d="M288,64 L288,320 " stroke="black"/>
<circle cx="288" cy="64" r="12" stroke="none" fill="black"/>
<circle cx="288" cy="320" r="12" stroke="black" fill="white"/>
<path d="M276,320 L300,320 M288,308 L288,332 " stroke="black"/>
<path d="M352,192 L352,320 " stroke="black"/>
<circle cx="352" cy="192" r="12" stroke="none" fill="black"/>
<circle cx="352" cy="320" r="12" stroke="black" fill="white"/>
<path d="M340,320 L364,320 M352,308 L352,332 " stroke="black"/>
<path d="M416,128 L416,384 " stroke="black"/>
<circle cx="416" cy="128" r="12" stroke="none" fill="black"/>
<circle cx="416" cy="384" r="12" stroke="black" fill="white"/>
<path d="M404,384 L428,384 M416,372 L416,396 " stroke="black"/>
<path d="M480,192 L480,384 " stroke="black"/>
<circle cx="480" cy="192" r="12" stroke="none" fill="black"/>
<circle cx="480" cy="384" r="12" stroke="black" fill="white"/>
<path d="M468,384 L492,384 M480,372 L480,396 " stroke="black"/>
<path d="M544,64 L544,448 " stroke="black"/>
<circle cx="544" cy="64" r="12" stroke="none" fill="black"/>
<circle cx="544" cy="448" r="12" stroke="black" fill="white"/>
<path d="M532,448 L556,448 M544,436 L544,460 " stroke="black"/>
<path d="M608,128 L608,448 " stroke="black"/>
<circle cx="608" cy="128" r="12" stroke="none" fill="black"/>
<circle cx="608" cy="448" r="12" stroke="black" fill="white"/>
<path d="M596,448 L620,448 M608,436 L608,460 " stroke="black"/>
<path d="M672,192 L672,448 " stroke="black"/>
<circle cx="672" cy="192" r="12" stroke="none" fill="black"/>
<circle cx="672" cy="448" r="12" stroke="black" fill="white"/>
<path d="M660,448 L684,448 M672,436 L672,460 " stroke="black"/>
<rect x="656" y="496" width="32" height="32" stroke="black" fill="white"/>
<text dominant-baseline="central" text-anchor="middle" font-family="monospace" font-size="30" x="672" y="512">H</text>
<path d="M736,64 L736,512 " stroke="black"/>
<circle cx="736" cy="512" r="12" stroke="none" fill="black"/>
<circle cx="736" cy="64" r="12" stroke="black" fill="white"/>
<path d="M724,64 L748,64 M736,52 L736,76 " stroke="black"/>
<path d="M800,128 L800,512 " stroke="black"/>
<circle cx="800" cy="512" r="12" stroke="none" fill="black"/>
<circle cx="800" cy="128" r="12" stroke="black" fill="white"/>
<path d="M788,128 L812,128 M800,116 L800,140 " stroke="black"/>
<path d="M864,320 L864,512 " stroke="black"/>
<circle cx="864" cy="512" r="12" stroke="none" fill="black"/>
<circle cx="864" cy="320" r="12" stroke="black" fill="white"/>
<path d="M852,320 L876,320 M864,308 L864,332 " stroke="black"/>
<path d="M928,384 L928,512 " stroke="black"/>
<circle cx="928" cy="512" r="12" stroke="none" fill="black"/>
<circle cx="928" cy="384" r="12" stroke="black" fill="white"/>
<path d="M916,384 L940,384 M928,372 L928,396 " stroke="black"/>
<rect x="976" y="496" width="32" height="32" stroke="black" fill="white"/>
<text dominant-baseline="central" text-anchor="middle" font-family="monospace" font-size="30" x="992" y="512">H</text>
<rect x="1040" y="496" width="32" height="32" stroke="black" fill="black"/>
<text dominant-baseline="central" text-anchor="middle" font-family="monospace" font-size="30" x="1056" y="512" fill="white">M</text>
<text dominant-baseline="hanging" text-anchor="middle" font-family="monospace" font-size="10" stroke="red" x="1056" y="532">0</text>
<text text-anchor="middle" font-family="monospace" font-size="8" x="1056" y="492">rec[0]</text>
<rect x="1040" y="48" width="32" height="32" stroke="black" fill="black"/>
<text dominant-baseline="central" text-anchor="middle" font-family="monospace" font-size="30" x="1056" y="64" fill="white">M</text>
<text dominant-baseline="hanging" text-anchor="middle" font-family="monospace" font-size="10" stroke="red" x="1056" y="84">0</text>
<text text-anchor="middle" font-family="monospace" font-size="8" x="1056" y="44">rec[1]</text>
<rect x="1040" y="112" width="32" height="32" stroke="black" fill="black"/>
<text dominant-baseline="central" text-anchor="middle" font-family="monospace" font-size="30" x="1056" y="128" fill="white">M</text>
<text dominant-baseline="hanging" text-anchor="middle" font-family="monospace" font-size="10" stroke="red" x="1056" y="148">0</text>
<text text-anchor="middle" font-family="monospace" font-size="8" x="1056" y="108">rec[2]</text>
<rect x="1040" y="176" width="32" height="32" stroke="black" fill="black"/>
<text dominant-baseline="central" text-anchor="middle" font-family="monospace" font-size="30" x="1056" y="192" fill="white">M</text>
<text dominant-baseline="hanging" text-anchor="middle" font-family="monospace" font-size="10" stroke="red" x="1056" y="212">0</text>
<text text-anchor="middle" font-family="monospace" font-size="8" x="1056" y="172">rec[3]</text>
<rect x="1040" y="240" width="32" height="32" stroke="black" fill="black"/>
<text dominant-baseline="central" text-anchor="middle" font-family="monospace" font-size="30" x="1056" y="256" fill="white">M</text>
<text dominant-baseline="hanging" text-anchor="middle" font-family="monospace" font-size="10" stroke="red" x="1056" y="276">0</text>
<text text-anchor="middle" font-family="monospace" font-size="8" x="1056" y="236">rec[4]</text>
<rect x="1040" y="304" width="32" height="32" stroke="black" fill="black"/>
<text dominant-baseline="central" text-anchor="middle" font-family="monospace" font-size="30" x="1056" y="320" fill="white">M</text>
<text dominant-baseline="hanging" text-anchor="middle" font-family="monospace" font-size="10" stroke="red" x="1056" y="340">0</text>
<text text-anchor="middle" font-family="monospace" font-size="8" x="1056" y="300">rec[5]</text>
<rect x="1040" y="368" width="32" height="32" stroke="black" fill="black"/>
<text dominant-baseline="central" text-anchor="middle" font-family="monospace" font-size="30" x="1056" y="384" fill="white">M</text>
<text dominant-baseline="hanging" text-anchor="middle" font-family="monospace" font-size="10" stroke="red" x="1056" y="404">0</text>
<text text-anchor="middle" font-family="monospace" font-size="8" x="1056" y="364">rec[6]</text>
<rect x="1040" y="432" width="32" height="32" stroke="black" fill="black"/>
<text dominant-baseline="central" text-anchor="middle" font-family="monospace" font-size="30" x="1056" y="448" fill="white">M</text>
<text dominant-baseline="hanging" text-anchor="middle" font-family="monospace" font-size="10" stroke="red" x="1056" y="468">0</text>
<text text-anchor="middle" font-family="monospace" font-size="8" x="1056" y="428">rec[7]</text>
</svg>