<svg xmlns="http://www.w3.org/2000/svg" viewBox="0 0 2912 928" version="1.1">
<g id="qubit_lines">
<path id="qubit_line:0" d="M64,64 L2880,64 " stroke="black"/>
<text dominant-baseline="central" text-anchor="end" font-family="monospace" font-size="12" x="64" y="64">q0</text>
<path id="qubit_line:1" d="M64,128 L2880,128 " stroke="black"/>
<text dominant-baseline="central" text-anchor="end" font-family="monospace" font-size="12" x="64" y="128">q1</text>
<path id="qubit_line:2" d="M64,192 L2880,192 " stroke="black"/>
<text dominant-baseline="central" text-anchor="end" font-family="monospace" font-size="12" x="64" y="192">q2</text>
<path id="qubit_line:3" d="M64,256 L2880,256 " stroke="black"/>
<text dominant-baseline="central" text-anchor="end" font-family="monospace" font-size="12" x="64" y="256">q3</text>
<path id="qubit_line:4" d="M64,320 L2880,320 " stroke="black"/>
<text dominant-baseline="central" text-anchor="end" font-family="monospace" font-size="12" x="64" y="320">q4</text>
<path id="qubit_line:5" d="M64,384 L2880,384 " stroke="black"/>
<text dominant-baseline="central" text-anchor="end" font-family="monospace" font-size="12" x="64" y="384">q5</text>
<path id="qubit_line:6" d="M64,448 L2880,448 " stroke="black"/>
<text dominant-baseline="central" text-anchor="end" font-family="monospace" font-size="12" x="64" y="448">q6</text>
<path id="qubit_line:7" d="M64,512 L2880,512 " stroke="black"/>
<text dominant-baseline="central" text-anchor="end" font-family="monospace" font-size="12" x="64" y="512">q7</text>
<path id="qubit_line:8" d="M64,576 L2880,576 " stroke="black"/>
<text dominant-baseline="central" text-anchor="end" font-family="monospace" font-size="12" x="64" y="576">q8</text>
<path id="qubit_line:9" d="M64,640 L2880,640 " stroke="black"/>
<text dominant-baseline="central" text-anchor="end" font-family="monospace" font-size="12" x="64" y="640">q9</text>
<path id="qubit_line:10" d="M64,704 L2880,704 " stroke="black"/>
<text dominant-baseline="central" text-anchor="end" font-family="monospace" font-size="12" x="64" y="704">q10</text>
<path id="qubit_line:11" d="M64,768 L2880,768 " stroke="black"/>
<text dominant-baseline="central" text-anchor="end" font-family="monospace" font-size="12" x="64" y="768">q11</text>
<path id="qubit_line:12" d="M64,832 L2880,832 " stroke="black"/>
<text dominant-baseline="central" text-anchor="end" font-family="monospace" font-size="12" x="64" y="832">q12</text>
</g>
<rect x="80" y="48" width="32" height="32" stroke="black" fill="white"/>
<text dominant-baseline="central" text-anchor="middle" font-family="monospace" font-size="30" x="96" y="64">H</text>
<rect x="80" y="112" width="32" height="32" stroke="black" fill="white"/>
<text dominant-baseline="central" text-anchor="middle" font-family="monospace" font-size="30" x="96" y="128">H</text>
<rect x="80" y="176" width="32" height="32" stroke="black" fill="white"/>
<text dominant-baseline="central" text-anchor="middle" font-family="monospace" font-size="30" x="96" y="192">H</text>
<path d="M160,64 L160,256 " stroke="black"/>
<circle cx="160" cy="64" r="12" stroke="none" fill="black"/>
<circle cx="160" cy="256" r="12" stroke="black" fill="white"/>
<path d="M148,256 L172,256 M160,244 L160,268 " stroke="black"/>
<path d="M224,128 L224,256 " stroke="black"/>
<circle cx="224" cy="128" r="12" stroke="none" fill="black"/>
<circle cx="224" cy="256" r="12" stroke="black" fill="white"/>
<path d="M212,256 L236,256 M224,244 L224,268 " stroke="black"/>
<path d="M288,64 L288,320 " stroke="black"/>
<circle cx="288" cy="64" r="12" stroke="none" fill="black"/>
<circle cx="288" cy="320" r="12" stroke="black" fill="white"/>
<path d="M276,320 L300,320 M288,308 L288,332 " stroke="black"/>
<path d="M352,192 L352,320 " stroke="black"/>
<circle cx="352" cy="192" r="12" stroke="none" fill="black"/>
<circle cx="352" cy="320" r="12" stroke="black" fill="white"/>
<path d="M340,320 L364,320 M352,308 L352,332 " stroke="black"/>
<path d="M416,128 L416,384 " stroke="black"/>
<circle cx="416" cy="128" r="12" stroke="none" fill="black"/>
<circle cx="416" cy="384" r="12" stroke="black" fill="white"/>
<path d="M404,384 L428,384 M416,372 L416,396 " stroke="black"/>
<path d="M480,192 L480,384 " stroke="black"/>
<circle cx="480" cy="192" r="12" stroke="none" fill="black"/>
<circle cx="480" cy="384" r="12" stroke="black" fill="white"/>
<path d="M468,384 L492,384 M480,372 L480,396 " stroke="black"/>
<path d="M544,64 L544,448 " stroke="black"/>
<circle cx="544" cy="64" r="12" stroke="none" fill="black"/>
<circle cx="544" cy="448" r="12" stroke="black" fill="white"/>
<path d="M532,448 L556,448 M544,436 L544,460 " stroke="black"/>
<path d="M608,128 L608,448 " stroke="black"/>
<circle cx="608" cy="128" r="12" stroke="none" fill="black"/>
<circle cx="608" cy="448" r="12" stroke="black" fill="white"/>
<path d="M596,448 L620,448 M608,436 L608,460 " stroke="black"/>
<path d="M672,192 L672,448 " stroke="black"/>
<circle cx="672" cy="192" r="12" stroke="none" fill="black"/>
<circle cx="672" cy="448" r="12" stroke="black" fill="white"/>
<path d="M660,448 L684,448 M672,436 L672,460 " stroke="black"/>
<rect x="656" y="48" width="32" height="32" stroke="black" fill="pink"/>
<text dominant-baseline="central" text-anchor="middle" font-family="monospace" font-size="12" x="672" y="64">DEP<tspan baseline-shift="sub" font-size="10">1</tspan></text>
<text dominant-baseline="hanging" text-anchor="middle" font-family="monospace" font-size="10" stroke="red" x="672" y="84">0.01</text>
<rect x="656" y="112" width="32" height="32" stroke="black" fill="pink"/>
<text dominant-baseline="central" text-anchor="middle" font-family="monospace" font-size="12" x="672" y="128">DEP<tspan baseline-shift="sub" font-size="10">1</tspan></text>
<text dominant-baseline="hanging" text-anchor="middle" font-family="monospace" font-size="10" stroke="red" x="672" y="148">0.01</text>
<rect x="720" y="176" width="32" height="32" stroke="black" fill="pink"/>
<text dominant-baseline="central" text-anchor="middle" font-family="monospace" font-size="12" x="736" y="192">DEP<tspan baseline-shift="sub" font-size="10">1</tspan></text>
<text dominant-baseline="hanging" text-anchor="middle" font-family="monospace" font-size="10" stroke="red" x="736" y="212">0.01</text>
<rect x="720" y="240" width="32" height="32" stroke="black" fill="pink"/>
<text dominant-baseline="central" text-anchor="middle" font-family="monospace" font-size="12" x="736" y="256">DEP<tspan baseline-shift="sub" font-size="10">1</tspan></text>
<text dominant-baseline="hanging" text-anchor="middle" font-family="monospace" font-size="10" stroke="red" x="736" y="276">0.01</text>
<rect x="720" y="304" width="32" height="32" stroke="black" fill="pink"/>
<text dominant-baseline="central" text-anchor="middle" font-family="monospace" font-size="12" x="736" y="320">DEP<tspan baseline-shift="sub" font-size="10">1</tspan></text>
<text dominant-baseline="hanging" text-anchor="middle" font-family="monospace" font-size="10" stroke="red" x="736" y="340">0.01</text>
<rect x="720" y="368" width="32" height="32" stroke="black" fill="pink"/>
<text dominant-baseline="central" text-anchor="middle" font-family="monospace" font-size="12" x="736" y="384">DEP<tspan baseline-shift="sub" font-size="10">1</tspan></text>
<text dominant-baseline="hanging" text-anchor="middle" font-family="monospace" font-size="10" stroke="red" x="736" y="404">0.01</text>
<rect x="720" y="432" width="32" height="32" stroke="black" fill="pink"/>
<text dominant-baseline="central" text-anchor="middle" font-family="monospace" font-size="12" x="736" y="448">DEP<tspan baseline-shift="sub" font-size="10">1</tspan></text>
<text dominant-baseline="hanging" text-anchor="middle" font-family="monospace" font-size="10" stroke="red" x="736" y="468">0.01</text>
<rect x="720" y="496" width="32" height="32" stroke="black" fill="white"/>
<text dominant-baseline="central" text-anchor="middle" font-family="monospace" font-size="30" x="736" y="512">H</text>
<path d="M800,64 L800,512 " stroke="black"/>
<circle cx="800" cy="512" r="12" stroke="none" fill="black"/>
<circle cx="800" cy="64" r="12" stroke="black" fill="white"/>
<path d="M788,64 L812,64 M800,52 L800,76 " stroke="black"/>
<path d="M864,128 L864,512 " stroke="black"/>
<circle cx="864" cy="512" r="12" stroke="none" fill="black"/>
<circle cx="864" cy="128" r="12" stroke="black" fill="white"/>
<path d="M852,128 L876,128 M864,116 L864,140 " stroke="black"/>
<path d="M928,192 L928,512 " stroke="black"/>
<circle cx="928" cy="512" r="12" stroke="none" fill="black"/>
<circle cx="928" cy="192" r="12" stroke="black" fill="white"/>
<path d="M916,192 L940,192 M928,180 L928,204 " stroke="black"/>
<path d="M992,256 L992,512 " stroke="black"/>
<circle cx="992" cy="512" r="12" stroke="none" fill="black"/>
<circle cx="992" cy="256" r="12" stroke="black" fill="white"/>
<path d="M980,256 L1004,256 M992,244 L992,268 " stroke="black"/>
<rect x="1040" y="496" width="32" height="32" stroke="black" fill="white"/>
<text dominant-baseline="central" text-anchor="middle" font-family="monospace" font-size="30" x="1056" y="512">H</text>
<rect x="1104" y="496" width="32" height="32" stroke="black" fill="black"/>
<text dominant-baseline="central" text-anchor="middle" font-family="monospace" font-size="30" x="1120" y="512" fill="white">M</text>
<text dominant-baseline="hanging" text-anchor="middle" font-family="monospace" font-size="10" stroke="red" x="1120" y="532">0</text>
<text text-anchor="middle" font-family="monospace" font-size="8" x="1120" y="492">rec[0]</text>
<rect x="1104" y="560" width="32" height="32" stroke="black" fill="white"/>
<text dominant-baseline="central" text-anchor="middle" font-family="monospace" font-size="30" x="1120" y="576">H</text>
<path d="M1184,64 L1184,576 " stroke="black"/>
<circle cx="1184" cy="576" r="12" stroke="none" fill="black"/>
<circle cx="1184" cy="64" r="12" stroke="black" fill="white"/>
<path d="M1172,64 L1196,64 M1184,52 L1184,76 " stroke="black"/>
<path d="M1248,128 L1248,576 " stroke="black"/>
<circle cx="1248" cy="576" r="12" stroke="none" fill="black"/>
<circle cx="1248" cy="128" r="12" stroke="black" fill="white"/>
<path d="M1236,128 L1260,128 M1248,116 L1248,140 " stroke="black"/>
<path d="M1312,320 L1312,576 " stroke="black"/>
<circle cx="1312" cy="576" r="12" stroke="none" fill="black"/>
<circle cx="1312" cy="320" r="12" stroke="black" fill="white"/>
<path d="M1300,320 L1324,320 M1312,308 L1312,332 " stroke="black"/>
<path d="M1376,384 L1376,576 " stroke="black"/>
<circle cx="1376" cy="576" r="12" stroke="none" fill="black"/>
<circle cx="1376" cy="384" r="12" stroke="black" fill="white"/>
<path d="M1364,384 L1388,384 M1376,372 L1376,396 " stroke="black"/>
<rect x="1424" y="560" width="32" height="32" stroke="black" fill="white"/>
<text dominant-baseline="central" text-anchor="middle" font-family="monospace" font-size="30" x="1440" y="576">H</text>
<rect x="1488" y="560" width="32" height="32" stroke="black" fill="black"/>
<text dominant-baseline="central" text-anchor="middle" font-family="monospace" font-size="30" x="1504" y="576" fill="white">M</text>
<text dominant-baseline="hanging" text-anchor="middle" font-family="monospace" font-size="10" stroke="red" x="1504" y="596">0</text>
<text text-anchor="middle" font-family="monospace" font-size="8" x="1504" y="556">rec[1]</text>
<rect x="1488" y="624" width="32" height="32" stroke="black" fill="white"/>
<text dominant-baseline="central" text-anchor="middle" font-family="monospace" font-size="30" x="1504" y="640">H</text>
<path d="M1568,64 L1568,640 " stroke="black"/>
<circle cx="1568" cy="640" r="12" stroke="none" fill="black"/>
<circle cx="1568" cy="64" r="12" stroke="black" fill="white"/>
<path d="M1556,64 L1580,64 M1568,52 L1568,76 " stroke="black"/>
<path d="M1632,192 L1632,640 " stroke="black"/>
<circle cx="1632" cy="640" r="12" stroke="none" fill="black"/>
<circle cx="1632" cy="192" r="12" stroke="black" fill="white"/>
<path d="M1620,192 L1644,192 M1632,180 L1632,204 " stroke="black"/>
<path d="M1696,320 L1696,640 " stroke="black"/>
<circle cx="1696" cy="640" r="12" stroke="none" fill="black"/>
<circle cx="1696" cy="320" r="12" stroke="black" fill="white"/>
<path d="M1684,320 L1708,320 M1696,308 L1696,332 " stroke="black"/>
<path d="M1760,448 L1760,640 " stroke="black"/>
<circle cx="1760" cy="640" r="12" stroke="none" fill="black"/>
<circle cx="1760" cy="448" r="12" stroke="black" fill="white"/>
<path d="M1748,448 L1772,448 M1760,436 L1760,460 " stroke="black"/>
<rect x="1808" y="624" width="32" height="32" stroke="black" fill="white"/>
<text dominant-baseline="central" text-anchor="middle" font-family="monospace" font-size="30" x="1824" y="640">H</text>
<rect x="1872" y="624" width="32" height="32" stroke="black" fill="black"/>
<text dominant-baseline="central" text-anchor="middle" font-family="monospace" font-size="30" x="1888" y="640" fill="white">M</text>
<text dominant-baseline="hanging" text-anchor="middle" font-family="monospace" font-size="10" stroke="red" x="1888" y="660">0</text>
<text text-anchor="middle" font-family="monospace" font-size="8" x="1888" y="620">rec[2]</text>
<path d="M1952,64 L1952,704 " stroke="black"/>
<circle cx="1952" cy="64" r="12" stroke="none" fill="black"/>
<circle cx="1952" cy="704" r="12" stroke="black" fill="white"/>
<path d="M1940,704 L1964,704 M1952,692 L1952,716 " stroke="black"/>
<path d="M2016,128 L2016,704 " stroke="black"/>
<circle cx="2016" cy="128" r="12" stroke="none" fill="black"/>
<circle cx="2016" cy="704" r="12" stroke="black" fill="white"/>
<path d="M2004,704 L2028,704 M2016,692 L2016,716 " stroke="black"/>
<path d="M2080,192 L2080,704 " stroke="black"/>
<circle cx="2080" cy="192" r="12" stroke="none" fill="black"/>
<circle cx="2080" cy="704" r="12" stroke="black" fill="white"/>
<path d="M2068,704 L2092,704 M2080,692 L2080,716 " stroke="black"/>
<path d="M2144,256 L2144,704 " stroke="black"/>
<circle cx="2144" cy="256" r="12" stroke="none" fill="black"/>
<circle cx="2144" cy="704" r="12" stroke="black" fill="white"/>
<path d="M2132,704 L2156,704 M2144,692 L2144,716 " stroke="black"/>
<rect x="2192" y="688" width="32" height="32" stroke="black" fill="black"/>
<text dominant-baseline="central" text-anchor="middle" font-family="monospace" font-size="30" x="2208" y="704" fill="white">M</text>
<text dominant-baseline="hanging" text-anchor="middle" font-family="monospace" font-size="10" stroke="red" x="2208" y="724">0</text>
<text text-anchor="middle" font-family="monospace" font-size="8" x="2208" y="684">rec[3]</text>
<path d="M2272,64 L2272,768 " stroke="black"/>
<circle cx="2272" cy="64" r="12" stroke="none" fill="black"/>
<circle cx="2272" cy="768" r="12" stroke="black" fill="white"/>
<path d="M2260,768 L2284,768 M2272,756 L2272,780 " stroke="black"/>
<path d="M2336,128 L2336,768 " stroke="black"/>
<circle cx="2336" cy="128" r="12" stroke="none" fill="black"/>
<circle cx="2336" cy="768" r="12" stroke="black" fill="white"/>
<path d="M2324,768 L2348,768 M2336,756 L2336,780 " stroke="black"/>
<path d="M2400,320 L2400,768 " stroke="black"/>
<circle cx="2400" cy="320" r="12" stroke="none" fill="black"/>
<circle cx="2400" cy="768" r="12" stroke="black" fill="white"/>
<path d="M2388,768 L2412,768 M2400,756 L2400,780 " stroke="black"/>
<path d="M2464,384 L2464,768 " stroke="black"/>
<circle cx="2464" cy="384" r="12" stroke="none" fill="black"/>
<circle cx="2464" cy="768" r="12" stroke="black" fill="white"/>
<path d="M2452,768 L2476,768 M2464,756 L2464,780 " stroke="black"/>
<rect x="2512" y="752" width="32" height="32" stroke="black" fill="black"/>
<text dominant-baseline="central" text-anchor="middle" font-family="monospace" font-size="30" x="2528" y="768" fill="white">M</text>
<text dominant-baseline="hanging" text-anchor="middle" font-family="monospace" font-size="10" stroke="red" x="2528" y="788">0</text>
<text text-anchor="middle" font-family="monospace" font-size="8" x="2528" y="748">rec[4]</text>
<path d="M2592,64 L2592,832 " stroke="black"/>
<circle cx="2592" cy="64" r="12" stroke="none" fill="black"/>
<circle cx="2592" cy="832" r="12" stroke="black" fill="white"/>
<path d="M2580,832 L2604,832 M2592,820 L2592,844 " stroke="black"/>
<path d="M2656,192 L2656,832 " stroke="black"/>
<circle cx="2656" cy="192" r="12" stroke="none" fill="black"/>
<circle cx="2656" cy="832" r="12" stroke="black" fill="white"/>
<path d="M2644,832 L2668,832 M2656,820 L2656,844 " stroke="black"/>
<path d="M2720,320 L2720,832 " stroke="black"/>
<circle cx="2720" cy="320" r="12" stroke="none" fill="black"/>
<circle cx="2720" cy="832" r="12" stroke="black" fill="white"/>
<path d="M2708,832 L2732,832 M2720,820 L2720,844 " stroke="black"/>
<path d="M2784,448 L2784,832 " stroke="black"/>
<circle cx="2784" cy="448" r="12" stroke="none" fill="black"/>
<circle cx="2784" cy="832" r="12" stroke="black" fill="white"/>
<path d="M2772,832 L2796,832 M2784,820 L2784,844 " stroke="black"/>
<rect x="2832" y="816" width="32" height="32" stroke="black" fill="black"/>
<text dominant-baseline="central" text-anchor="middle" font-family="monospace" font-size="30" x="2848" y="832" fill="white">M</text>
<text dominant-baseline="hanging" text-anchor="middle" font-family="monospace" font-size="10" stroke="red" x="2848" y="852">0</text>
<text text-anchor="middle" font-family="monospace" font-size="8" x="2848" y="812">rec[5]</text>
<rect x="2832" y="48" width="32" height="32" stroke="black" fill="black"/>
<text dominant-baseline="central" text-anchor="middle" font-family="monospace" font-size="30" x="2848" y="64" fill="white">M</text>
<text dominant-baseline="hanging" text-anchor="middle" font-family="monospace" font-size="10" stroke="red" x="2848" y="84">0</text>
<text text-anchor="middle" font-family="monospace" font-size="8" x="2848" y="44">rec[6]</text>
<rect x="2832" y="112" width="32" height="32" stroke="black" fill="black"/>
<text dominant-baseline="central" text-anchor="middle" font-family="monospace" font-size="30" x="2848" y="128" fill="white">M</text>
<text dominant-baseline="hanging" text-anchor="middle" font-family="monospace" font-size="10" stroke="red" x="2848" y="148">0</text>
<text text-anchor="middle" font-family="monospace" font-size="8" x="2848" y="108">rec[7]</text>
<rect x="2832" y="176" width="32" height="32" stroke="black" fill="black"/>
<text dominant-baseline="central" text-anchor="middle" font-family="monospace" font-size="30" x="2848" y="192" fill="white">M</text>
<text dominant-baseline="hanging" text-anchor="middle" font-family="monospace" font-size="10" stroke="red" x="2848" y="212">0</text>
<text text-anchor="middle" font-family="monospace" font-size="8" x="2848" y="172">rec[8]</text>
<rect x="2832" y="240" width="32" height="32" stroke="black" fill="black"/>
<text dominant-baseline="central" text-anchor="middle" font-family="monospace" font-size="30" x="2848" y="256" fill="white">M</text>
<text dominant-baseline="hanging" text-anchor="middle" font-family="monospace" font-size="10" stroke="red" x="2848" y="276">0</text>
<text text-anchor="middle" font-family="monospace" font-size="8" x="2848" y="236">rec[9]</text>
<rect x="2832" y="304" width="32" height="32" stroke="black" fill="black"/>
<text dominant-baseline="central" text-anchor="middle" font-family="monospace" font-size="30" x="2848" y="320" fill="white">M</text>
<text dominant-baseline="hanging" text-anchor="middle" font-family="monospace" font-size="10" stroke="red" x="2848" y="340">0</text>
<text text-anchor="middle" font-family="monospace" font-size="8" x="2848" y="300">rec[10]</text>
<rect x="2832" y="368" width="32" height="32" stroke="black" fill="black"/>
<text dominant-baseline="central" text-anchor="middle" font-family="monospace" font-size="30" x="2848" y="384" fill="white">M</text>
<text dominant-baseline="hanging" text-anchor="middle" font-family="monospace" font-size="10" stroke="red" x="2848" y="404">0</text>
<text text-anchor="middle" font-family="monospace" font-size="8" x="2848" y="364">rec[11]</text>
<rect x="2832" y="432" width="32" height="32" stroke="black" fill="black"/>
<text dominant-baseline="central" text-anchor="middle" font-family="monospace" font-size="30" x="2848" y="448" fill="white">M</text>
<text dominant-baseline="hanging" text-anchor="middle" font-family="monospace" font-size="10" stroke="red" x="2848" y="468">0</text>
<text text-anchor="middle" font-family="monospace" font-size="8" x="2848" y="428">rec[12]</text>
</svg>