<svg xmlns="http://www.w3.org/2000/svg" viewBox="0 0 4704 544" version="1.1">
<g id="qubit_lines">
<path id="qubit_line:0" d="M64,64 L4672,64 " stroke="black"/>
<text dominant-baseline="central" text-anchor="end" font-family="monospace" font-size="12" x="64" y="64">q0</text>
<path id="qubit_line:1" d="M64,128 L4672,128 " stroke="black"/>
<text dominant-baseline="central" text-anchor="end" font-family="monospace" font-size="12" x="64" y="128">q1</text>
<path id="qubit_line:2" d="M64,192 L4672,192 " stroke="black"/>
<text dominant-baseline="central" text-anchor="end" font-family="monospace" font-size="12" x="64" y="192">q2</text>
<path id="qubit_line:3" d="M64,256 L4672,256 " stroke="black"/>
<text dominant-baseline="central" text-anchor="end" font-family="monospace" font-size="12" x="64" y="256">q3</text>
<path id="qubit_line:4" d="M64,320 L4672,320 " stroke="black"/>
<text dominant-baseline="central" text-anchor="end" font-family="monospace" font-size="12" x="64" y="320">q4</text>
<path id="qubit_line:5" d="M64,384 L4672,384 " stroke="black"/>
<text dominant-baseline="central" text-anchor="end" font-family="monospace" font-size="12" x="64" y="384">q5</text>
<path id="qubit_line:6" d="M64,448 L4672,448 " stroke="black"/>
<text dominant-baseline="central" text-anchor="end" font-family="monospace" font-size="12" x="64" y="448">q6</text>
</g>
<rect x="80" y="48" width="32" height="32" stroke="black" fill="white"/>
<text dominant-baseline="central" text-anchor="middle" font-family="monospace" font-size="30" x="96" y="64">S</text>
<rect x="144" y="48" width="32" height="32" stroke="black" fill="white"/>
<text dominant-baseline="central" text-anchor="middle" font-family="monospace" font-size="30" x="160" y="64">S</text>
<rect x="208" y="48" width="32" height="32" stroke="black" fill="white"/>
<text dominant-baseline="central" text-anchor="middle" font-family="monospace" font-size="30" x="224" y="64">S</text>
<rect x="272" y="48" width="32" height="32" stroke="black" fill="white"/>
<text dominant-baseline="central" text-anchor="middle" font-family="monospace" font-size="30" x="288" y="64">H</text>
<rect x="336" y="48" width="32" height="32" stroke="black" fill="white"/>
<text dominant-baseline="central" text-anchor="middle" font-family="monospace" font-size="30" x="352" y="64">S</text>
<rect x="336" y="112" width="32" height="32" stroke="black" fill="white"/>
<text dominant-baseline="central" text-anchor="middle" font-family="monospace" font-size="30" x="352" y="128">S</text>
<rect x="400" y="112" width="32" height="32" stroke="black" fill="white"/>
<text dominant-baseline="central" text-anchor="middle" font-family="monospace" font-size="30" x="416" y="128">S</text>
<rect x="464" y="112" width="32" height="32" stroke="black" fill="white"/>
<text dominant-baseline="central" text-anchor="middle" font-family="monospace" font-size="30" x="480" y="128">S</text>
<rect x="528" y="112" width="32" height="32" stroke="black" fill="white"/>
<text dominant-baseline="central" text-anchor="middle" font-family="monospace" font-size="30" x="544" y="128">H</text>
<rect x="592" y="112" width="32" height="32" stroke="black" fill="white"/>
<text dominant-baseline="central" text-anchor="middle" font-family="monospace" font-size="30" x="608" y="128">S</text>
<rect x="592" y="176" width="32" height="32" stroke="black" fill="white"/>
<text dominant-baseline="central" text-anchor="middle" font-family="monospace" font-size="30" x="608" y="192">S</text>
<rect x="656" y="176" width="32" height="32" stroke="black" fill="white"/>
<text dominant-baseline="central" text-anchor="middle" font-family="monospace" font-size="30" x="672" y="192">S</text>
<rect x="720" y="176" width="32" height="32" stroke="black" fill="white"/>
<text dominant-baseline="central" text-anchor="middle" font-family="monospace" font-size="30" x="736" y="192">S</text>
<rect x="784" y="176" width="32" height="32" stroke="black" fill="white"/>
<text dominant-baseline="central" text-anchor="middle" font-family="monospace" font-size="30" x="800" y="192">H</text>
<rect x="848" y="176" width="32" height="32" stroke="black" fill="white"/>
<text dominant-baseline="central" text-anchor="middle" font-family="monospace" font-size="30" x="864" y="192">S</text>
<rect x="848" y="240" width="32" height="32" stroke="black" fill="white"/>
<text dominant-baseline="central" text-anchor="middle" font-family="monospace" font-size="30" x="864" y="256">S</text>
<rect x="912" y="240" width="32" height="32" stroke="black" fill="white"/>
<text dominant-baseline="central" text-anchor="middle" font-family="monospace" font-size="30" x="928" y="256">S</text>
<rect x="976" y="240" width="32" height="32" stroke="black" fill="white"/>
<text dominant-baseline="central" text-anchor="middle" font-family="monospace" font-size="30" x="992" y="256">S</text>
<rect x="1040" y="240" width="32" height="32" stroke="black" fill="white"/>
<text dominant-baseline="central" text-anchor="middle" font-family="monospace" font-size="30" x="1056" y="256">H</text>
<rect x="1104" y="240" width="32" height="32" stroke="black" fill="white"/>
<text dominant-baseline="central" text-anchor="middle" font-family="monospace" font-size="30" x="1120" y="256">S</text>
<rect x="1104" y="304" width="32" height="32" stroke="black" fill="white"/>
<text dominant-baseline="central" text-anchor="middle" font-family="monospace" font-size="30" x="1120" y="320">S</text>
<rect x="1168" y="304" width="32" height="32" stroke="black" fill="white"/>
<text dominant-baseline="central" text-anchor="middle" font-family="monospace" font-size="30" x="1184" y="320">S</text>
<rect x="1232" y="304" width="32" height="32" stroke="black" fill="white"/>
<text dominant-baseline="central" text-anchor="middle" font-family="monospace" font-size="30" x="1248" y="320">S</text>
<rect x="1296" y="304" width="32" height="32" stroke="black" fill="white"/>
<text dominant-baseline="central" text-anchor="middle" font-family="monospace" font-size="30" x="1312" y="320">H</text>
<rect x="1360" y="304" width="32" height="32" stroke="black" fill="white"/>
<text dominant-baseline="central" text-anchor="middle" font-family="monospace" font-size="30" x="1376" y="320">S</text>
<rect x="1360" y="368" width="32" height="32" stroke="black" fill="white"/>
<text dominant-baseline="central" text-anchor="middle" font-family="monospace" font-size="30" x="1376" y="384">S</text>
<rect x="1424" y="368" width="32" height="32" stroke="black" fill="white"/>
<text dominant-baseline="central" text-anchor="middle" font-family="monospace" font-size="30" x="1440" y="384">S</text>
<rect x="1488" y="368" width="32" height="32" stroke="black" fill="white"/>
<text dominant-baseline="central" text-anchor="middle" font-family="monospace" font-size="30" x="1504" y="384">S</text>
<rect x="1552" y="368" width="32" height="32" stroke="black" fill="white"/>
<text dominant-baseline="central" text-anchor="middle" font-family="monospace" font-size="30" x="1568" y="384">H</text>
<rect x="1616" y="368" width="32" height="32" stroke="black" fill="white"/>
<text dominant-baseline="central" text-anchor="middle" font-family="monospace" font-size="30" x="1632" y="384">S</text>
<path d="M1632,64 L1632,128 " stroke="black"/>
<circle cx="1632" cy="64" r="12" stroke="none" fill="black"/>
<circle cx="1632" cy="128" r="12" stroke="black" fill="white"/>
<path d="M1620,128 L1644,128 M1632,116 L1632,140 " stroke="black"/>
<path d="M1696,64 L1696,192 " stroke="black"/>
<circle cx="1696" cy="64" r="12" stroke="none" fill="black"/>
<circle cx="1696" cy="192" r="12" stroke="black" fill="white"/>
<path d="M1684,192 L1708,192 M1696,180 L1696,204 " stroke="black"/>
<path d="M1696,256 L1696,320 " stroke="black"/>
<circle cx="1696" cy="256" r="12" stroke="none" fill="black"/>
<circle cx="1696" cy="320" r="12" stroke="black" fill="white"/>
<path d="M1684,320 L1708,320 M1696,308 L1696,332 " stroke="black"/>
<path d="M1760,256 L1760,384 " stroke="black"/>
<circle cx="1760" cy="256" r="12" stroke="none" fill="black"/>
<circle cx="1760" cy="384" r="12" stroke="black" fill="white"/>
<path d="M1748,384 L1772,384 M1760,372 L1760,396 " stroke="black"/>
<path d="M1824,320 L1824,448 " stroke="black"/>
<circle cx="1824" cy="448" r="12" stroke="none" fill="black"/>
<circle cx="1824" cy="320" r="12" stroke="black" fill="white"/>
<path d="M1812,320 L1836,320 M1824,308 L1824,332 " stroke="black"/>
<path d="M1824,64 L1824,256 " stroke="black"/>
<circle cx="1824" cy="64" r="12" stroke="none" fill="black"/>
<circle cx="1824" cy="256" r="12" stroke="black" fill="white"/>
<path d="M1812,256 L1836,256 M1824,244 L1824,268 " stroke="black"/>
<path d="M1888,128 L1888,192 " stroke="black"/>
<circle cx="1888" cy="128" r="12" stroke="none" fill="black"/>
<circle cx="1888" cy="192" r="12" stroke="black" fill="white"/>
<path d="M1876,192 L1900,192 M1888,180 L1888,204 " stroke="black"/>
<path d="M1888,320 L1888,384 " stroke="black"/>
<circle cx="1888" cy="320" r="12" stroke="none" fill="black"/>
<circle cx="1888" cy="384" r="12" stroke="black" fill="white"/>
<path d="M1876,384 L1900,384 M1888,372 L1888,396 " stroke="black"/>
<path d="M1952,384 L1952,448 " stroke="black"/>
<circle cx="1952" cy="448" r="12" stroke="none" fill="black"/>
<circle cx="1952" cy="384" r="12" stroke="black" fill="white"/>
<path d="M1940,384 L1964,384 M1952,372 L1952,396 " stroke="black"/>
<rect x="1936" y="112" width="32" height="32" stroke="black" fill="white"/>
<text dominant-baseline="central" text-anchor="middle" font-family="monospace" font-size="30" x="1952" y="128">S</text>
<rect x="2000" y="112" width="32" height="32" stroke="black" fill="white"/>
<text dominant-baseline="central" text-anchor="middle" font-family="monospace" font-size="30" x="2016" y="128">H</text>
<rect x="2064" y="112" width="32" height="32" stroke="black" fill="white"/>
<text dominant-baseline="central" text-anchor="middle" font-family="monospace" font-size="30" x="2080" y="128">S</text>
<rect x="2128" y="112" width="32" height="32" stroke="black" fill="white"/>
<text dominant-baseline="central" text-anchor="middle" font-family="monospace" font-size="30" x="2144" y="128">S</text>
<rect x="2192" y="112" width="32" height="32" stroke="black" fill="white"/>
<text dominant-baseline="central" text-anchor="middle" font-family="monospace" font-size="30" x="2208" y="128">S</text>
<rect x="2192" y="176" width="32" height="32" stroke="black" fill="white"/>
<text dominant-baseline="central" text-anchor="middle" font-family="monospace" font-size="30" x="2208" y="192">S</text>
<rect x="2256" y="176" width="32" height="32" stroke="black" fill="white"/>
<text dominant-baseline="central" text-anchor="middle" font-family="monospace" font-size="30" x="2272" y="192">H</text>
<rect x="2320" y="176" width="32" height="32" stroke="black" fill="white"/>
<text dominant-baseline="central" text-anchor="middle" font-family="monospace" font-size="30" x="2336" y="192">S</text>
<rect x="2384" y="176" width="32" height="32" stroke="black" fill="white"/>
<text dominant-baseline="central" text-anchor="middle" font-family="monospace" font-size="30" x="2400" y="192">S</text>
<rect x="2448" y="176" width="32" height="32" stroke="black" fill="white"/>
<text dominant-baseline="central" text-anchor="middle" font-family="monospace" font-size="30" x="2464" y="192">S</text>
<rect x="2448" y="240" width="32" height="32" stroke="black" fill="white"/>
<text dominant-baseline="central" text-anchor="middle" font-family="monospace" font-size="30" x="2464" y="256">S</text>
<rect x="2512" y="240" width="32" height="32" stroke="black" fill="white"/>
<text dominant-baseline="central" text-anchor="middle" font-family="monospace" font-size="30" x="2528" y="256">H</text>
<rect x="2576" y="240" width="32" height="32" stroke="black" fill="white"/>
<text dominant-baseline="central" text-anchor="middle" font-family="monospace" font-size="30" x="2592" y="256">S</text>
<rect x="2640" y="240" width="32" height="32" stroke="black" fill="white"/>
<text dominant-baseline="central" text-anchor="middle" font-family="monospace" font-size="30" x="2656" y="256">S</text>
<rect x="2704" y="240" width="32" height="32" stroke="black" fill="white"/>
<text dominant-baseline="central" text-anchor="middle" font-family="monospace" font-size="30" x="2720" y="256">S</text>
<rect x="2704" y="304" width="32" height="32" stroke="black" fill="white"/>
<text dominant-baseline="central" text-anchor="middle" font-family="monospace" font-size="30" x="2720" y="320">S</text>
<rect x="2768" y="304" width="32" height="32" stroke="black" fill="white"/>
<text dominant-baseline="central" text-anchor="middle" font-family="monospace" font-size="30" x="2784" y="320">H</text>
<rect x="2832" y="304" width="32" height="32" stroke="black" fill="white"/>
<text dominant-baseline="central" text-anchor="middle" font-family="monospace" font-size="30" x="2848" y="320">S</text>
<rect x="2896" y="304" width="32" height="32" stroke="black" fill="white"/>
<text dominant-baseline="central" text-anchor="middle" font-family="monospace" font-size="30" x="2912" y="320">S</text>
<rect x="2960" y="304" width="32" height="32" stroke="black" fill="white"/>
<text dominant-baseline="central" text-anchor="middle" font-family="monospace" font-size="30" x="2976" y="320">S</text>
<rect x="2960" y="368" width="32" height="32" stroke="black" fill="white"/>
<text dominant-baseline="central" text-anchor="middle" font-family="monospace" font-size="30" x="2976" y="384">S</text>
<rect x="3024" y="368" width="32" height="32" stroke="black" fill="white"/>
<text dominant-baseline="central" text-anchor="middle" font-family="monospace" font-size="30" x="3040" y="384">H</text>
<rect x="3088" y="368" width="32" height="32" stroke="black" fill="white"/>
<text dominant-baseline="central" text-anchor="middle" font-family="monospace" font-size="30" x="3104" y="384">S</text>
<rect x="3152" y="368" width="32" height="32" stroke="black" fill="white"/>
<text dominant-baseline="central" text-anchor="middle" font-family="monospace" font-size="30" x="3168" y="384">S</text>
<rect x="3216" y="368" width="32" height="32" stroke="black" fill="white"/>
<text dominant-baseline="central" text-anchor="middle" font-family="monospace" font-size="30" x="3232" y="384">S</text>
<rect x="3216" y="432" width="32" height="32" stroke="black" fill="white"/>
<text dominant-baseline="central" text-anchor="middle" font-family="monospace" font-size="30" x="3232" y="448">S</text>
<rect x="3280" y="432" width="32" height="32" stroke="black" fill="white"/>
<text dominant-baseline="central" text-anchor="middle" font-family="monospace" font-size="30" x="3296" y="448">H</text>
<rect x="3344" y="432" width="32" height="32" stroke="black" fill="white"/>
<text dominant-baseline="central" text-anchor="middle" font-family="monospace" font-size="30" x="3360" y="448">S</text>
<rect x="3408" y="432" width="32" height="32" stroke="black" fill="white"/>
<text dominant-baseline="central" text-anchor="middle" font-family="monospace" font-size="30" x="3424" y="448">S</text>
<rect x="3472" y="432" width="32" height="32" stroke="black" fill="white"/>
<text dominant-baseline="central" text-anchor="middle" font-family="monospace" font-size="30" x="3488" y="448">S</text>
<path d="M3488,64 L3488,128 " stroke="black"/>
<circle cx="3488" cy="64" r="12" stroke="none" fill="black"/>
<circle cx="3488" cy="128" r="12" stroke="black" fill="white"/>
<path d="M3476,128 L3500,128 M3488,116 L3488,140 " stroke="black"/>
<path d="M3488,192 L3488,256 " stroke="black"/>
<circle cx="3488" cy="192" r="12" stroke="none" fill="black"/>
<circle cx="3488" cy="256" r="12" stroke="black" fill="white"/>
<path d="M3476,256 L3500,256 M3488,244 L3488,268 " stroke="black"/>
<path d="M3488,320 L3488,384 " stroke="black"/>
<circle cx="3488" cy="320" r="12" stroke="none" fill="black"/>
<circle cx="3488" cy="384" r="12" stroke="black" fill="white"/>
<path d="M3476,384 L3500,384 M3488,372 L3488,396 " stroke="black"/>
<path d="M3552,256 L3552,448 " stroke="black"/>
<circle cx="3552" cy="448" r="12" stroke="none" fill="black"/>
<circle cx="3552" cy="256" r="12" stroke="black" fill="white"/>
<path d="M3540,256 L3564,256 M3552,244 L3552,268 " stroke="black"/>
<rect x="3536" y="176" width="32" height="32" stroke="black" fill="white"/>
<text dominant-baseline="central" text-anchor="middle" font-family="monospace" font-size="30" x="3552" y="192">S</text>
<rect x="3600" y="176" width="32" height="32" stroke="black" fill="white"/>
<text dominant-baseline="central" text-anchor="middle" font-family="monospace" font-size="30" x="3616" y="192">H</text>
<rect x="3664" y="176" width="32" height="32" stroke="black" fill="white"/>
<text dominant-baseline="central" text-anchor="middle" font-family="monospace" font-size="30" x="3680" y="192">S</text>
<rect x="3728" y="176" width="32" height="32" stroke="black" fill="white"/>
<text dominant-baseline="central" text-anchor="middle" font-family="monospace" font-size="30" x="3744" y="192">S</text>
<rect x="3792" y="176" width="32" height="32" stroke="black" fill="white"/>
<text dominant-baseline="central" text-anchor="middle" font-family="monospace" font-size="30" x="3808" y="192">S</text>
<rect x="3792" y="304" width="32" height="32" stroke="black" fill="white"/>
<text dominant-baseline="central" text-anchor="middle" font-family="monospace" font-size="30" x="3808" y="320">S</text>
<rect x="3856" y="304" width="32" height="32" stroke="black" fill="white"/>
<text dominant-baseline="central" text-anchor="middle" font-family="monospace" font-size="30" x="3872" y="320">H</text>
<rect x="3920" y="304" width="32" height="32" stroke="black" fill="white"/>
<text dominant-baseline="central" text-anchor="middle" font-family="monospace" font-size="30" x="3936" y="320">S</text>
<rect x="3984" y="304" width="32" height="32" stroke="black" fill="white"/>
<text dominant-baseline="central" text-anchor="middle" font-family="monospace" font-size="30" x="4000" y="320">S</text>
<rect x="4048" y="304" width="32" height="32" stroke="black" fill="white"/>
<text dominant-baseline="central" text-anchor="middle" font-family="monospace" font-size="30" x="4064" y="320">S</text>
<rect x="4048" y="368" width="32" height="32" stroke="black" fill="white"/>
<text dominant-baseline="central" text-anchor="middle" font-family="monospace" font-size="30" x="4064" y="384">S</text>
<rect x="4112" y="368" width="32" height="32" stroke="black" fill="white"/>
<text dominant-baseline="central" text-anchor="middle" font-family="monospace" font-size="30" x="4128" y="384">H</text>
<rect x="4176" y="368" width="32" height="32" stroke="black" fill="white"/>
<text dominant-baseline="central" text-anchor="middle" font-family="monospace" font-size="30" x="4192" y="384">S</text>
<rect x="4240" y="368" width="32" height="32" stroke="black" fill="white"/>
<text dominant-baseline="central" text-anchor="middle" font-family="monospace" font-size="30" x="4256" y="384">S</text>
<rect x="4304" y="368" width="32" height="32" stroke="black" fill="white"/>
<text dominant-baseline="central" text-anchor="middle" font-family="monospace" font-size="30" x="4320" y="384">S</text>
<rect x="4304" y="432" width="32" height="32" stroke="black" fill="white"/>
<text dominant-baseline="central" text-anchor="middle" font-family="monospace" font-size="30" x="4320" y="448">S</text>
<rect x="4368" y="432" width="32" height="32" stroke="black" fill="white"/>
<text dominant-baseline="central" text-anchor="middle" font-family="monospace" font-size="30" x="4384" y="448">H</text>
<rect x="4432" y="432" width="32" height="32" stroke="black" fill="white"/>
<text dominant-baseline="central" text-anchor="middle" font-family="monospace" font-size="30" x="4448" y="448">S</text>
<rect x="4496" y="432" width="32" height="32" stroke="black" fill="white"/>
<text dominant-baseline="central" text-anchor="middle" font-family="monospace" font-size="30" x="4512" y="448">S</text>
<rect x="4560" y="432" width="32" height="32" stroke="black" fill="white"/>
<text dominant-baseline="central" text-anchor="middle" font-family="monospace" font-size="30" x="4576" y="448">S</text>
<rect x="4560" y="48" width="32" height="32" stroke="black" fill="black"/>
<text dominant-baseline="central" text-anchor="middle" font-family="monospace" font-size="30" x="4576" y="64" fill="white">M</text>
<text dominant-baseline="hanging" text-anchor="middle" font-family="monospace" font-size="10" stroke="red" x="4576" y="84">0</text>
<text text-anchor="middle" font-family="monospace" font-size="8" x="4576" y="44">rec[0]</text>
<rect x="4560" y="112" width="32" height="32" stroke="black" fill="black"/>
<text dominant-baseline="central" text-anchor="middle" font-family="monospace" font-size="30" x="4576" y="128" fill="white">M</text>
<text dominant-baseline="hanging" text-anchor="middle" font-family="monospace" font-size="10" stroke="red" x="4576" y="148">0</text>
<text text-anchor="middle" font-family="monospace" font-size="8" x="4576" y="108">rec[1]</text>
<rect x="4560" y="176" width="32" height="32" stroke="black" fill="black"/>
<text dominant-baseline="central" text-anchor="middle" font-family="monospace" font-size="30" x="4576" y="192" fill="white">M</text>
<text dominant-baseline="hanging" text-anchor="middle" font-family="monospace" font-size="10" stroke="red" x="4576" y="212">0</text>
<text text-anchor="middle" font-family="monospace" font-size="8" x="4576" y="172">rec[2]</text>
<rect x="4560" y="240" width="32" height="32" stroke="black" fill="black"/>
<text dominant-baseline="central" text-anchor="middle" font-family="monospace" font-size="30" x="4576" y="256" fill="white">M</text>
<text dominant-baseline="hanging" text-anchor="middle" font-family="monospace" font-size="10" stroke="red" x="4576" y="276">0</text>
<text text-anchor="middle" font-family="monospace" font-size="8" x="4576" y="236">rec[3]</text>
<rect x="4560" y="304" width="32" height="32" stroke="black" fill="black"/>
<text dominant-baseline="central" text-anchor="middle" font-family="monospace" font-size="30" x="4576" y="320" fill="white">M</text>
<text dominant-baseline="hanging" text-anchor="middle" font-family="monospace" font-size="10" stroke="red" x="4576" y="340">0</text>
<text text-anchor="middle" font-family="monospace" font-size="8" x="4576" y="300">rec[4]</text>
<rect x="4560" y="368" width="32" height="32" stroke="black" fill="black"/>
<text dominant-baseline="central" text-anchor="middle" font-family="monospace" font-size="30" x="4576" y="384" fill="white">M</text>
<text dominant-baseline="hanging" text-anchor="middle" font-family="monospace" font-size="10" stroke="red" x="4576" y="404">0</text>
<text text-anchor="middle" font-family="monospace" font-size="8" x="4576" y="364">rec[5]</text>
<rect x="4624" y="432" width="32" height="32" stroke="black" fill="black"/>
<text dominant-baseline="central" text-anchor="middle" font-family="monospace" font-size="30" x="4640" y="448" fill="white">M</text>
<text dominant-baseline="hanging" text-anchor="middle" font-family="monospace" font-size="10" stroke="red" x="4640" y="468">0</text>
<text text-anchor="middle" font-family="monospace" font-size="8" x="4640" y="428">rec[6]</text>
</svg>