<svg xmlns="http://www.w3.org/2000/svg" viewBox="0 0 1684 992" version="1.1">
<g id="qubit_lines">
<path id="qubit_line:0" d="M64,64 L2432,64 " stroke="black"/>
<text dominant-baseline="central" text-anchor="end" font-family="monospace" font-size="12" x="64" y="64">q0</text>
<path id="qubit_line:1" d="M64,128 L2432,128 " stroke="black"/>
<text dominant-baseline="central" text-anchor="end" font-family="monospace" font-size="12" x="64" y="128">q1</text>
<path id="qubit_line:2" d="M64,192 L2432,192 " stroke="black"/>
<text dominant-baseline="central" text-anchor="end" font-family="monospace" font-size="12" x="64" y="192">q2</text>
<path id="qubit_line:3" d="M64,256 L2432,256 " stroke="black"/>
<text dominant-baseline="central" text-anchor="end" font-family="monospace" font-size="12" x="64" y="256">q3</text>
<path id="qubit_line:4" d="M64,320 L2432,320 " stroke="black"/>
<text dominant-baseline="central" text-anchor="end" font-family="monospace" font-size="12" x="64" y="320">q4</text>
<path id="qubit_line:5" d="M64,384 L2432,384 " stroke="black"/>
<text dominant-baseline="central" text-anchor="end" font-family="monospace" font-size="12" x="64" y="384">q5</text>
<path id="qubit_line:6" d="M64,448 L2432,448 " stroke="black"/>
<text dominant-baseline="central" text-anchor="end" font-family="monospace" font-size="12" x="64" y="448">q6</text>
<path id="qubit_line:7" d="M64,512 L2432,512 " stroke="black"/>
<text dominant-baseline="central" text-anchor="end" font-family="monospace" font-size="12" x="64" y="512">q7</text>
<path id="qubit_line:8" d="M64,576 L2432,576 " stroke="black"/>
<text dominant-baseline="central" text-anchor="end" font-family="monospace" font-size="12" x="64" y="576">q8</text>
<path id="qubit_line:9" d="M64,640 L2432,640 " stroke="black"/>
<text dominant-baseline="central" text-anchor="end" font-family="monospace" font-size="12" x="64" y="640">q9</text>
<path id="qubit_line:10" d="M64,704 L2432,704 " stroke="black"/>
<text dominant-baseline="central" text-anchor="end" font-family="monospace" font-size="12" x="64" y="704">q10</text>
<path id="qubit_line:11" d="M64,768 L2432,768 " stroke="black"/>
<text dominant-baseline="central" text-anchor="end" font-family="monospace" font-size="12" x="64" y="768">q11</text>
<path id="qubit_line:12" d="M64,832 L2432,832 " stroke="black"/>
<text dominant-baseline="central" text-anchor="end" font-family="monospace" font-size="12" x="64" y="832">q12</text>
<path id="qubit_line:13" d="M64,896 L2432,896 " stroke="black"/>
<text dominant-baseline="central" text-anchor="end" font-family="monospace" font-size="12" x="64" y="896">q13</text>
<path id="qubit_line:14" d="M64,960 L2432,960 " stroke="black"/>
<text dominant-baseline="central" text-anchor="end" font-family="monospace" font-size="12" x="64" y="960">q14</text>
<path id="qubit_line:15" d="M64,1024 L2432,1024 " stroke="black"/>
<text dominant-baseline="central" text-anchor="end" font-family="monospace" font-size="12" x="64" y="1024">q15</text>
<path id="qubit_line:16" d="M64,1088 L2432,1088 " stroke="black"/>
<text dominant-baseline="central" text-anchor="end" font-family="monospace" font-size="12" x="64" y="1088">q16</text>
<path id="qubit_line:17" d="M64,1152 L2432,1152 " stroke="black"/>
<text dominant-baseline="central" text-anchor="end" font-family="monospace" font-size="12" x="64" y="1152">q17</text>
<path id="qubit_line:18" d="M64,1216 L2432,1216 " stroke="black"/>
<text dominant-baseline="central" text-anchor="end" font-family="monospace" font-size="12" x="64" y="1216">q18</text>
<path id="qubit_line:19" d="M64,1280 L2432,1280 " stroke="black"/>
<text dominant-baseline="central" text-anchor="end" font-family="monospace" font-size="12" x="64" y="1280">q19</text>
<path id="qubit_line:20" d="M64,1344 L2432,1344 " stroke="black"/>
<text dominant-baseline="central" text-anchor="end" font-family="monospace" font-size="12" x="64" y="1344">q20</text>
</g>
<rect x="80" y="880" width="32" height="32" stroke="black" fill="white"/>
<text dominant-baseline="central" text-anchor="middle" font-family="monospace" font-size="30" x="96" y="896">H</text>
<rect x="80" y="48" width="32" height="32" stroke="black" fill="white"/>
<text dominant-baseline="central" text-anchor="middle" font-family="monospace" font-size="18" x="96" y="64">√Y<tspan baseline-shift="super" font-size="14">†</tspan></text>
<rect x="80" y="112" width="32" height="32" stroke="black" fill="white"/>
<text dominant-baseline="central" text-anchor="middle" font-family="monospace" font-size="18" x="96" y="128">√Y<tspan baseline-shift="super" font-size="14">†</tspan></text>
<rect x="80" y="176" width="32" height="32" stroke="black" fill="white"/>
<text dominant-baseline="central" text-anchor="middle" font-family="monospace" font-size="18" x="96" y="192">√Y<tspan baseline-shift="super" font-size="14">†</tspan></text>
<rect x="80" y="240" width="32" height="32" stroke="black" fill="white"/>
<text dominant-baseline="central" text-anchor="middle" font-family="monospace" font-size="18" x="96" y="256">√Y<tspan baseline-shift="super" font-size="14">†</tspan></text>
<rect x="80" y="304" width="32" height="32" stroke="black" fill="white"/>
<text dominant-baseline="central" text-anchor="middle" font-family="monospace" font-size="18" x="96" y="320">√Y<tspan baseline-shift="super" font-size="14">†</tspan></text>
<rect x="80" y="368" width="32" height="32" stroke="black" fill="white"/>
<text dominant-baseline="central" text-anchor="middle" font-family="monospace" font-size="18" x="96" y="384">√Y<tspan baseline-shift="super" font-size="14">†</tspan></text>
<path d="M160,128 L160,192 " stroke="black"/>
<circle cx="160" cy="128" r="12" stroke="none" fill="black"/>
<circle cx="160" cy="192" r="12" stroke="none" fill="black"/>
<path d="M160,256 L160,320 " stroke="black"/>
<circle cx="160" cy="256" r="12" stroke="none" fill="black"/>
<circle cx="160" cy="320" r="12" stroke="none" fill="black"/>
<path d="M160,384 L160,448 " stroke="black"/>
<circle cx="160" cy="384" r="12" stroke="none" fill="black"/>
<circle cx="160" cy="448" r="12" stroke="none" fill="black"/>
<rect x="208" y="432" width="32" height="32" stroke="black" fill="white"/>
<text dominant-baseline="central" text-anchor="middle" font-family="monospace" font-size="24" x="224" y="448">√Y</text>
<path d="M224,64 L224,256 " stroke="black"/>
<circle cx="224" cy="64" r="12" stroke="none" fill="black"/>
<circle cx="224" cy="256" r="12" stroke="none" fill="black"/>
<path d="M288,192 L288,384 " stroke="black"/>
<circle cx="288" cy="192" r="12" stroke="none" fill="black"/>
<circle cx="288" cy="384" r="12" stroke="none" fill="black"/>
<path d="M352,320 L352,448 " stroke="black"/>
<circle cx="352" cy="320" r="12" stroke="none" fill="black"/>
<circle cx="352" cy="448" r="12" stroke="none" fill="black"/>
<rect x="336" y="176" width="32" height="32" stroke="black" fill="white"/>
<text dominant-baseline="central" text-anchor="middle" font-family="monospace" font-size="24" x="352" y="192">√Y</text>
<rect x="336" y="240" width="32" height="32" stroke="black" fill="white"/>
<text dominant-baseline="central" text-anchor="middle" font-family="monospace" font-size="24" x="352" y="256">√Y</text>
<rect x="400" y="304" width="32" height="32" stroke="black" fill="white"/>
<text dominant-baseline="central" text-anchor="middle" font-family="monospace" font-size="24" x="416" y="320">√Y</text>
<rect x="400" y="368" width="32" height="32" stroke="black" fill="white"/>
<text dominant-baseline="central" text-anchor="middle" font-family="monospace" font-size="24" x="416" y="384">√Y</text>
<rect x="400" y="432" width="32" height="32" stroke="black" fill="white"/>
<text dominant-baseline="central" text-anchor="middle" font-family="monospace" font-size="24" x="416" y="448">√Y</text>
<path d="M416,64 L416,128 " stroke="black"/>
<circle cx="416" cy="64" r="12" stroke="none" fill="black"/>
<circle cx="416" cy="128" r="12" stroke="none" fill="black"/>
<path d="M416,192 L416,256 " stroke="black"/>
<circle cx="416" cy="192" r="12" stroke="none" fill="black"/>
<circle cx="416" cy="256" r="12" stroke="none" fill="black"/>
<path d="M480,320 L480,384 " stroke="black"/>
<circle cx="480" cy="320" r="12" stroke="none" fill="black"/>
<circle cx="480" cy="384" r="12" stroke="none" fill="black"/>
<rect x="464" y="112" width="32" height="32" stroke="black" fill="white"/>
<text dominant-baseline="central" text-anchor="middle" font-family="monospace" font-size="24" x="480" y="128">√Y</text>
<rect x="464" y="176" width="32" height="32" stroke="black" fill="white"/>
<text dominant-baseline="central" text-anchor="middle" font-family="monospace" font-size="24" x="480" y="192">√Y</text>
<rect x="528" y="304" width="32" height="32" stroke="black" fill="white"/>
<text dominant-baseline="central" text-anchor="middle" font-family="monospace" font-size="24" x="544" y="320">√Y</text>
<rect x="528" y="496" width="32" height="32" stroke="black" fill="white"/>
<text dominant-baseline="central" text-anchor="middle" font-family="monospace" font-size="18" x="544" y="512">√Y<tspan baseline-shift="super" font-size="14">†</tspan></text>
<rect x="528" y="560" width="32" height="32" stroke="black" fill="white"/>
<text dominant-baseline="central" text-anchor="middle" font-family="monospace" font-size="18" x="544" y="576">√Y<tspan baseline-shift="super" font-size="14">†</tspan></text>
<rect x="528" y="624" width="32" height="32" stroke="black" fill="white"/>
<text dominant-baseline="central" text-anchor="middle" font-family="monospace" font-size="18" x="544" y="640">√Y<tspan baseline-shift="super" font-size="14">†</tspan></text>
<rect x="528" y="688" width="32" height="32" stroke="black" fill="white"/>
<text dominant-baseline="central" text-anchor="middle" font-family="monospace" font-size="18" x="544" y="704">√Y<tspan baseline-shift="super" font-size="14">†</tspan></text>
<rect x="528" y="752" width="32" height="32" stroke="black" fill="white"/>
<text dominant-baseline="central" text-anchor="middle" font-family="monospace" font-size="18" x="544" y="768">√Y<tspan baseline-shift="super" font-size="14">†</tspan></text>
<rect x="528" y="816" width="32" height="32" stroke="black" fill="white"/>
<text dominant-baseline="central" text-anchor="middle" font-family="monospace" font-size="18" x="544" y="832">√Y<tspan baseline-shift="super" font-size="14">†</tspan></text>
<path d="M608,576 L608,640 " stroke="black"/>
<circle cx="608" cy="576" r="12" stroke="none" fill="black"/>
<circle cx="608" cy="640" r="12" stroke="none" fill="black"/>
<path d="M608,704 L608,768 " stroke="black"/>
<circle cx="608" cy="704" r="12" stroke="none" fill="black"/>
<circle cx="608" cy="768" r="12" stroke="none" fill="black"/>
<path d="M608,832 L608,896 " stroke="black"/>
<circle cx="608" cy="832" r="12" stroke="none" fill="black"/>
<circle cx="608" cy="896" r="12" stroke="none" fill="black"/>
<rect x="656" y="880" width="32" height="32" stroke="black" fill="white"/>
<text dominant-baseline="central" text-anchor="middle" font-family="monospace" font-size="24" x="672" y="896">√Y</text>
<path d="M672,512 L672,704 " stroke="black"/>
<circle cx="672" cy="512" r="12" stroke="none" fill="black"/>
<circle cx="672" cy="704" r="12" stroke="none" fill="black"/>
<path d="M736,640 L736,832 " stroke="black"/>
<circle cx="736" cy="640" r="12" stroke="none" fill="black"/>
<circle cx="736" cy="832" r="12" stroke="none" fill="black"/>
<path d="M800,768 L800,896 " stroke="black"/>
<circle cx="800" cy="768" r="12" stroke="none" fill="black"/>
<circle cx="800" cy="896" r="12" stroke="none" fill="black"/>
<rect x="784" y="624" width="32" height="32" stroke="black" fill="white"/>
<text dominant-baseline="central" text-anchor="middle" font-family="monospace" font-size="24" x="800" y="640">√Y</text>
<rect x="784" y="688" width="32" height="32" stroke="black" fill="white"/>
<text dominant-baseline="central" text-anchor="middle" font-family="monospace" font-size="24" x="800" y="704">√Y</text>
<rect x="848" y="752" width="32" height="32" stroke="black" fill="white"/>
<text dominant-baseline="central" text-anchor="middle" font-family="monospace" font-size="24" x="864" y="768">√Y</text>
<rect x="848" y="816" width="32" height="32" stroke="black" fill="white"/>
<text dominant-baseline="central" text-anchor="middle" font-family="monospace" font-size="24" x="864" y="832">√Y</text>
<rect x="848" y="880" width="32" height="32" stroke="black" fill="white"/>
<text dominant-baseline="central" text-anchor="middle" font-family="monospace" font-size="24" x="864" y="896">√Y</text>
<path d="M864,512 L864,576 " stroke="black"/>
<circle cx="864" cy="512" r="12" stroke="none" fill="black"/>
<circle cx="864" cy="576" r="12" stroke="none" fill="black"/>
<path d="M864,640 L864,704 " stroke="black"/>
<circle cx="864" cy="640" r="12" stroke="none" fill="black"/>
<circle cx="864" cy="704" r="12" stroke="none" fill="black"/>
<path d="M928,768 L928,832 " stroke="black"/>
<circle cx="928" cy="768" r="12" stroke="none" fill="black"/>
<circle cx="928" cy="832" r="12" stroke="none" fill="black"/>
<rect x="912" y="560" width="32" height="32" stroke="black" fill="white"/>
<text dominant-baseline="central" text-anchor="middle" font-family="monospace" font-size="24" x="928" y="576">√Y</text>
<rect x="912" y="624" width="32" height="32" stroke="black" fill="white"/>
<text dominant-baseline="central" text-anchor="middle" font-family="monospace" font-size="24" x="928" y="640">√Y</text>
<rect x="976" y="752" width="32" height="32" stroke="black" fill="white"/>
<text dominant-baseline="central" text-anchor="middle" font-family="monospace" font-size="24" x="992" y="768">√Y</text>
<rect x="976" y="944" width="32" height="32" stroke="black" fill="white"/>
<text dominant-baseline="central" text-anchor="middle" font-family="monospace" font-size="18" x="992" y="960">√Y<tspan baseline-shift="super" font-size="14">†</tspan></text>
<rect x="976" y="1008" width="32" height="32" stroke="black" fill="white"/>
<text dominant-baseline="central" text-anchor="middle" font-family="monospace" font-size="18" x="992" y="1024">√Y<tspan baseline-shift="super" font-size="14">†</tspan></text>
<rect x="976" y="1072" width="32" height="32" stroke="black" fill="white"/>
<text dominant-baseline="central" text-anchor="middle" font-family="monospace" font-size="18" x="992" y="1088">√Y<tspan baseline-shift="super" font-size="14">†</tspan></text>
<rect x="976" y="1136" width="32" height="32" stroke="black" fill="white"/>
<text dominant-baseline="central" text-anchor="middle" font-family="monospace" font-size="18" x="992" y="1152">√Y<tspan baseline-shift="super" font-size="14">†</tspan></text>
<rect x="976" y="1200" width="32" height="32" stroke="black" fill="white"/>
<text dominant-baseline="central" text-anchor="middle" font-family="monospace" font-size="18" x="992" y="1216">√Y<tspan baseline-shift="super" font-size="14">†</tspan></text>
<rect x="976" y="1264" width="32" height="32" stroke="black" fill="white"/>
<text dominant-baseline="central" text-anchor="middle" font-family="monospace" font-size="18" x="992" y="1280">√Y<tspan baseline-shift="super" font-size="14">†</tspan></text>
<path d="M1056,1024 L1056,1088 " stroke="black"/>
<circle cx="1056" cy="1024" r="12" stroke="none" fill="black"/>
<circle cx="1056" cy="1088" r="12" stroke="none" fill="black"/>
<path d="M1056,1152 L1056,1216 " stroke="black"/>
<circle cx="1056" cy="1152" r="12" stroke="none" fill="black"/>
<circle cx="1056" cy="1216" r="12" stroke="none" fill="black"/>
<path d="M1056,1280 L1056,1344 " stroke="black"/>
<circle cx="1056" cy="1280" r="12" stroke="none" fill="black"/>
<circle cx="1056" cy="1344" r="12" stroke="none" fill="black"/>
<rect x="1104" y="1328" width="32" height="32" stroke="black" fill="white"/>
<text dominant-baseline="central" text-anchor="middle" font-family="monospace" font-size="24" x="1120" y="1344">√Y</text>
<path d="M1120,960 L1120,1152 " stroke="black"/>
<circle cx="1120" cy="960" r="12" stroke="none" fill="black"/>
<circle cx="1120" cy="1152" r="12" stroke="none" fill="black"/>
<path d="M1184,1088 L1184,1280 " stroke="black"/>
<circle cx="1184" cy="1088" r="12" stroke="none" fill="black"/>
<circle cx="1184" cy="1280" r="12" stroke="none" fill="black"/>
<path d="M1248,1216 L1248,1344 " stroke="black"/>
<circle cx="1248" cy="1216" r="12" stroke="none" fill="black"/>
<circle cx="1248" cy="1344" r="12" stroke="none" fill="black"/>
<rect x="1232" y="1072" width="32" height="32" stroke="black" fill="white"/>
<text dominant-baseline="central" text-anchor="middle" font-family="monospace" font-size="24" x="1248" y="1088">√Y</text>
<rect x="1232" y="1136" width="32" height="32" stroke="black" fill="white"/>
<text dominant-baseline="central" text-anchor="middle" font-family="monospace" font-size="24" x="1248" y="1152">√Y</text>
<rect x="1296" y="1200" width="32" height="32" stroke="black" fill="white"/>
<text dominant-baseline="central" text-anchor="middle" font-family="monospace" font-size="24" x="1312" y="1216">√Y</text>
<rect x="1296" y="1264" width="32" height="32" stroke="black" fill="white"/>
<text dominant-baseline="central" text-anchor="middle" font-family="monospace" font-size="24" x="1312" y="1280">√Y</text>
<rect x="1296" y="1328" width="32" height="32" stroke="black" fill="white"/>
<text dominant-baseline="central" text-anchor="middle" font-family="monospace" font-size="24" x="1312" y="1344">√Y</text>
<path d="M1312,960 L1312,1024 " stroke="black"/>
<circle cx="1312" cy="960" r="12" stroke="none" fill="black"/>
<circle cx="1312" cy="1024" r="12" stroke="none" fill="black"/>
<path d="M1312,1088 L1312,1152 " stroke="black"/>
<circle cx="1312" cy="1088" r="12" stroke="none" fill="black"/>
<circle cx="1312" cy="1152" r="12" stroke="none" fill="black"/>
<path d="M1376,1216 L1376,1280 " stroke="black"/>
<circle cx="1376" cy="1216" r="12" stroke="none" fill="black"/>
<circle cx="1376" cy="1280" r="12" stroke="none" fill="black"/>
<rect x="1360" y="1008" width="32" height="32" stroke="black" fill="white"/>
<text dominant-baseline="central" text-anchor="middle" font-family="monospace" font-size="24" x="1376" y="1024">√Y</text>
<rect x="1360" y="1072" width="32" height="32" stroke="black" fill="white"/>
<text dominant-baseline="central" text-anchor="middle" font-family="monospace" font-size="24" x="1376" y="1088">√Y</text>
<rect x="1424" y="1200" width="32" height="32" stroke="black" fill="white"/>
<text dominant-baseline="central" text-anchor="middle" font-family="monospace" font-size="24" x="1440" y="1216">√Y</text>
<path d="M1440,64 L1440,512 " stroke="black"/>
<circle cx="1440" cy="64" r="12" stroke="none" fill="black"/>
<circle cx="1440" cy="512" r="12" stroke="black" fill="white"/>
<path d="M1428,512 L1452,512 M1440,500 L1440,524 " stroke="black"/>
<path d="M1504,128 L1504,576 " stroke="black"/>
<circle cx="1504" cy="128" r="12" stroke="none" fill="black"/>
<circle cx="1504" cy="576" r="12" stroke="black" fill="white"/>
<path d="M1492,576 L1516,576 M1504,564 L1504,588 " stroke="black"/>
<path d="M1568,192 L1568,640 " stroke="black"/>
<circle cx="1568" cy="192" r="12" stroke="none" fill="black"/>
<circle cx="1568" cy="640" r="12" stroke="black" fill="white"/>
<path d="M1556,640 L1580,640 M1568,628 L1568,652 " stroke="black"/>
<path d="M1632,256 L1632,704 " stroke="black"/>
<circle cx="1632" cy="256" r="12" stroke="none" fill="black"/>
<circle cx="1632" cy="704" r="12" stroke="black" fill="white"/>
<path d="M1620,704 L1644,704 M1632,692 L1632,716 " stroke="black"/>
<path d="M1696,320 L1696,768 " stroke="black"/>
<circle cx="1696" cy="320" r="12" stroke="none" fill="black"/>
<circle cx="1696" cy="768" r="12" stroke="black" fill="white"/>
<path d="M1684,768 L1708,768 M1696,756 L1696,780 " stroke="black"/>
<path d="M1760,384 L1760,832 " stroke="black"/>
<circle cx="1760" cy="384" r="12" stroke="none" fill="black"/>
<circle cx="1760" cy="832" r="12" stroke="black" fill="white"/>
<path d="M1748,832 L1772,832 M1760,820 L1760,844 " stroke="black"/>
<path d="M1824,448 L1824,896 " stroke="black"/>
<circle cx="1824" cy="448" r="12" stroke="none" fill="black"/>
<circle cx="1824" cy="896" r="12" stroke="black" fill="white"/>
<path d="M1812,896 L1836,896 M1824,884 L1824,908 " stroke="black"/>
<path d="M1888,64 L1888,960 " stroke="black"/>
<circle cx="1888" cy="64" r="12" stroke="none" fill="black"/>
<circle cx="1888" cy="960" r="12" stroke="black" fill="white"/>
<path d="M1876,960 L1900,960 M1888,948 L1888,972 " stroke="black"/>
<path d="M1952,128 L1952,1024 " stroke="black"/>
<circle cx="1952" cy="128" r="12" stroke="none" fill="black"/>
<circle cx="1952" cy="1024" r="12" stroke="black" fill="white"/>
<path d="M1940,1024 L1964,1024 M1952,1012 L1952,1036 " stroke="black"/>
<path d="M2016,192 L2016,1088 " stroke="black"/>
<circle cx="2016" cy="192" r="12" stroke="none" fill="black"/>
<circle cx="2016" cy="1088" r="12" stroke="black" fill="white"/>
<path d="M2004,1088 L2028,1088 M2016,1076 L2016,1100 " stroke="black"/>
<path d="M2080,256 L2080,1152 " stroke="black"/>
<circle cx="2080" cy="256" r="12" stroke="none" fill="black"/>
<circle cx="2080" cy="1152" r="12" stroke="black" fill="white"/>
<path d="M2068,1152 L2092,1152 M2080,1140 L2080,1164 " stroke="black"/>
<path d="M2144,320 L2144,1216 " stroke="black"/>
<circle cx="2144" cy="320" r="12" stroke="none" fill="black"/>
<circle cx="2144" cy="1216" r="12" stroke="black" fill="white"/>
<path d="M2132,1216 L2156,1216 M2144,1204 L2144,1228 " stroke="black"/>
<path d="M2208,384 L2208,1280 " stroke="black"/>
<circle cx="2208" cy="384" r="12" stroke="none" fill="black"/>
<circle cx="2208" cy="1280" r="12" stroke="black" fill="white"/>
<path d="M2196,1280 L2220,1280 M2208,1268 L2208,1292 " stroke="black"/>
<path d="M2272,448 L2272,1344 " stroke="black"/>
<circle cx="2272" cy="448" r="12" stroke="none" fill="black"/>
<circle cx="2272" cy="1344" r="12" stroke="black" fill="white"/>
<path d="M2260,1344 L2284,1344 M2272,1332 L2272,1356 " stroke="black"/>
<rect x="2320" y="944" width="32" height="32" stroke="black" fill="white"/>
<text dominant-baseline="central" text-anchor="middle" font-family="monospace" font-size="30" x="2336" y="960">X</text>
<rect x="2320" y="1008" width="32" height="32" stroke="black" fill="white"/>
<text dominant-baseline="central" text-anchor="middle" font-family="monospace" font-size="30" x="2336" y="1024">X</text>
<rect x="2320" y="1072" width="32" height="32" stroke="black" fill="white"/>
<text dominant-baseline="central" text-anchor="middle" font-family="monospace" font-size="30" x="2336" y="1088">X</text>
<rect x="2320" y="1136" width="32" height="32" stroke="black" fill="white"/>
<text dominant-baseline="central" text-anchor="middle" font-family="monospace" font-size="30" x="2336" y="1152">X</text>
<rect x="2320" y="1200" width="32" height="32" stroke="black" fill="white"/>
<text dominant-baseline="central" text-anchor="middle" font-family="monospace" font-size="30" x="2336" y="1216">X</text>
<rect x="2320" y="1264" width="32" height="32" stroke="black" fill="white"/>
<text dominant-baseline="central" text-anchor="middle" font-family="monospace" font-size="30" x="2336" y="1280">X</text>
<rect x="2320" y="1328" width="32" height="32" stroke="black" fill="white"/>
<text dominant-baseline="central" text-anchor="middle" font-family="monospace" font-size="30" x="2336" y="1344">X</text>
<rect x="2320" y="496" width="32" height="32" stroke="black" fill="black"/>
<text dominant-baseline="central" text-anchor="middle" font-family="monospace" font-size="30" x="2336" y="512" fill="white">M</text>
<text dominant-baseline="hanging" text-anchor="middle" font-family="monospace" font-size="10" stroke="red" x="2336" y="532">0</text>
<text text-anchor="middle" font-family="monospace" font-size="8" x="2336" y="492">rec[0]</text>
<rect x="2320" y="560" width="32" height="32" stroke="black" fill="black"/>
<text dominant-baseline="central" text-anchor="middle" font-family="monospace" font-size="30" x="2336" y="576" fill="white">M</text>
<text dominant-baseline="hanging" text-anchor="middle" font-family="monospace" font-size="10" stroke="red" x="2336" y="596">0</text>
<text text-anchor="middle" font-family="monospace" font-size="8" x="2336" y="556">rec[1]</text>
<rect x="2320" y="624" width="32" height="32" stroke="black" fill="black"/>
<text dominant-baseline="central" text-anchor="middle" font-family="monospace" font-size="30" x="2336" y="640" fill="white">M</text>
<text dominant-baseline="hanging" text-anchor="middle" font-family="monospace" font-size="10" stroke="red" x="2336" y="660">0</text>
<text text-anchor="middle" font-family="monospace" font-size="8" x="2336" y="620">rec[2]</text>
<rect x="2320" y="688" width="32" height="32" stroke="black" fill="black"/>
<text dominant-baseline="central" text-anchor="middle" font-family="monospace" font-size="30" x="2336" y="704" fill="white">M</text>
<text dominant-baseline="hanging" text-anchor="middle" font-family="monospace" font-size="10" stroke="red" x="2336" y="724">0</text>
<text text-anchor="middle" font-family="monospace" font-size="8" x="2336" y="684">rec[3]</text>
<rect x="2320" y="752" width="32" height="32" stroke="black" fill="black"/>
<text dominant-baseline="central" text-anchor="middle" font-family="monospace" font-size="30" x="2336" y="768" fill="white">M</text>
<text dominant-baseline="hanging" text-anchor="middle" font-family="monospace" font-size="10" stroke="red" x="2336" y="788">0</text>
<text text-anchor="middle" font-family="monospace" font-size="8" x="2336" y="748">rec[4]</text>
<rect x="2320" y="816" width="32" height="32" stroke="black" fill="black"/>
<text dominant-baseline="central" text-anchor="middle" font-family="monospace" font-size="30" x="2336" y="832" fill="white">M</text>
<text dominant-baseline="hanging" text-anchor="middle" font-family="monospace" font-size="10" stroke="red" x="2336" y="852">0</text>
<text text-anchor="middle" font-family="monospace" font-size="8" x="2336" y="812">rec[5]</text>
<rect x="2320" y="880" width="32" height="32" stroke="black" fill="black"/>
<text dominant-baseline="central" text-anchor="middle" font-family="monospace" font-size="30" x="2336" y="896" fill="white">M</text>
<text dominant-baseline="hanging" text-anchor="middle" font-family="monospace" font-size="10" stroke="red" x="2336" y="916">0</text>
<text text-anchor="middle" font-family="monospace" font-size="8" x="2336" y="876">rec[6]</text>
<rect x="2384" y="944" width="32" height="32" stroke="black" fill="black"/>
<text dominant-baseline="central" text-anchor="middle" font-family="monospace" font-size="30" x="2400" y="960" fill="white">M</text>
<text dominant-baseline="hanging" text-anchor="middle" font-family="monospace" font-size="10" stroke="red" x="2400" y="980">0</text>
<text text-anchor="middle" font-family="monospace" font-size="8" x="2400" y="940">rec[7]</text>
<rect x="2384" y="1008" width="32" height="32" stroke="black" fill="black"/>
<text dominant-baseline="central" text-anchor="middle" font-family="monospace" font-size="30" x="2400" y="1024" fill="white">M</text>
<text dominant-baseline="hanging" text-anchor="middle" font-family="monospace" font-size="10" stroke="red" x="2400" y="1044">0</text>
<text text-anchor="middle" font-family="monospace" font-size="8" x="2400" y="1004">rec[8]</text>
<rect x="2384" y="1072" width="32" height="32" stroke="black" fill="black"/>
<text dominant-baseline="central" text-anchor="middle" font-family="monospace" font-size="30" x="2400" y="1088" fill="white">M</text>
<text dominant-baseline="hanging" text-anchor="middle" font-family="monospace" font-size="10" stroke="red" x="2400" y="1108">0</text>
<text text-anchor="middle" font-family="monospace" font-size="8" x="2400" y="1068">rec[9]</text>
<rect x="2384" y="1136" width="32" height="32" stroke="black" fill="black"/>
<text dominant-baseline="central" text-anchor="middle" font-family="monospace" font-size="30" x="2400" y="1152" fill="white">M</text>
<text dominant-baseline="hanging" text-anchor="middle" font-family="monospace" font-size="10" stroke="red" x="2400" y="1172">0</text>
<text text-anchor="middle" font-family="monospace" font-size="8" x="2400" y="1132">rec[10]</text>
<rect x="2384" y="1200" width="32" height="32" stroke="black" fill="black"/>
<text dominant-baseline="central" text-anchor="middle" font-family="monospace" font-size="30" x="2400" y="1216" fill="white">M</text>
<text dominant-baseline="hanging" text-anchor="middle" font-family="monospace" font-size="10" stroke="red" x="2400" y="1236">0</text>
<text text-anchor="middle" font-family="monospace" font-size="8" x="2400" y="1196">rec[11]</text>
<rect x="2384" y="1264" width="32" height="32" stroke="black" fill="black"/>
<text dominant-baseline="central" text-anchor="middle" font-family="monospace" font-size="30" x="2400" y="1280" fill="white">M</text>
<text dominant-baseline="hanging" text-anchor="middle" font-family="monospace" font-size="10" stroke="red" x="2400" y="1300">0</text>
<text text-anchor="middle" font-family="monospace" font-size="8" x="2400" y="1260">rec[12]</text>
<rect x="2384" y="1328" width="32" height="32" stroke="black" fill="black"/>
<text dominant-baseline="central" text-anchor="middle" font-family="monospace" font-size="30" x="2400" y="1344" fill="white">M</text>
<text dominant-baseline="hanging" text-anchor="middle" font-family="monospace" font-size="10" stroke="red" x="2400" y="1364">0</text>
<text text-anchor="middle" font-family="monospace" font-size="8" x="2400" y="1324">rec[13]</text>
<g id="feedforward_gates"><rect x="1424" y="496" width="32" height="32" stroke="black" fill="white"/><text x="1440" y="512" text-anchor="middle" dominant-baseline="central" font-family="monospace" font-size="14">Mz</text><rect x="1424" y="560" width="32" height="32" stroke="black" fill="white"/><text x="1440" y="576" text-anchor="middle" dominant-baseline="central" font-family="monospace" font-size="14">Mz</text><rect x="1424" y="624" width="32" height="32" stroke="black" fill="white"/><text x="1440" y="640" text-anchor="middle" dominant-baseline="central" font-family="monospace" font-size="14">Mz</text><rect x="1424" y="688" width="32" height="32" stroke="black" fill="white"/><text x="1440" y="704" text-anchor="middle" dominant-baseline="central" font-family="monospace" font-size="14">Mz</text><rect x="1424" y="752" width="32" height="32" stroke="black" fill="white"/><text x="1440" y="768" text-anchor="middle" dominant-baseline="central" font-family="monospace" font-size="14">Mz</text><rect x="1424" y="816" width="32" height="32" stroke="black" fill="white"/><text x="1440" y="832" text-anchor="middle" dominant-baseline="central" font-family="monospace" font-size="14">Mz</text><rect x="1424" y="880" width="32" height="32" stroke="black" fill="white"/><text x="1440" y="896" text-anchor="middle" dominant-baseline="central" font-family="monospace" font-size="14">Mz</text><rect x="1488" y="48" width="40" height="32" stroke="black" fill="#f8f8f8"/><text x="1508" y="64" text-anchor="middle" dominant-baseline="central" font-family="monospace" font-size="12">X|rec</text><rect x="1488" y="112" width="40" height="32" stroke="black" fill="#f8f8f8"/><text x="1508" y="128" text-anchor="middle" dominant-baseline="central" font-family="monospace" font-size="12">X|rec</text><rect x="1488" y="176" width="40" height="32" stroke="black" fill="#f8f8f8"/><text x="1508" y="192" text-anchor="middle" dominant-baseline="central" font-family="monospace" font-size="12">X|rec</text><rect x="1488" y="240" width="40" height="32" stroke="black" fill="#f8f8f8"/><text x="1508" y="256" text-anchor="middle" dominant-baseline="central" font-family="monospace" font-size="12">X|rec</text><rect x="1488" y="304" width="40" height="32" stroke="black" fill="#f8f8f8"/><text x="1508" y="320" text-anchor="middle" dominant-baseline="central" font-family="monospace" font-size="12">X|rec</text><rect x="1488" y="368" width="40" height="32" stroke="black" fill="#f8f8f8"/><text x="1508" y="384" text-anchor="middle" dominant-baseline="central" font-family="monospace" font-size="12">X|rec</text><rect x="1488" y="432" width="40" height="32" stroke="black" fill="#f8f8f8"/><text x="1508" y="448" text-anchor="middle" dominant-baseline="central" font-family="monospace" font-size="12">X|rec</text><rect x="1552" y="48" width="32" height="32" stroke="black" fill="white"/><text x="1568" y="64" text-anchor="middle" dominant-baseline="central" font-family="monospace" font-size="18">M</text><rect x="1552" y="112" width="32" height="32" stroke="black" fill="white"/><text x="1568" y="128" text-anchor="middle" dominant-baseline="central" font-family="monospace" font-size="18">M</text><rect x="1552" y="176" width="32" height="32" stroke="black" fill="white"/><text x="1568" y="192" text-anchor="middle" dominant-baseline="central" font-family="monospace" font-size="18">M</text><rect x="1552" y="240" width="32" height="32" stroke="black" fill="white"/><text x="1568" y="256" text-anchor="middle" dominant-baseline="central" font-family="monospace" font-size="18">M</text><rect x="1552" y="304" width="32" height="32" stroke="black" fill="white"/><text x="1568" y="320" text-anchor="middle" dominant-baseline="central" font-family="monospace" font-size="18">M</text><rect x="1552" y="368" width="32" height="32" stroke="black" fill="white"/><text x="1568" y="384" text-anchor="middle" dominant-baseline="central" font-family="monospace" font-size="18">M</text><rect x="1552" y="432" width="32" height="32" stroke="black" fill="white"/><text x="1568" y="448" text-anchor="middle" dominant-baseline="central" font-family="monospace" font-size="18">M</text></g></svg>