<svg xmlns="http://www.w3.org/2000/svg" viewBox="0 0 1440 992" version="1.1">
<g id="qubit_lines">
<path id="qubit_line:0" d="M64,64 L1408,64 " stroke="black"/>
<text dominant-baseline="central" text-anchor="end" font-family="monospace" font-size="12" x="64" y="64">q0</text>
<path id="qubit_line:1" d="M64,128 L1408,128 " stroke="black"/>
<text dominant-baseline="central" text-anchor="end" font-family="monospace" font-size="12" x="64" y="128">q1</text>
<path id="qubit_line:2" d="M64,192 L1408,192 " stroke="black"/>
<text dominant-baseline="central" text-anchor="end" font-family="monospace" font-size="12" x="64" y="192">q2</text>
<path id="qubit_line:3" d="M64,256 L1408,256 " stroke="black"/>
<text dominant-baseline="central" text-anchor="end" font-family="monospace" font-size="12" x="64" y="256">q3</text>
<path id="qubit_line:4" d="M64,320 L1408,320 " stroke="black"/>
<text dominant-baseline="central" text-anchor="end" font-family="monospace" font-size="12" x="64" y="320">q4</text>
<path id="qubit_line:5" d="M64,384 L1408,384 " stroke="black"/>
<text dominant-baseline="central" text-anchor="end" font-family="monospace" font-size="12" x="64" y="384">q5</text>
<path id="qubit_line:6" d="M64,448 L1408,448 " stroke="black"/>
<text dominant-baseline="central" text-anchor="end" font-family="monospace" font-size="12" x="64" y="448">q6</text>
<path id="qubit_line:7" d="M64,512 L1408,512 " stroke="black"/>
<text dominant-baseline="central" text-anchor="end" font-family="monospace" font-size="12" x="64" y="512">q7</text>
<path id="qubit_line:8" d="M64,576 L1408,576 " stroke="black"/>
<text dominant-baseline="central" text-anchor="end" font-family="monospace" font-size="12" x="64" y="576">q8</text>
<path id="qubit_line:9" d="M64,640 L1408,640 " stroke="black"/>
<text dominant-baseline="central" text-anchor="end" font-family="monospace" font-size="12" x="64" y="640">q9</text>
<path id="qubit_line:10" d="M64,704 L1408,704 " stroke="black"/>
<text dominant-baseline="central" text-anchor="end" font-family="monospace" font-size="12" x="64" y="704">q10</text>
<path id="qubit_line:11" d="M64,768 L1408,768 " stroke="black"/>
<text dominant-baseline="central" text-anchor="end" font-family="monospace" font-size="12" x="64" y="768">q11</text>
<path id="qubit_line:12" d="M64,832 L1408,832 " stroke="black"/>
<text dominant-baseline="central" text-anchor="end" font-family="monospace" font-size="12" x="64" y="832">q12</text>
<path id="qubit_line:13" d="M64,896 L1408,896 " stroke="black"/>
<text dominant-baseline="central" text-anchor="end" font-family="monospace" font-size="12" x="64" y="896">q13</text>
</g>
<rect x="80" y="880" width="32" height="32" stroke="black" fill="white"/>
<text dominant-baseline="central" text-anchor="middle" font-family="monospace" font-size="30" x="96" y="896">H</text>
<rect x="80" y="48" width="32" height="32" stroke="black" fill="white"/>
<text dominant-baseline="central" text-anchor="middle" font-family="monospace" font-size="18" x="96" y="64">√Y<tspan baseline-shift="super" font-size="14">†</tspan></text>
<rect x="80" y="112" width="32" height="32" stroke="black" fill="white"/>
<text dominant-baseline="central" text-anchor="middle" font-family="monospace" font-size="18" x="96" y="128">√Y<tspan baseline-shift="super" font-size="14">†</tspan></text>
<rect x="80" y="176" width="32" height="32" stroke="black" fill="white"/>
<text dominant-baseline="central" text-anchor="middle" font-family="monospace" font-size="18" x="96" y="192">√Y<tspan baseline-shift="super" font-size="14">†</tspan></text>
<rect x="80" y="240" width="32" height="32" stroke="black" fill="white"/>
<text dominant-baseline="central" text-anchor="middle" font-family="monospace" font-size="18" x="96" y="256">√Y<tspan baseline-shift="super" font-size="14">†</tspan></text>
<rect x="80" y="304" width="32" height="32" stroke="black" fill="white"/>
<text dominant-baseline="central" text-anchor="middle" font-family="monospace" font-size="18" x="96" y="320">√Y<tspan baseline-shift="super" font-size="14">†</tspan></text>
<rect x="80" y="368" width="32" height="32" stroke="black" fill="white"/>
<text dominant-baseline="central" text-anchor="middle" font-family="monospace" font-size="18" x="96" y="384">√Y<tspan baseline-shift="super" font-size="14">†</tspan></text>
<path d="M160,128 L160,192 " stroke="black"/>
<circle cx="160" cy="128" r="12" stroke="none" fill="black"/>
<circle cx="160" cy="192" r="12" stroke="none" fill="black"/>
<path d="M160,256 L160,320 " stroke="black"/>
<circle cx="160" cy="256" r="12" stroke="none" fill="black"/>
<circle cx="160" cy="320" r="12" stroke="none" fill="black"/>
<path d="M160,384 L160,448 " stroke="black"/>
<circle cx="160" cy="384" r="12" stroke="none" fill="black"/>
<circle cx="160" cy="448" r="12" stroke="none" fill="black"/>
<rect x="208" y="432" width="32" height="32" stroke="black" fill="white"/>
<text dominant-baseline="central" text-anchor="middle" font-family="monospace" font-size="24" x="224" y="448">√Y</text>
<path d="M224,64 L224,256 " stroke="black"/>
<circle cx="224" cy="64" r="12" stroke="none" fill="black"/>
<circle cx="224" cy="256" r="12" stroke="none" fill="black"/>
<path d="M288,192 L288,384 " stroke="black"/>
<circle cx="288" cy="192" r="12" stroke="none" fill="black"/>
<circle cx="288" cy="384" r="12" stroke="none" fill="black"/>
<path d="M352,320 L352,448 " stroke="black"/>
<circle cx="352" cy="320" r="12" stroke="none" fill="black"/>
<circle cx="352" cy="448" r="12" stroke="none" fill="black"/>
<rect x="336" y="176" width="32" height="32" stroke="black" fill="white"/>
<text dominant-baseline="central" text-anchor="middle" font-family="monospace" font-size="24" x="352" y="192">√Y</text>
<rect x="336" y="240" width="32" height="32" stroke="black" fill="white"/>
<text dominant-baseline="central" text-anchor="middle" font-family="monospace" font-size="24" x="352" y="256">√Y</text>
<rect x="400" y="304" width="32" height="32" stroke="black" fill="white"/>
<text dominant-baseline="central" text-anchor="middle" font-family="monospace" font-size="24" x="416" y="320">√Y</text>
<rect x="400" y="368" width="32" height="32" stroke="black" fill="white"/>
<text dominant-baseline="central" text-anchor="middle" font-family="monospace" font-size="24" x="416" y="384">√Y</text>
<rect x="400" y="432" width="32" height="32" stroke="black" fill="white"/>
<text dominant-baseline="central" text-anchor="middle" font-family="monospace" font-size="24" x="416" y="448">√Y</text>
<path d="M416,64 L416,128 " stroke="black"/>
<circle cx="416" cy="64" r="12" stroke="none" fill="black"/>
<circle cx="416" cy="128" r="12" stroke="none" fill="black"/>
<path d="M416,192 L416,256 " stroke="black"/>
<circle cx="416" cy="192" r="12" stroke="none" fill="black"/>
<circle cx="416" cy="256" r="12" stroke="none" fill="black"/>
<path d="M480,320 L480,384 " stroke="black"/>
<circle cx="480" cy="320" r="12" stroke="none" fill="black"/>
<circle cx="480" cy="384" r="12" stroke="none" fill="black"/>
<rect x="464" y="112" width="32" height="32" stroke="black" fill="white"/>
<text dominant-baseline="central" text-anchor="middle" font-family="monospace" font-size="24" x="480" y="128">√Y</text>
<rect x="464" y="176" width="32" height="32" stroke="black" fill="white"/>
<text dominant-baseline="central" text-anchor="middle" font-family="monospace" font-size="24" x="480" y="192">√Y</text>
<rect x="528" y="304" width="32" height="32" stroke="black" fill="white"/>
<text dominant-baseline="central" text-anchor="middle" font-family="monospace" font-size="24" x="544" y="320">√Y</text>
<rect x="528" y="496" width="32" height="32" stroke="black" fill="white"/>
<text dominant-baseline="central" text-anchor="middle" font-family="monospace" font-size="18" x="544" y="512">√Y<tspan baseline-shift="super" font-size="14">†</tspan></text>
<rect x="528" y="560" width="32" height="32" stroke="black" fill="white"/>
<text dominant-baseline="central" text-anchor="middle" font-family="monospace" font-size="18" x="544" y="576">√Y<tspan baseline-shift="super" font-size="14">†</tspan></text>
<rect x="528" y="624" width="32" height="32" stroke="black" fill="white"/>
<text dominant-baseline="central" text-anchor="middle" font-family="monospace" font-size="18" x="544" y="640">√Y<tspan baseline-shift="super" font-size="14">†</tspan></text>
<rect x="528" y="688" width="32" height="32" stroke="black" fill="white"/>
<text dominant-baseline="central" text-anchor="middle" font-family="monospace" font-size="18" x="544" y="704">√Y<tspan baseline-shift="super" font-size="14">†</tspan></text>
<rect x="528" y="752" width="32" height="32" stroke="black" fill="white"/>
<text dominant-baseline="central" text-anchor="middle" font-family="monospace" font-size="18" x="544" y="768">√Y<tspan baseline-shift="super" font-size="14">†</tspan></text>
<rect x="528" y="816" width="32" height="32" stroke="black" fill="white"/>
<text dominant-baseline="central" text-anchor="middle" font-family="monospace" font-size="18" x="544" y="832">√Y<tspan baseline-shift="super" font-size="14">†</tspan></text>
<path d="M608,576 L608,640 " stroke="black"/>
<circle cx="608" cy="576" r="12" stroke="none" fill="black"/>
<circle cx="608" cy="640" r="12" stroke="none" fill="black"/>
<path d="M608,704 L608,768 " stroke="black"/>
<circle cx="608" cy="704" r="12" stroke="none" fill="black"/>
<circle cx="608" cy="768" r="12" stroke="none" fill="black"/>
<path d="M608,832 L608,896 " stroke="black"/>
<circle cx="608" cy="832" r="12" stroke="none" fill="black"/>
<circle cx="608" cy="896" r="12" stroke="none" fill="black"/>
<rect x="656" y="880" width="32" height="32" stroke="black" fill="white"/>
<text dominant-baseline="central" text-anchor="middle" font-family="monospace" font-size="24" x="672" y="896">√Y</text>
<path d="M672,512 L672,704 " stroke="black"/>
<circle cx="672" cy="512" r="12" stroke="none" fill="black"/>
<circle cx="672" cy="704" r="12" stroke="none" fill="black"/>
<path d="M736,640 L736,832 " stroke="black"/>
<circle cx="736" cy="640" r="12" stroke="none" fill="black"/>
<circle cx="736" cy="832" r="12" stroke="none" fill="black"/>
<path d="M800,768 L800,896 " stroke="black"/>
<circle cx="800" cy="768" r="12" stroke="none" fill="black"/>
<circle cx="800" cy="896" r="12" stroke="none" fill="black"/>
<rect x="784" y="624" width="32" height="32" stroke="black" fill="white"/>
<text dominant-baseline="central" text-anchor="middle" font-family="monospace" font-size="24" x="800" y="640">√Y</text>
<rect x="784" y="688" width="32" height="32" stroke="black" fill="white"/>
<text dominant-baseline="central" text-anchor="middle" font-family="monospace" font-size="24" x="800" y="704">√Y</text>
<rect x="848" y="752" width="32" height="32" stroke="black" fill="white"/>
<text dominant-baseline="central" text-anchor="middle" font-family="monospace" font-size="24" x="864" y="768">√Y</text>
<rect x="848" y="816" width="32" height="32" stroke="black" fill="white"/>
<text dominant-baseline="central" text-anchor="middle" font-family="monospace" font-size="24" x="864" y="832">√Y</text>
<rect x="848" y="880" width="32" height="32" stroke="black" fill="white"/>
<text dominant-baseline="central" text-anchor="middle" font-family="monospace" font-size="24" x="864" y="896">√Y</text>
<path d="M864,512 L864,576 " stroke="black"/>
<circle cx="864" cy="512" r="12" stroke="none" fill="black"/>
<circle cx="864" cy="576" r="12" stroke="none" fill="black"/>
<path d="M864,640 L864,704 " stroke="black"/>
<circle cx="864" cy="640" r="12" stroke="none" fill="black"/>
<circle cx="864" cy="704" r="12" stroke="none" fill="black"/>
<path d="M928,768 L928,832 " stroke="black"/>
<circle cx="928" cy="768" r="12" stroke="none" fill="black"/>
<circle cx="928" cy="832" r="12" stroke="none" fill="black"/>
<rect x="912" y="560" width="32" height="32" stroke="black" fill="white"/>
<text dominant-baseline="central" text-anchor="middle" font-family="monospace" font-size="24" x="928" y="576">√Y</text>
<rect x="912" y="624" width="32" height="32" stroke="black" fill="white"/>
<text dominant-baseline="central" text-anchor="middle" font-family="monospace" font-size="24" x="928" y="640">√Y</text>
<rect x="976" y="752" width="32" height="32" stroke="black" fill="white"/>
<text dominant-baseline="central" text-anchor="middle" font-family="monospace" font-size="24" x="992" y="768">√Y</text>
<path d="M992,64 L992,512 " stroke="black"/>
<circle cx="992" cy="64" r="12" stroke="none" fill="black"/>
<circle cx="992" cy="512" r="12" stroke="black" fill="white"/>
<path d="M980,512 L1004,512 M992,500 L992,524 " stroke="black"/>
<path d="M1056,128 L1056,576 " stroke="black"/>
<circle cx="1056" cy="128" r="12" stroke="none" fill="black"/>
<circle cx="1056" cy="576" r="12" stroke="black" fill="white"/>
<path d="M1044,576 L1068,576 M1056,564 L1056,588 " stroke="black"/>
<path d="M1120,192 L1120,640 " stroke="black"/>
<circle cx="1120" cy="192" r="12" stroke="none" fill="black"/>
<circle cx="1120" cy="640" r="12" stroke="black" fill="white"/>
<path d="M1108,640 L1132,640 M1120,628 L1120,652 " stroke="black"/>
<path d="M1184,256 L1184,704 " stroke="black"/>
<circle cx="1184" cy="256" r="12" stroke="none" fill="black"/>
<circle cx="1184" cy="704" r="12" stroke="black" fill="white"/>
<path d="M1172,704 L1196,704 M1184,692 L1184,716 " stroke="black"/>
<path d="M1248,320 L1248,768 " stroke="black"/>
<circle cx="1248" cy="320" r="12" stroke="none" fill="black"/>
<circle cx="1248" cy="768" r="12" stroke="black" fill="white"/>
<path d="M1236,768 L1260,768 M1248,756 L1248,780 " stroke="black"/>
<path d="M1312,384 L1312,832 " stroke="black"/>
<circle cx="1312" cy="384" r="12" stroke="none" fill="black"/>
<circle cx="1312" cy="832" r="12" stroke="black" fill="white"/>
<path d="M1300,832 L1324,832 M1312,820 L1312,844 " stroke="black"/>
<path d="M1376,448 L1376,896 " stroke="black"/>
<circle cx="1376" cy="448" r="12" stroke="none" fill="black"/>
<circle cx="1376" cy="896" r="12" stroke="black" fill="white"/>
<path d="M1364,896 L1388,896 M1376,884 L1376,908 " stroke="black"/>
</svg>